<?xml version="1.0" encoding="utf-8"?>
<!-- Generator: Adobe Illustrator 27.0.0, SVG Export Plug-In . SVG Version: 6.00 Build 0)  -->
<svg version="1.1" id="Capa_1" xmlns="http://www.w3.org/2000/svg" xmlns:xlink="http://www.w3.org/1999/xlink" x="0px" y="0px"
	 viewBox="0 0 32 32" style="enable-background:new 0 0 32 32;" xml:space="preserve">
<style type="text/css">
	.st0{fill:#E45515;}
</style>
<g>
	<path class="st0" d="M29.5,13.8c-0.6,0-1.2,0.1-1.8,0.2c-1.9,0.3-3.7,0.5-5.6,0.7c-0.2,0-0.4,0-0.6,0c-0.4-0.1-0.5-0.5-0.7-0.8
		c-0.1-0.3,0.1-0.6,0.3-0.8c0.3-0.3,0.6-0.5,1-0.7c0.7-0.4,1.4-0.9,2-1.4c0.4-0.3,0.8-0.5,1.2-0.8c0.9-0.5,1.7-1.1,2.5-1.8
		c0.6-0.5,0.7-1.3,0.4-2c-0.3-0.6-0.8-0.8-1.5-0.8c-0.4,0-0.7,0.2-1,0.4c-1.1,0.8-2,1.8-3,2.7c-0.8,0.8-1.6,1.7-2.5,2.5
		c-0.4,0.4-0.8,0.4-1.2,0.1c-0.4-0.3-0.5-0.6-0.3-1.2c0.5-1.3,0.8-2.7,1.6-4c0.1-0.2,0.2-0.4,0.2-0.6c0.3-0.8,0.5-1.7,0.8-2.5
		c0.2-0.8,0-1.4-0.5-2c-0.5-0.5-1.2-0.5-1.8,0c-0.4,0.4-0.6,0.9-0.7,1.5c-0.4,2.1-0.9,4.2-1.2,6.4c0,0.4-0.2,0.8-0.5,1.2
		c-0.4,0.5-0.9,0.5-1.4,0C15.2,10,15.1,9.8,15,9.4c-0.4-1.7-0.8-3.5-1.2-5.2c-0.2-0.8-0.4-1.7-0.7-2.4c-0.3-0.7-0.9-1-1.6-0.9
		c-0.5,0.1-1,0.7-1,1.4c0,0.3,0,0.7,0.1,1c0.4,1.4,0.9,2.8,1.6,4c0.5,0.8,0.8,1.7,1.1,2.6c0.1,0.5,0.1,0.9-0.2,1.3
		c-0.3,0.5-0.6,0.5-1,0.2c-0.6-0.4-1.1-0.8-1.6-1.3C9.4,9.1,8.1,8.1,6.8,7.1c-0.3-0.2-0.6-0.4-1-0.6c-0.6-0.2-1.2,0-1.6,0.4
		C3.8,7.5,3.7,8,4.1,8.6c0.4,0.7,1,1.2,1.7,1.5c0.7,0.3,1.3,0.7,2,1.1c1,0.6,2.1,1.1,3.1,1.8c0.5,0.4,0.6,0.7,0.5,1.2
		c-0.1,0.4-0.5,0.7-1,0.7c-1-0.1-2.1-0.1-3.1-0.2c-1.2-0.1-2.3-0.2-3.4-0.4l0,0c-0.4,0-0.7,0.1-0.9,0.1c-0.5,0-0.9,0.3-1.1,0.8
		c-0.2,0.4-0.2,0.8-0.1,1.2C1.8,17.3,2.2,17.8,3,18c0.7,0.1,1.3,0.1,2-0.1c0.4-0.1,0.8-0.2,1.1-0.3c1.3-0.2,2.7-0.3,4-0.6
		c0.2,0,0.3,0,0.5,0c0.4,0.1,0.7,0.2,0.8,0.6c0.1,0.4,0,0.7-0.3,1c-0.2,0.2-0.5,0.4-0.8,0.5c-1.5,1-3.1,2.1-4.6,3.1
		c-0.3,0.2-0.5,0.4-0.7,0.6c-0.9,0.8-0.9,1.8-0.1,2.6c0.2,0.2,0.5,0.4,0.8,0.4c0.6,0.1,1.1-0.1,1.6-0.5c0.8-0.7,1.5-1.4,2.3-2.1
		c0.2-0.2,0.4-0.4,0.6-0.6c0.6-0.8,1.4-1.5,2.2-2.2c0.4-0.4,0.7-0.4,1-0.2c0.3,0.2,0.4,0.5,0.3,1.1c0,0.1-0.1,0.2-0.1,0.2
		c-0.4,1.2-0.9,2.4-1.3,3.6c-0.4,1.2-0.9,2.3-1.2,3.6c-0.3,1.3,0.7,2.3,1.8,2.1c0.8-0.2,1.2-0.8,1.4-1.5c0.1-0.4,0.2-0.9,0.2-1.3
		c0.3-1.8,0.7-3.5,0.9-5.3c0-0.3,0.1-0.7,0.2-1c0.1-0.3,0.4-0.5,0.8-0.5c0.4,0,0.5,0.3,0.6,0.6c0.1,0.2,0.1,0.3,0.1,0.5
		c0.3,1.8,0.8,3.4,1.3,5.1c0.2,0.7,0.4,1.4,0.7,2.1c0.2,0.4,0.4,0.6,0.8,0.8c0.7,0.2,1.3,0.1,1.8-0.5c0.5-0.6,0.6-1.3,0.3-2
		c-0.6-1.4-1.3-2.8-2-4.2c-0.4-0.8-0.8-1.6-1.2-2.4c-0.1-0.3-0.2-0.7,0.1-1c0.2-0.3,0.8-0.3,1.1,0c0.3,0.2,0.6,0.4,0.9,0.7
		c1.5,1.3,3,2.5,4.5,3.8c0.3,0.2,0.5,0.4,0.8,0.5c0.9,0.5,2-0.1,2.3-1.2c0.2-0.8-0.2-1.4-0.8-1.8c-0.8-0.5-1.6-1.1-2.5-1.6
		c-1.3-0.7-2.5-1.5-3.8-2.1c-0.4-0.2-0.6-0.6-0.5-1c0.1-0.4,0.4-0.7,0.9-0.7c0.4,0,0.8,0,1.2,0c1.5,0.2,3.1,0.2,4.6,0.4
		c0.5,0.1,1,0.1,1.5,0.1c1,0,1.5-0.3,1.8-1.3C31.4,14.9,30.8,13.9,29.5,13.8z M30.4,16.6C30.3,16.9,30,17,29.7,17
		c-0.4,0-0.8,0-1.3,0c-1.3,0-2.8-0.2-4.2-0.3c-0.6,0-1.3-0.1-1.9-0.2c-0.3,0-0.6,0-0.8,0.1c-0.4,0.2-0.7,0.5-0.8,1
		c0,0.5,0.2,0.9,0.6,1.2c0.2,0.1,0.4,0.2,0.6,0.3c1.9,1,3.7,2.1,5.5,3.3c0.5,0.3,0.9,0.7,0.8,1.4c-0.1,1-1.1,1.5-1.9,1.1
		c-0.5-0.2-0.9-0.6-1.3-0.9c-1.3-1.1-2.6-2.2-4-3.4c-0.3-0.2-0.6-0.5-0.9-0.7c-0.3-0.2-0.6-0.2-0.9-0.2c-0.6,0.1-0.9,0.6-0.8,1.2
		c0.1,0.3,0.2,0.6,0.4,0.9c0.5,0.9,0.9,1.9,1.3,2.8c0.5,1,0.9,2,1.4,3.1c0.1,0.3,0.2,0.6,0.2,0.9c0,0.6-0.5,1.2-1,1.3
		c-0.6,0.2-1.2-0.1-1.5-0.7c-0.4-0.8-0.6-1.6-0.8-2.4c-0.5-1.7-0.9-3.3-1.3-5c-0.2-0.9-0.9-1.3-1.5-0.9c-0.4,0.2-0.5,0.6-0.6,1
		c-0.1,0.9-0.2,1.8-0.4,2.6c-0.2,1.4-0.5,2.9-0.8,4.3c-0.1,0.4-0.2,0.7-0.4,1c-0.4,0.5-0.9,0.7-1.5,0.5c-0.6-0.2-0.9-0.8-0.8-1.5
		c0.1-0.7,0.3-1.3,0.5-2c0.7-1.9,1.4-3.8,2-5.7c0.2-0.6,0.1-1-0.4-1.3c-0.4-0.3-0.8-0.3-1.2,0.2c-0.8,0.7-1.6,1.4-2.3,2.3
		c-0.6,0.7-1.3,1.2-2,1.8c-0.4,0.4-0.8,0.8-1.3,1.1c-0.5,0.3-1,0.4-1.5,0.1c-0.5-0.4-0.7-1.1-0.5-1.7c0.1-0.2,0.2-0.3,0.4-0.5
		c0.5-0.5,1.1-0.9,1.7-1.2c1.5-1,3-2,4.5-3.1c0.6-0.4,0.7-1.2,0.2-1.8c-0.3-0.4-0.7-0.5-1.1-0.4C8.5,17,6.6,17,4.8,17.6
		c-0.6,0.2-1.3,0.2-1.9,0.1c-1.2-0.2-1.4-1.9-0.8-2.6c0.1-0.2,0.3-0.3,0.5-0.3c0.4,0,0.8-0.1,1.2-0.1c0.7,0,1.3,0.1,2,0.2
		c1.5,0.2,3,0.2,4.5,0.4c0.6,0,1-0.3,1.2-0.8c0.2-0.6,0.1-1.1-0.4-1.5c-0.3-0.3-0.7-0.5-1-0.7C8.8,11.4,7.4,10.6,6,9.9
		C5.4,9.6,4.8,9.2,4.4,8.5C4.1,8,4.1,7.5,4.5,7.1c0.3-0.4,0.8-0.5,1.3-0.2C6.1,7,6.3,7.1,6.5,7.3c1.5,1.1,2.9,2.3,4.2,3.5
		c0.4,0.4,0.9,0.7,1.3,1c0.6,0.4,1,0.2,1.3-0.3c0.3-0.5,0.4-1,0.2-1.5C13.4,9,13,8,12.5,7c-0.4-0.7-0.7-1.5-1-2.2
		c-0.1-0.4-0.2-0.8-0.4-1.1c-0.2-0.5-0.2-0.9-0.2-1.4c0-0.5,0.4-0.8,0.8-0.9c0.4-0.1,1,0.1,1.2,0.6c0.3,0.7,0.5,1.4,0.6,2.2
		c0.4,1.8,0.9,3.7,1.3,5.6c0.1,0.3,0.2,0.6,0.4,0.9c0.6,0.6,1.3,0.6,1.9,0c0.4-0.5,0.5-1.1,0.6-1.7c0.2-1.7,0.6-3.4,0.9-5.1
		c0.1-0.3,0.1-0.6,0.2-0.9c0.1-0.5,0.3-1,0.7-1.4c0.4-0.4,0.9-0.4,1.3,0c0.4,0.4,0.7,0.9,0.5,1.5c-0.4,1.2-0.6,2.5-1.2,3.6
		c-0.7,1.2-1,2.6-1.5,3.9c-0.2,0.5,0,1,0.4,1.3c0.5,0.3,1.1,0.3,1.5-0.1c0.6-0.6,1.2-1.2,1.8-1.8C23.1,9,24,8.1,24.9,7.2
		c0.4-0.4,0.8-0.7,1.2-1c0.2-0.1,0.4-0.2,0.6-0.2c0.5,0,1,0.2,1.2,0.6c0.3,0.5,0.2,1.2-0.3,1.6c-0.7,0.6-1.4,1.2-2.2,1.6
		c-0.6,0.4-1.2,0.8-1.8,1.2c-0.6,0.5-1.2,0.8-1.8,1.2c-0.3,0.2-0.7,0.5-1,0.7c-0.3,0.3-0.4,0.7-0.3,1.1c0.3,0.7,0.6,0.9,1.3,0.9
		c1.1,0,2.1-0.2,3.1-0.3c1.3-0.1,2.6-0.3,3.9-0.6c0.3-0.1,0.7,0,1,0.1c0.5,0.1,0.7,0.4,0.8,0.9C30.9,15.7,30.7,16.2,30.4,16.6z"/>
	<path class="st0" d="M31.2,14.3c-0.3-0.5-0.9-0.8-1.6-0.8c-0.5,0-1.1,0.1-1.6,0.2l-0.3,0.1c-1.7,0.3-3.4,0.5-5,0.7l-0.5,0.1
		c-0.2,0-0.3,0-0.5,0c-0.2,0-0.3-0.2-0.4-0.5c0-0.1,0-0.1,0.2-0.3c0.3-0.2,0.6-0.5,0.9-0.6c0.8-0.4,1.4-0.9,2.1-1.4
		c0.3-0.2,0.7-0.5,1.1-0.7c0.8-0.5,1.7-1,2.6-1.8c0.7-0.6,0.9-1.6,0.5-2.4c-0.3-0.7-0.9-1.1-1.8-1.1c-0.5,0-1,0.2-1.2,0.5
		c-0.9,0.7-1.7,1.5-2.5,2.3l-0.5,0.5c-0.2,0.2-0.5,0.5-0.8,0.8c-0.6,0.6-1.1,1.2-1.8,1.7c-0.4,0.3-0.6,0.2-0.7,0.1
		c-0.3-0.2-0.3-0.2-0.1-0.8c0.1-0.3,0.2-0.7,0.4-1c0.3-1,0.7-2,1.2-2.9c0.1-0.2,0.2-0.4,0.3-0.6l0.2-0.5c0.2-0.7,0.4-1.3,0.6-2
		c0.3-0.9,0.1-1.7-0.6-2.4c-0.3-0.3-0.7-0.5-1.1-0.5c0,0,0,0,0,0c-0.4,0-0.8,0.2-1.1,0.5c-0.5,0.5-0.7,1-0.8,1.7
		c-0.1,0.8-0.3,1.6-0.5,2.4c-0.3,1.3-0.5,2.6-0.7,4c0,0.4-0.2,0.7-0.4,1c-0.1,0.1-0.2,0.2-0.4,0.2c-0.2,0-0.3-0.1-0.4-0.2
		c-0.1-0.2-0.2-0.4-0.3-0.7c-0.4-1.7-0.8-3.5-1.2-5.2l-0.1-0.4c-0.1-0.7-0.3-1.4-0.6-2.1c-0.3-0.8-1.2-1.3-2-1.1
		c-0.7,0.2-1.2,0.9-1.2,1.8c0,0.3,0,0.8,0.1,1.1c0.5,1.4,0.9,2.8,1.7,4.1c0.4,0.7,0.7,1.5,1,2.5c0.1,0.4,0.1,0.7-0.1,1
		c-0.2,0.3-0.2,0.3-0.5,0.1c-0.6-0.4-1.1-0.8-1.6-1.2C9.7,8.9,8.4,7.9,7.2,7L7,6.8C6.7,6.5,6.3,6.3,6,6.2c-0.7-0.3-1.5-0.1-2,0.6
		C3.4,7.4,3.3,8.1,3.8,8.8c0.4,0.7,1.1,1.3,1.9,1.7c0.7,0.4,1.3,0.7,2,1.1C8,11.8,8.3,12,8.7,12.2c0.7,0.4,1.3,0.7,1.9,1.2
		c0.4,0.3,0.4,0.5,0.3,0.8c-0.1,0.3-0.3,0.4-0.6,0.4c-1,0-2.1-0.1-3.1-0.2c-0.9-0.1-1.7-0.2-2.6-0.3L3.8,14H3.6l-0.9,0.1
		c-0.6,0.1-1.1,0.4-1.4,1c-0.3,0.5-0.2,1-0.1,1.5c0.2,1,0.7,1.5,1.7,1.7c0.8,0.2,1.5,0.1,2.2-0.1l0.2-0.1c0.3-0.1,0.6-0.2,0.9-0.2
		c0.5-0.1,1-0.1,1.5-0.2c0.8-0.1,1.7-0.2,2.5-0.4c0.1,0,0.3,0,0.4,0c0.4,0.1,0.4,0.2,0.4,0.3c0.1,0.4,0,0.5-0.1,0.6
		c-0.2,0.2-0.5,0.4-0.7,0.5c-0.9,0.6-1.8,1.2-2.7,1.8l-2,1.3c-0.3,0.2-0.6,0.4-0.8,0.6c-0.5,0.4-0.8,1-0.8,1.5
		c0,0.6,0.2,1.2,0.7,1.7c0.3,0.3,0.6,0.5,1,0.5c0.7,0.1,1.3-0.1,1.9-0.6c0.7-0.7,1.5-1.4,2.3-2.1c0.2-0.2,0.4-0.4,0.6-0.6
		c0.7-0.8,1.5-1.6,2.2-2.2c0.3-0.3,0.4-0.3,0.5-0.2c0.2,0.1,0.3,0.2,0.1,0.7c0,0.1,0,0.1-0.1,0.2l-0.5,1.3c-0.3,0.8-0.6,1.5-0.8,2.3
		l-0.3,0.8c-0.3,0.9-0.7,1.9-0.9,2.8c-0.2,0.8,0,1.5,0.5,2c0.4,0.4,0.8,0.6,1.3,0.6c0.1,0,0.3,0,0.4,0c0.8-0.2,1.4-0.8,1.6-1.8
		c0.1-0.4,0.2-0.8,0.2-1.2l0-0.1c0.1-0.6,0.2-1.3,0.3-1.9c0.2-1.1,0.4-2.2,0.5-3.4c0-0.3,0.1-0.6,0.2-0.9c0.1-0.3,0.3-0.3,0.4-0.3
		c0.1,0,0.2,0,0.3,0.3c0.1,0.2,0.1,0.3,0.1,0.5c0.2,1.4,0.6,2.7,1,4c0.1,0.4,0.2,0.8,0.3,1.1c0.2,0.8,0.4,1.5,0.8,2.2
		c0.2,0.5,0.6,0.8,1,0.9c0.9,0.3,1.6,0.1,2.2-0.6c0.6-0.7,0.7-1.5,0.3-2.4c-0.3-0.6-0.5-1.2-0.8-1.8c-0.4-0.8-0.8-1.6-1.1-2.5
		c-0.2-0.4-0.4-0.8-0.6-1.2c-0.2-0.4-0.4-0.8-0.6-1.2c-0.1-0.4-0.1-0.5,0-0.6c0.1-0.1,0.4-0.1,0.6,0c0.3,0.2,0.6,0.4,0.9,0.7
		c1.1,1,2.3,1.9,3.4,2.9l1.1,0.9c0.2,0.2,0.5,0.4,0.9,0.6c0.5,0.3,1.2,0.3,1.7,0c0.6-0.3,1-0.8,1.1-1.5c0.2-0.9-0.1-1.6-1-2.2
		c-0.8-0.6-1.7-1.1-2.5-1.6l-0.8-0.4c-1-0.6-2-1.2-3-1.7c-0.3-0.1-0.4-0.3-0.3-0.6c0.1-0.2,0.2-0.4,0.5-0.4l0.1,0c0.4,0,0.7,0,1.1,0
		c0.9,0.2,1.8,0.2,2.6,0.2c0.7,0,1.4,0.1,2,0.2c0.4,0.1,0.9,0.1,1.5,0.1c1.1,0,1.8-0.4,2.1-1.5C31.6,15.5,31.5,14.8,31.2,14.3z
		 M29.7,17c-0.4,0-0.8,0-1.3,0c-1.3,0-2.8-0.2-4.2-0.3c-0.6,0-1.3-0.1-1.9-0.2c-0.3,0-0.6,0-0.8,0.1c-0.4,0.2-0.7,0.5-0.8,1
		c0,0.5,0.2,0.9,0.6,1.2c0.2,0.1,0.4,0.2,0.6,0.3c1.9,1,3.7,2.1,5.5,3.3c0.5,0.3,0.9,0.7,0.8,1.4c-0.1,1-1.1,1.5-1.9,1.1
		c-0.5-0.2-0.9-0.6-1.3-0.9c-1.3-1.1-2.6-2.2-4-3.4c-0.3-0.2-0.6-0.5-0.9-0.7c-0.3-0.2-0.6-0.2-0.9-0.2c-0.6,0.1-0.9,0.6-0.8,1.2
		c0.1,0.3,0.2,0.6,0.4,0.9c0.5,0.9,0.9,1.9,1.3,2.8c0.5,1,0.9,2,1.4,3.1c0.1,0.3,0.2,0.6,0.2,0.9c0,0.6-0.5,1.2-1,1.3
		c-0.6,0.2-1.2-0.1-1.5-0.7c-0.4-0.8-0.6-1.6-0.8-2.4c-0.5-1.7-0.9-3.3-1.3-5c-0.2-0.9-0.9-1.3-1.5-0.9c-0.4,0.2-0.5,0.6-0.6,1
		c-0.1,0.9-0.2,1.8-0.4,2.6c-0.2,1.4-0.5,2.9-0.8,4.3c-0.1,0.4-0.2,0.7-0.4,1c-0.4,0.5-0.9,0.7-1.5,0.5c-0.6-0.2-0.9-0.8-0.8-1.5
		c0.1-0.7,0.3-1.3,0.5-2c0.7-1.9,1.4-3.8,2-5.7c0.2-0.6,0.1-1-0.4-1.3c-0.4-0.3-0.8-0.3-1.2,0.2c-0.8,0.7-1.6,1.4-2.3,2.3
		c-0.6,0.7-1.3,1.2-2,1.8c-0.4,0.4-0.8,0.8-1.3,1.1c-0.5,0.3-1,0.4-1.5,0.1c-0.5-0.4-0.7-1.1-0.5-1.7c0.1-0.2,0.2-0.3,0.4-0.5
		c0.5-0.5,1.1-0.9,1.7-1.2c1.5-1,3-2,4.5-3.1c0.6-0.4,0.7-1.2,0.2-1.8c-0.3-0.4-0.7-0.5-1.1-0.4C8.5,17,6.6,17,4.8,17.6
		c-0.6,0.2-1.3,0.2-1.9,0.1c-1.2-0.2-1.4-1.9-0.8-2.6c0.1-0.2,0.3-0.3,0.5-0.3c0.4,0,0.8-0.1,1.2-0.1c0.7,0,1.3,0.1,2,0.2
		c1.5,0.2,3,0.2,4.5,0.4c0.6,0,1-0.3,1.2-0.8c0.2-0.6,0.1-1.1-0.4-1.5c-0.3-0.3-0.7-0.5-1-0.7C8.8,11.4,7.4,10.6,6,9.9
		C5.4,9.6,4.8,9.2,4.4,8.5C4.1,8,4.1,7.5,4.5,7.1c0.3-0.4,0.8-0.5,1.3-0.2C6.1,7,6.3,7.1,6.5,7.3c1.5,1.1,2.9,2.3,4.2,3.5
		c0.4,0.4,0.9,0.7,1.3,1c0.6,0.4,1,0.2,1.3-0.3c0.3-0.5,0.4-1,0.2-1.5C13.4,9,13,8,12.5,7c-0.4-0.7-0.7-1.5-1-2.2
		c-0.1-0.4-0.2-0.8-0.4-1.1c-0.2-0.5-0.2-0.9-0.2-1.4c0-0.5,0.4-0.8,0.8-0.9c0.4-0.1,1,0.1,1.2,0.6c0.3,0.7,0.5,1.4,0.6,2.2
		c0.4,1.8,0.9,3.7,1.3,5.6c0.1,0.3,0.2,0.6,0.4,0.9c0.6,0.6,1.3,0.6,1.9,0c0.4-0.5,0.5-1.1,0.6-1.7c0.2-1.7,0.6-3.4,0.9-5.1
		c0.1-0.3,0.1-0.6,0.2-0.9c0.1-0.5,0.3-1,0.7-1.4c0.4-0.4,0.9-0.4,1.3,0c0.4,0.4,0.7,0.9,0.5,1.5c-0.4,1.2-0.6,2.5-1.2,3.6
		c-0.7,1.2-1,2.6-1.5,3.9c-0.2,0.5,0,1,0.4,1.3c0.5,0.3,1.1,0.3,1.5-0.1c0.6-0.6,1.2-1.2,1.8-1.8C23.1,9,24,8.1,24.9,7.2
		c0.4-0.4,0.8-0.7,1.2-1c0.2-0.1,0.4-0.2,0.6-0.2c0.5,0,1,0.2,1.2,0.6c0.3,0.5,0.2,1.2-0.3,1.6c-0.7,0.6-1.4,1.2-2.2,1.6
		c-0.6,0.4-1.2,0.8-1.8,1.2c-0.6,0.5-1.2,0.8-1.8,1.2c-0.3,0.2-0.7,0.5-1,0.7c-0.3,0.3-0.4,0.7-0.3,1.1c0.3,0.7,0.6,0.9,1.3,0.9
		c1.1,0,2.1-0.2,3.1-0.3c1.3-0.1,2.6-0.3,3.9-0.6c0.3-0.1,0.7,0,1,0.1c0.5,0.1,0.7,0.4,0.8,0.9c0.1,0.5-0.1,1-0.4,1.5
		C30.3,16.9,30,17,29.7,17z"/>
</g>
</svg>
