<?xml version="1.0" encoding="utf-8"?>
<!-- Generator: Adobe Illustrator 27.0.0, SVG Export Plug-In . SVG Version: 6.00 Build 0)  -->
<svg version="1.0" id="Capa_1" xmlns="http://www.w3.org/2000/svg" xmlns:xlink="http://www.w3.org/1999/xlink" x="0px" y="0px"
	 viewBox="0 0 472.2 123.2" style="enable-background:new 0 0 472.2 123.2;" xml:space="preserve">
<style type="text/css">
	.st0{fill:#FFFFFF;}
</style>
<path class="st0" d="M56.3,74.3h41.1L77.2,34.6h-0.5L56.3,74.3z M91.6,22.6l45.9,87.5v0.6h-21.6l-9.9-19.6H47.6l-10.1,19.6H16.2
	v-0.6l45.5-87.5H91.6L91.6,22.6z"/>
<path class="st0" d="M227,94.8c4.4,0,8-3.6,8-8v-4.2c0-4.4-3.6-8-8-8h-61.2v20.2H227z M232.5,46.8c0-4.4-3.6-8-8-8h-58.7v19.5h58.7
	c4.4,0,8-3.6,8-8V46.8z M256.3,86.6c0,17.2-10.2,24.5-34.5,24.5h-76V22.6h72.7c24.9,0,35.3,7,35.3,24.1c0,9.5-3.3,15.7-11.3,19.4
	C252.3,69.3,256.3,75.9,256.3,86.6L256.3,86.6z"/>
<polygon class="st0" points="316.4,60.9 368.1,110.3 368.1,110.9 340.3,110.9 301.1,72.6 284.4,85.1 284.4,110.9 264.5,110.9 
	264.5,22.5 284.4,22.5 284.4,63.3 337.8,22.5 366,22.5 366,23.2 316.4,60.9 "/>
<path class="st0" d="M433.4,97.7v-4.4h6.5V75.6h-6.5v-4.4h-32.7v4.4h-6.5v17.7h6.5v4.4H433.4z M394.2,111v-4.4h-13.1v-8.9h-6.5V84.4
	h-6.5V49.1h6.5V35.8h6.5v-8.9h13.1v-4.4H440v4.4H453v8.9h6.5v8.9H440v-4.4h-6.5v-4.4h-32.7v4.4h-6.5v13.3h-6.5v13.3h6.5v-4.4h6.5
	v-4.4h45.7v4.4h6.5v4.4h6.5v31H453v8.9H440v4.4L394.2,111L394.2,111z"/>
</svg>
