<svg width="54" height="43" viewBox="0 0 54 43" fill="none" xmlns="http://www.w3.org/2000/svg">
<path d="M3.67578 2.25977H2.17578L2.17578 3.75977V8.84589V10.3459L2.17579 17.7466L2.17579 19.2466H3.67579H8.76191H10.2619V17.7466L10.2619 10.3459H17.6626H19.1626V8.84589V3.75977V2.25977H17.6626H10.2619H8.76191H3.67578ZM52.3283 3.75977V2.25977L50.8283 2.25977L45.7422 2.25977L44.2422 2.25977L36.8415 2.25977L35.3415 2.25977V3.75977V8.84589V10.3459H36.8415L44.2422 10.3459V17.7466V19.2466H45.7422H50.8283H52.3283V17.7466V10.3459V8.8459V3.75977ZM50.8283 41.2866H52.3283V39.7866V34.7005V33.2005L52.3283 25.7997V24.2997H50.8283H45.7422H44.2422V25.7997V33.2005L36.8415 33.2005H35.3415V34.7005V39.7866V41.2866H36.8415H44.2422H45.7422H50.8283ZM2.17578 39.7866V41.2866H3.67578H8.7619H10.2619L17.6626 41.2866H19.1626V39.7866L19.1626 34.7005V33.2005H17.6626L10.2619 33.2005L10.2619 25.7997V24.2997H8.76191H3.67578H2.17578L2.17578 25.7997L2.17578 33.2005V34.7005V39.7866Z" fill="#F5F4E5" stroke="black" stroke-width="3"/>
</svg>
