<svg width="47" height="43" viewBox="0 0 47 43" fill="none" xmlns="http://www.w3.org/2000/svg">
<path d="M44.3858 20.8616L3.10742 2.39734V40.6411L44.3858 20.8616Z" fill="#F5F4E5"/>
<rect x="24.8379" y="27.7544" width="5.31179" height="3.60267" fill="black"/>
<rect width="5.31179" height="3.60267" transform="matrix(1 0 0 -1 24.8379 14.3138)" fill="black"/>
<rect x="19.5264" y="30.2487" width="5.31179" height="3.60267" fill="black"/>
<rect width="5.31179" height="3.60267" transform="matrix(1 0 0 -1 19.5264 11.8196)" fill="black"/>
<rect width="5.31179" height="3.60267" transform="matrix(1 0 0 -1 14.2148 9.46399)" fill="black"/>
<rect x="14.2148" y="32.6042" width="5.31179" height="3.60267" fill="black"/>
<rect x="8.90234" y="35.0983" width="5.31179" height="3.60267" fill="black"/>
<rect x="1.79004" y="37.5233" width="7.31704" height="3.60267" fill="black"/>
<rect width="5.31179" height="3.60267" transform="matrix(1 0 0 -1 8.90234 6.96973)" fill="black"/>
<rect width="8.37629" height="3.60267" transform="matrix(1 0 0 -1 0.526367 5.16858)" fill="black"/>
<rect width="4.08596" height="42.5392" transform="matrix(1 0 0 -1 0.526367 42.7886)" fill="black"/>
<rect x="35.4619" y="22.0039" width="5.31179" height="3.60267" fill="black"/>
<rect width="5.31179" height="3.60267" transform="matrix(1 0 0 -1 35.4619 20.0641)" fill="black"/>
<rect x="30.1494" y="24.7754" width="5.31179" height="3.60267" fill="black"/>
<rect width="5.31179" height="3.60267" transform="matrix(1 0 0 -1 30.1494 17.2928)" fill="black"/>
<rect x="40.7734" y="19.2327" width="5.31179" height="3.60267" fill="black"/>
</svg>
