<svg width="36" height="51" viewBox="0 0 36 51" fill="none" xmlns="http://www.w3.org/2000/svg">
<path fill-rule="evenodd" clip-rule="evenodd" d="M5 22.5171V28.0927L31.0001 49V3L5 22.5171Z" fill="#F5F4E5"/>
<rect x="16" y="35" width="4" height="8" fill="black"/>
<rect x="8" y="27" width="4" height="8" fill="black"/>
<rect x="16" y="8" width="4" height="8" fill="black"/>
<rect x="8" y="16" width="4" height="8" fill="black"/>
<rect x="20" y="4" width="4" height="8" fill="black"/>
<rect x="12" y="12" width="4" height="8" fill="black"/>
<rect x="20" y="39" width="4" height="8" fill="black"/>
<rect x="12" y="31" width="4" height="8" fill="black"/>
<rect y="20" width="12" height="12" fill="black"/>
<rect x="24" y="43" width="7" height="8" fill="black"/>
<rect x="24" width="7" height="8" fill="black"/>
<rect x="27" y="5" width="4" height="45" fill="black"/>
<rect x="31" y="20" width="5" height="12" fill="black"/>
</svg>
