<?xml version="1.0" encoding="UTF-8"?>
<svg id="Capa_1" data-name="Capa 1" xmlns="http://www.w3.org/2000/svg" viewBox="0 0 617.11 624.93">
  <defs>
    <style>
      .cls-1 {
        fill: #e6c35e;
      }

      .cls-2 {
        fill: #f3f2e3;
      }

      .cls-3 {
        fill: #1c140a;
      }

      .cls-4 {
        fill: #e45515;
      }
    </style>
  </defs>
  <path class="cls-3" d="M307.71,14.36c29.34-1.24,57.46,3.51,84.95,12.22,17.17,5.44,33.75,12.74,49.14,21.88,29.74,17.66,58.1,37.41,82.84,61.9,3.56,3.53,6.81,7.27,9.79,11.31,18.58,25.22,34.47,51.98,49.54,79.49,13.91,25.39,19.28,52.1,21.25,80.16,.19,2.66-.01,5.35,.32,7.98,4.38,35.14-3.09,69-12.02,102.46-8.96,33.57-22.23,65.67-42.18,94.23-8.43,12.07-16.98,24.52-28.63,34.34-7.57,6.38-13.91,14.27-20.54,21.72-4.49,5.04-9.64,9.23-15.31,12.71-9.9,6.08-19.12,13.21-29.55,18.52-5.26,2.68-9.45,7.42-14.68,10.2-23.7,12.61-48.7,20.94-75.63,23.75-20.86,2.17-41.74,3.77-62.65,5.04-27.93,1.7-55.02-3.4-81.73-11-13.77-3.92-27.12-9.04-40.48-14.17-8.83-3.4-16.1-9.31-24.11-14.02-18.7-11-35.66-24.39-52.04-38.55-1.01-.87-1.84-1.96-2.91-2.74-28.6-20.88-45.87-50.18-60.73-81.33-8.02-16.81-16.25-33.42-20.04-51.94-3.79-18.55-8.96-36.78-10.33-55.82-1.96-27.19,2.74-53.56,7.07-80.26,5.41-33.39,17.35-64.17,32.47-93.79,7.32-14.34,15.37-28.78,27.19-40.37,.95-.93,1.9-1.91,2.59-3.03,10.98-17.9,26.29-31.32,42.99-43.79,19.81-14.8,40.47-27.98,62.7-38.72,38.26-18.49,78.07-30.4,120.74-28.38Zm2.99,4.34c-21.54,0-40.6,1.04-59.65,5.72-36.04,8.86-69.15,23.75-100.14,43.86-9.22,5.98-17.87,12.76-26.96,18.87-12.66,8.51-23.41,19.25-32.32,30.99-9.37,12.35-19.14,24.51-27.56,37.75-13.2,20.77-21.81,43.41-30.71,65.92-8.22,20.8-9.71,43.41-13.96,65.26-3.97,20.39-4.57,40.95-2.26,61.65,1.59,14.27,4.75,28.15,8.12,42.07,3.69,15.24,7.92,30.13,14.62,44.44,13.18,28.14,27.56,55.3,48.8,78.51,5.77,6.31,12.81,10.49,18.94,16.04,16.07,14.55,33.22,27.76,51.83,38.89,7.13,4.27,13.59,9.66,21.37,12.88,20.33,8.41,41.02,15.68,62.58,20.34,18.28,3.95,36.72,7.32,55.42,6.26,23.57-1.34,47.18-2.61,70.62-5.67,20.94-2.73,41.17-7.96,60.02-17.68,21.01-10.83,40.26-24.52,59.97-37.45,3.02-1.98,5.8-4.56,8.15-7.32,14.23-16.65,31.13-30.75,43.85-48.97,11.88-17,23.6-34.12,31.27-53.21,12.67-31.5,22.8-63.88,27.05-97.89,1.29-10.3,2.3-20.5,2.07-30.83-.41-18.31-1.57-36.54-4.14-54.73-1.94-13.71-5.12-26.93-11.76-38.95-10.3-18.64-18.74-38.27-30.73-56-10.08-14.9-19.37-30.5-31.71-43.56-24.87-26.33-54.6-46.85-85.89-64.48-39.8-22.42-82.89-34.42-126.91-32.72Z"/>
  <path class="cls-4" d="M310.7,18.69c44.02-1.7,87.11,10.3,126.91,32.72,31.29,17.63,61.02,38.14,85.89,64.48,12.34,13.06,21.63,28.66,31.71,43.56,11.99,17.73,20.44,37.37,30.73,56,6.64,12.02,9.83,25.24,11.76,38.95,2.57,18.19,3.73,36.42,4.14,54.73,.23,10.33-.79,20.53-2.07,30.83-4.25,34.01-14.38,66.39-27.05,97.89-7.67,19.09-19.4,36.2-31.27,53.21-12.73,18.22-29.63,32.32-43.85,48.97-2.36,2.76-5.13,5.33-8.15,7.32-19.71,12.93-38.96,26.63-59.97,37.45-18.85,9.71-39.08,14.94-60.02,17.68-23.45,3.06-47.05,4.32-70.62,5.67-18.7,1.07-37.14-2.31-55.42-6.26-21.56-4.66-42.25-11.93-62.58-20.34-7.77-3.22-14.23-8.61-21.37-12.88-18.61-11.14-35.76-24.34-51.83-38.89-6.13-5.55-13.17-9.73-18.94-16.04-21.24-23.21-35.62-50.37-48.8-78.51-6.7-14.31-10.93-29.2-14.62-44.44-3.37-13.91-6.53-27.79-8.12-42.07-2.31-20.7-1.71-41.26,2.26-61.65,4.25-21.85,5.73-44.45,13.96-65.26,8.9-22.51,17.52-45.15,30.71-65.92,8.42-13.25,18.19-25.41,27.56-37.75,8.91-11.74,19.66-22.48,32.32-30.99,9.09-6.11,17.74-12.89,26.96-18.87,30.99-20.11,64.11-35,100.14-43.86,19.04-4.68,38.1-5.72,59.65-5.72ZM31.3,325.45c1.03,19.17-.43,38.47,5.99,57.29,8.13,23.84,13.52,48.48,26.6,70.65,13.81,23.38,29.31,45.05,49.23,63.64,14.86,13.87,32.3,24.59,46.56,39.17,3.16,3.23,7.41,5.58,12,6.98,2.51,.77,5,1.98,7.15,3.48,12.21,8.5,25.87,13.34,40.25,16.66,11.35,2.61,22.68,5.3,33.89,8.53,9.53,2.74,19.14,5.83,29.3,5.46,30.53-1.1,61.2-.65,91.13-8.42,20.23-5.25,40.41-9.77,58.68-21.35,25.69-16.28,50.46-33.38,71.4-55.6,4.34-4.6,8.54-9.35,13.09-13.74,14.75-14.26,24.63-32.16,36.41-48.63,1.31-1.84,1.8-4.26,2.74-6.38,4.71-10.64,8.79-21.52,12.99-32.37,9.22-23.82,14.93-48.55,16.32-73.71,1.74-31.52,.26-62.97-7.23-94.23-6.31-26.34-17.2-50.23-30.31-73.4-5.06-8.94-11.36-17.22-17.51-25.51-7.52-10.14-15.31-20.42-24.24-29-11.86-11.4-24.02-22.67-38.1-31.99-16.58-10.97-34.03-19.49-52.36-26.48-7.48-2.85-14.29-7.06-21.97-9.42-41.91-12.87-84.7-13.29-127.6-7.88-40.7,5.13-77.51,20.91-110.75,44.92-5.93,4.28-12.27,8.02-17.46,13.3-10.48,10.66-22.56,19.51-33.45,29.79-11.07,10.45-21.27,21.6-27.67,34.92-13.77,28.67-29.24,56.49-36.29,88.35-5.51,24.92-10.28,49.43-8.81,74.97Z"/>
  <path class="cls-3" d="M31.3,325.45c-1.46-25.54,3.3-50.05,8.81-74.97,7.05-31.86,22.52-59.68,36.29-88.35,6.4-13.32,16.6-24.47,27.67-34.92,10.88-10.28,22.97-19.13,33.45-29.79,5.19-5.28,11.53-9.02,17.46-13.3,33.24-24.01,70.04-39.79,110.75-44.92,42.9-5.41,85.68-4.99,127.6,7.88,7.68,2.36,14.49,6.57,21.97,9.42,18.32,6.99,35.78,15.51,52.36,26.48,14.07,9.32,26.23,20.59,38.1,31.99,8.93,8.58,16.72,18.86,24.24,29,6.14,8.28,12.44,16.56,17.51,25.51,13.11,23.17,24,47.06,30.31,73.4,7.49,31.26,8.97,62.71,7.23,94.23-1.39,25.16-7.1,49.89-16.32,73.71-4.2,10.85-8.28,21.73-12.99,32.37-.94,2.12-1.43,4.54-2.74,6.38-11.78,16.48-21.66,34.37-36.41,48.63-4.54,4.39-8.75,9.14-13.09,13.74-20.94,22.22-45.72,39.32-71.4,55.6-18.27,11.58-38.45,16.1-58.68,21.35-29.92,7.77-60.59,7.32-91.13,8.42-10.16,.37-19.77-2.72-29.3-5.46-11.22-3.23-22.55-5.92-33.89-8.53-14.38-3.31-28.03-8.15-40.25-16.66-2.16-1.5-4.64-2.72-7.15-3.48-4.59-1.41-8.84-3.76-12-6.98-14.26-14.58-31.7-25.31-46.56-39.17-19.92-18.59-35.42-40.26-49.23-63.64-13.09-22.16-18.47-46.81-26.6-70.65-6.42-18.82-4.96-38.12-5.99-57.29Zm549.5-11.44c-.59-20.55-.43-41.22-5.87-61.39-4.23-15.7-6.16-32.02-13.84-46.77-8.59-16.5-15.99-33.49-27.45-48.53-7.46-9.8-15.76-18.97-22.73-29-8.95-12.88-20.9-22.62-32.59-32.03-19.95-16.07-42.58-28.45-67.15-36.58-7.3-2.41-13.76-6.58-21.16-8.82-40.02-12.09-80.86-12.18-121.73-7.35-36.49,4.31-70.25,17.12-100.85,37.84-9.09,6.16-18.74,11.64-26.61,19.35-10.69,10.48-22.64,19.49-33.57,29.72-11.13,10.42-20.95,21.82-27.39,35.09-13.74,28.32-28.24,56.15-35.79,87.46-6.91,28.64-9.21,57.01-8.07,86.02,.39,9.96-.33,20.41,2.44,29.75,6.78,22.91,11.51,46.51,21.96,68.32,2.46,5.14,6.08,9.44,8.36,14.66,7.83,17.94,20.92,32.32,33,47.34,3.53,4.39,7.8,8.16,11.82,12.14,14.7,14.55,32.72,25.13,47.18,39.97,3.4,3.49,7.84,6.1,12.68,7.77,2.8,.97,5.6,2.28,8.03,3.96,12.27,8.46,26,13.11,40.38,16.37,11.02,2.5,22.11,4.7,32.91,8.23,12.39,4.04,25.22,6.59,38.32,5.39,26.76-2.46,53.92-1.03,80.18-8.58,19.11-5.5,38.42-9.46,55.83-20.49,24.53-15.54,48.39-31.65,68.63-52.63,9.01-9.34,18.88-18.06,26.61-28.38,12.72-16.98,25.79-33.93,33.01-54.39,6.53-18.48,13.95-36.61,17.69-56.04,3.72-19.32,7.48-38.54,5.76-58.4Z"/>
  <path class="cls-1" d="M580.8,314.02c1.72,19.86-2.04,39.08-5.76,58.4-3.74,19.43-11.16,37.55-17.69,56.04-7.22,20.45-20.29,37.4-33.01,54.39-7.73,10.32-17.6,19.04-26.61,28.38-20.24,20.98-44.1,37.09-68.63,52.63-17.41,11.03-36.72,15-55.83,20.49-26.26,7.55-53.42,6.12-80.18,8.58-13.1,1.2-25.93-1.35-38.32-5.39-10.8-3.52-21.89-5.73-32.91-8.23-14.38-3.26-28.12-7.91-40.38-16.37-2.44-1.68-5.23-2.99-8.03-3.96-4.84-1.67-9.27-4.28-12.68-7.77-14.46-14.84-32.48-25.42-47.18-39.97-4.02-3.98-8.29-7.75-11.82-12.14-12.08-15.02-25.17-29.41-33-47.34-2.28-5.22-5.9-9.52-8.36-14.66-10.44-21.8-15.17-45.41-21.96-68.32-2.77-9.34-2.05-19.79-2.44-29.75-1.14-29.02,1.16-57.38,8.07-86.02,7.55-31.31,22.05-59.15,35.79-87.46,6.44-13.27,16.26-24.67,27.39-35.09,10.93-10.23,22.88-19.25,33.57-29.72,7.87-7.71,17.52-13.19,26.61-19.35,30.59-20.72,64.35-33.53,100.85-37.84,40.86-4.83,81.71-4.74,121.73,7.35,7.4,2.24,13.86,6.4,21.16,8.82,24.57,8.12,47.2,20.51,67.15,36.58,11.69,9.41,23.64,19.15,32.59,32.03,6.97,10.03,15.27,19.2,22.73,29,11.46,15.04,18.87,32.04,27.45,48.53,7.68,14.75,9.6,31.07,13.84,46.77,5.43,20.16,5.28,40.83,5.87,61.39Zm-27.03-28.48c-.35-4.12-.75-9.76-1.34-15.38-2.67-25.58-12.69-48.82-23.2-71.85-4.43-9.69-10.42-18.55-17.48-26.6-4.76-5.44-6.62-5.63-12.57-1.43-1.9,1.34-3.61,2.95-5.46,4.36-18.51,14.18-35.93,29.67-53.65,44.79-8.6,7.34-18.04,13.7-25.83,22-8.01,8.53-17.18,15.72-26.38,22.89-5.77,4.5-11.19,9.47-17.08,13.8-4.07,3-4.46,6.31-2.34,10.36,2.5,4.79,4.07,9.86,4.58,15.2,.32,3.38,1.9,4.5,5.16,4.48,12.65-.08,25.3-.02,37.94,.02,41.92,.13,83.65-5.68,125.63-4.05,12.09,.47,12.33-.36,12-12.08-.05-1.66,0-3.33,0-6.52ZM317.35,66.71c-9.31,.24-18.62-.3-27.83,1.89-8.53,2.03-10.62,4.79-9.17,13.18,1.19,6.88,2.62,13.73,3.39,20.65,5.22,47.3,14.18,94.05,20.43,141.19,.69,5.2,2.82,6.87,7.58,6.85,4.68-.02,9.23,1.1,13.76,2.22,8.58,2.11,8.88,2.19,12.58-6.14,12.46-27.98,27.4-54.71,42.09-81.49,11.83-21.57,21.14-44.46,34.45-65.23,.71-1.11,1.2-2.38,1.66-3.62,2.11-5.76,1.6-7.6-3.98-10.33-7.46-3.65-15.04-7.05-23.04-9.45-23.47-7.05-47.6-9.13-71.93-9.71Zm-53.94,197.97c-.05-2.44-1.05-3.77-2.15-5.02-4.44-5.07-7.14-11.18-10.26-17.05-3.75-7.04-7.59-14.03-12.88-20.12-11.14-12.84-20.66-26.97-29.66-41.25-13.3-21.11-27.81-41.35-41.78-61.98-3.23-4.77-6.82-5.8-10.76-2.18-7.82,7.17-16.49,13.37-23.23,21.83-9.55,11.99-17.88,24.81-26.83,37.2-8.86,12.26-15.57,25.45-20.34,39.76-1.44,4.31-.46,7.12,3.66,8.82,2.15,.89,4.36,1.63,6.54,2.43,15.92,5.82,32.01,11.21,47.7,17.57,18.79,7.62,37.86,14.5,56.46,22.64,13.69,5.99,27.91,10.82,41.35,17.43,3.87,1.9,6.82,2.07,9.22-2.04,3.2-5.47,6.97-10.53,11.31-15.17,.86-.92,1.28-2.24,1.63-2.88Zm28.53,300.09c14.04-.05,25.71,.99,37.34-.26,7.22-.78,7.67-1.66,7.02-8.82-.36-3.98-.66-7.97-.83-11.96-.73-16.97-1.19-33.96-3.35-50.82-2.97-23.12-6.35-46.19-9.46-69.29-1.29-9.57-2.34-19.18-3.45-28.77q-1.17-10.14-11.01-11.03c-4.97-.46-10.15-.29-14.83-1.73-5.15-1.59-6.57,0-8.66,4.56-12.88,28.18-22.36,57.73-35.28,85.9-7.76,16.92-14.26,34.43-21.98,51.4-2.89,6.35-4.98,13.06-7.26,19.67-2.62,7.58-2.42,8.14,4.58,11.54,11.55,5.61,23.98,7.84,36.61,9.18,10.96,1.16,21.95,1.05,30.56,.42Zm-55.08-228.48c-9.34,1.09-18.62,1.98-27.85,3.29-33.3,4.72-66.43,10.66-99.97,13.76-12.58,1.16-25.08,3.29-37.64,4.78-4.65,.55-6.57,3.03-5.95,7.37,2.07,14.44,2.61,29.1,9.17,42.73,9.12,18.93,18.25,37.71,31.9,53.99,5.15,6.14,6.32,6.98,12.49,2.09,30.29-23.99,62.3-45.74,92.01-70.51,12.02-10.02,24.11-19.97,36.98-28.94,5.78-4.03,5.94-6.4,1.87-12.42-2.46-3.64-4.38-7.49-5.71-11.6-1.22-3.78-3.25-5.72-7.3-4.53Zm296,82.19c.21-4.79-3.54-5.44-7-6.82-29.95-11.92-59.96-23.68-89.72-36.06-20.24-8.42-40.13-17.68-60.08-26.76-4.32-1.97-7.45-2.05-10.06,2.44-1.83,3.15-4.03,6.11-6.22,9.04-5.96,7.96-6.01,7.94,.2,15.81,29.88,37.89,61.78,74.15,90.9,112.66,3.95,5.22,7.97,10.56,13.56,14.31,6.9-3.37,13.42-7.53,18.69-12.98,16.69-17.26,31.51-36.05,43.86-56.7,2.74-4.58,4.67-9.56,5.86-14.92Zm-226.88-81.87c9.07-1.21,20.23-2.73,30.39-8.17,1.72-.92,3.45-1.96,4.89-3.26,.99-.9,1.15-2.43,.09-3.57-.73-.78-1.73-.76-2.65-.15-1.1,.74-2.13,1.63-3.32,2.19-18.84,9-37.76,12.5-56.81,.54-.84-.53-1.67-1.08-2.51-1.61-1.13-.72-2.43-1.59-3.45-.12-1.29,1.87,.21,3.16,1.56,3.96,9.18,5.41,18.49,10.5,31.81,10.18Zm4.38-29.56c6.17-.67,10.38-1.31,14.61-1.52,3.94-.2,7.7,3.42,12.41,1.14-9.08-7.35-18.13-7.56-27.02,.38Zm-11.05-.42c-8.83-7.12-19.19-6.64-23.55,.68,8.02-1.46,15.7-1.53,23.55-.68Z"/>
  <path class="cls-3" d="M553.77,285.54c0,3.19-.04,4.86,0,6.52,.33,11.73,.09,12.55-12,12.08-41.99-1.62-83.71,4.18-125.63,4.05-12.65-.04-25.3-.11-37.94-.02-3.26,.02-4.84-1.1-5.16-4.48-.51-5.34-2.08-10.41-4.58-15.2-2.12-4.06-1.74-7.37,2.34-10.36,5.89-4.33,11.31-9.3,17.08-13.8,9.19-7.17,18.37-14.37,26.38-22.89,7.8-8.3,17.23-14.66,25.83-22,17.72-15.13,35.14-30.62,53.65-44.79,1.85-1.42,3.56-3.02,5.46-4.36,5.95-4.2,7.81-4.01,12.57,1.43,7.06,8.05,13.05,16.91,17.48,26.6,10.51,23.03,20.54,46.27,23.2,71.85,.59,5.62,.98,11.26,1.34,15.38Zm-30.3,12.97c6.17,.49,11.13,1.18,16.1,1.21,9.88,.07,9.84-.13,9.78-9.9-.16-23.97-5.98-46.68-14.99-68.72-6.44-15.74-13.71-30.99-24.64-44.23-4.53-5.48-4.5-5.59-10.14-1.07-11.16,8.94-22.37,17.83-33.39,26.94-28.19,23.28-54.48,48.79-83.45,71.15-3.89,3.01-9.22,5.36-10.65,10.1-1.21,3.99,3.32,7.66,4.06,11.94,.17,.97,.8,1.87,.93,2.84,.49,3.6,2.37,4.93,6.07,4.9,8.31-.06,16.64,.71,24.94,.42,28.25-.99,56.49-2.21,84.73-3.51,10.62-.49,21.22-1.42,30.67-2.07Z"/>
  <path class="cls-3" d="M317.35,66.71c24.33,.58,48.45,2.66,71.93,9.71,8,2.4,15.58,5.8,23.04,9.45,5.59,2.73,6.1,4.57,3.98,10.33-.46,1.25-.95,2.52-1.66,3.62-13.31,20.77-22.62,43.66-34.45,65.23-14.69,26.78-29.64,53.51-42.09,81.49-3.71,8.33-4,8.25-12.58,6.14-4.54-1.12-9.08-2.24-13.76-2.22-4.76,.02-6.89-1.65-7.58-6.85-6.25-47.14-15.21-93.89-20.43-141.19-.76-6.92-2.2-13.78-3.39-20.65-1.45-8.39,.64-11.15,9.17-13.18,9.2-2.19,18.51-1.65,27.83-1.89Zm-31.85,16.49c1.25,8.82,2.97,18.66,4.01,28.58,4.28,40.74,12.6,80.89,17.57,121.53,1.39,11.36,1.95,11.28,13.69,13.46,1.63,.3,3.3,.64,4.8,1.3,4.69,2.09,7.29,.47,9.25-4.11,3.91-9.18,7.55-18.58,12.55-27.17,12.57-21.59,22.38-44.62,35.38-65.97,10.21-16.77,16.37-35.67,27.29-52.13,4.1-6.18,3.38-7.27-3.24-10.43-14.84-7.08-30.4-11.72-46.78-13.55-9.58-1.07-19.12-2.81-28.72-3.22-12.6-.55-25.28-1.53-37.83,.97-7.78,1.55-8.26,2.12-7.97,10.74Z"/>
  <path class="cls-3" d="M263.41,264.68c-.35,.64-.77,1.96-1.63,2.88-4.34,4.64-8.11,9.71-11.31,15.17-2.41,4.11-5.35,3.94-9.22,2.04-13.45-6.6-27.66-11.43-41.35-17.43-18.6-8.14-37.67-15.03-56.46-22.64-15.7-6.36-31.79-11.75-47.7-17.57-2.18-.8-4.39-1.54-6.54-2.43-4.12-1.71-5.1-4.51-3.66-8.82,4.76-14.31,11.48-27.5,20.34-39.76,8.95-12.39,17.28-25.21,26.83-37.2,6.74-8.46,15.41-14.66,23.23-21.83,3.94-3.62,7.53-2.59,10.76,2.18,13.97,20.63,28.48,40.87,41.78,61.98,9,14.29,18.52,28.41,29.66,41.25,5.29,6.1,9.13,13.08,12.88,20.12,3.12,5.87,5.82,11.98,10.26,17.05,1.1,1.25,2.1,2.58,2.15,5.02ZM160.97,118.48c-8,7.15-15.82,12.38-21.75,19.58-13.98,16.94-26.17,35.17-38.01,53.65-4.36,6.81-7.29,14.15-9.75,21.76-2.13,6.59-2.16,6.61,4.41,8.98,14.36,5.18,28.87,10.02,43.08,15.58,27.22,10.65,54.31,21.64,81.39,32.63,7.08,2.87,13.93,6.28,20.88,9.47,2.69,1.23,4.83,1.37,6.79-1.58,3.41-5.13,7.22-10,10.95-15.1-31.57-49.02-65.6-95.67-97.99-144.97Z"/>
  <path class="cls-3" d="M291.95,564.77c-8.61,.63-19.59,.74-30.56-.42-12.63-1.34-25.06-3.58-36.61-9.18-7-3.4-7.2-3.96-4.58-11.54,2.28-6.61,4.38-13.32,7.26-19.67,7.72-16.97,14.22-34.48,21.98-51.4,12.92-28.17,22.4-57.72,35.28-85.9,2.09-4.56,3.51-6.15,8.66-4.56,4.68,1.44,9.86,1.27,14.83,1.73q9.87,.91,11.01,11.03c1.11,9.6,2.16,19.2,3.45,28.77,3.1,23.1,6.49,46.17,9.46,69.29,2.16,16.86,2.62,33.85,3.35,50.82,.17,3.99,.47,7.98,.83,11.96,.65,7.16,.2,8.04-7.02,8.82-11.63,1.26-23.3,.21-37.34,.26Zm4.53-4.27c9.65,0,19.3-.02,28.95,.01,4.51,.02,6.56-1.73,6.19-6.64-1.87-24.54-1.84-49.19-5.59-73.61-3.78-24.66-6.79-49.45-10.22-74.17-.77-5.55,1.48-12.7-2.63-16.27-4.29-3.73-11.54-1.75-17.36-2.93-4.51-.91-6.84,.36-8.18,4.63-.89,2.84-2.4,5.48-3.52,8.25-16.73,41.27-33.11,82.69-51.44,123.3-3,6.65-4.92,13.8-7.98,20.43-2.31,5-.68,7.34,3.9,8.98,8.79,3.15,17.76,5.53,27.04,6.74,13.58,1.76,27.18,2.3,40.83,1.29Z"/>
  <path class="cls-3" d="M236.87,336.29c4.04-1.19,6.08,.75,7.3,4.53,1.33,4.12,3.25,7.96,5.71,11.6,4.06,6.03,3.91,8.39-1.87,12.42-12.87,8.97-24.96,18.92-36.98,28.94-29.7,24.77-61.72,46.51-92.01,70.51-6.17,4.89-7.34,4.05-12.49-2.09-13.65-16.28-22.78-35.06-31.9-53.99-6.56-13.63-7.1-28.29-9.17-42.73-.62-4.33,1.3-6.82,5.95-7.37,12.56-1.49,25.05-3.62,37.64-4.78,33.54-3.1,66.67-9.04,99.97-13.76,9.23-1.31,18.52-2.2,27.85-3.29Zm-123.61,126.89c14.94-12.66,29.65-22.99,44.2-33.5,26.72-19.3,51.51-41.05,77.81-60.88,4.21-3.18,9.84-6.02,11.68-10.35,1.77-4.18-4.58-8.2-5.68-13.07-.15-.64-.49-1.23-.73-1.86-.79-2.12-2.1-3.19-4.54-2.74-2.28,.43-4.62,.56-6.93,.84-44.24,5.31-88.04,13.89-132.49,17.65-7.61,.64-15.19,1.72-22.79,2.58-3.18,.36-4.43,1.7-4.15,5.24,2.95,37.07,20.75,67.22,43.61,96.09Z"/>
  <path class="cls-3" d="M532.87,418.49c-1.2,5.36-3.12,10.34-5.86,14.92-12.35,20.64-27.17,39.44-43.86,56.7-5.27,5.45-11.79,9.61-18.69,12.98-5.59-3.75-9.62-9.09-13.56-14.31-29.12-38.51-61.03-74.77-90.9-112.66-6.2-7.87-6.16-7.85-.2-15.81,2.19-2.93,4.39-5.89,6.22-9.04,2.6-4.48,5.73-4.4,10.06-2.44,19.95,9.09,39.84,18.34,60.08,26.76,29.75,12.38,59.77,24.15,89.72,36.06,3.46,1.38,7.22,2.04,7,6.82Zm-173.35-50.97c1.59,4.08,4.57,6.83,7.04,9.93,25.75,32.3,53.25,63.17,78.12,96.19,5.2,6.91,11.12,13.28,16.43,20.11,2.85,3.67,4.98,3.74,9.03,1.2,8.44-5.29,13.75-13.43,20.59-20.17,12.75-12.56,21.62-27.84,31.57-42.39,1.86-2.72,3.1-5.88,4.5-8.89,1.94-4.18,.66-6.32-3.82-8.15-35.72-14.54-71.82-28.2-107-44.06-9.4-4.24-18.79-8.56-28.45-12.11-5.55-2.04-11.09-8.42-16.18-5.95-5.08,2.47-8.01,9.38-11.82,14.27Z"/>
  <path class="cls-3" d="M305.99,336.62c-13.31,.32-22.63-4.77-31.81-10.18-1.35-.8-2.85-2.09-1.56-3.96,1.01-1.47,2.31-.6,3.45,.12,.84,.53,1.67,1.08,2.51,1.61,19.05,11.96,37.96,8.46,56.81-.54,1.18-.57,2.21-1.46,3.32-2.19,.92-.62,1.92-.64,2.65,.15,1.06,1.14,.91,2.67-.09,3.57-1.43,1.3-3.16,2.34-4.89,3.26-10.16,5.44-21.33,6.96-30.39,8.17Z"/>
  <path class="cls-3" d="M310.37,307.06c8.89-7.94,17.94-7.73,27.02-.38-4.71,2.28-8.47-1.34-12.41-1.14-4.23,.22-8.44,.86-14.61,1.52Z"/>
  <path class="cls-3" d="M299.32,306.64c-7.85-.85-15.53-.78-23.55,.68,4.36-7.32,14.72-7.81,23.55-.68Z"/>
  <path class="cls-2" d="M523.47,298.5c-9.44,.65-20.04,1.58-30.67,2.07-28.24,1.3-56.48,2.52-84.73,3.51-8.3,.29-16.63-.48-24.94-.42-3.7,.03-5.58-1.3-6.07-4.9-.13-.97-.76-1.87-.93-2.84-.74-4.28-5.27-7.95-4.06-11.94,1.43-4.74,6.76-7.09,10.65-10.1,28.97-22.37,55.27-47.87,83.45-71.15,11.03-9.11,22.23-18,33.39-26.94,5.64-4.52,5.62-4.41,10.14,1.07,10.93,13.24,18.2,28.49,24.64,44.23,9.01,22.04,14.83,44.75,14.99,68.72,.06,9.77,.1,9.97-9.78,9.9-4.97-.03-9.93-.73-16.1-1.21Z"/>
  <path class="cls-2" d="M285.5,83.2c-.29-8.61,.18-9.19,7.97-10.74,12.55-2.5,25.23-1.52,37.83-.97,9.6,.42,19.14,2.16,28.72,3.22,16.38,1.83,31.94,6.47,46.78,13.55,6.62,3.16,7.34,4.25,3.24,10.43-10.92,16.46-17.08,35.36-27.29,52.13-13,21.35-22.81,44.38-35.38,65.97-5,8.58-8.64,17.99-12.55,27.17-1.95,4.59-4.55,6.2-9.25,4.11-1.5-.67-3.17-1-4.8-1.3-11.74-2.19-12.3-2.11-13.69-13.46-4.98-40.64-13.3-80.79-17.57-121.53-1.04-9.92-2.76-19.76-4.01-28.58Z"/>
  <path class="cls-2" d="M160.97,118.48c32.38,49.3,66.42,95.96,97.99,144.97-3.73,5.1-7.54,9.97-10.95,15.1-1.96,2.95-4.1,2.81-6.79,1.58-6.95-3.19-13.8-6.6-20.88-9.47-27.08-11-54.17-21.99-81.39-32.63-14.22-5.56-28.72-10.39-43.08-15.58-6.57-2.37-6.54-2.39-4.41-8.98,2.46-7.61,5.39-14.95,9.75-21.76,11.84-18.48,24.04-36.71,38.01-53.65,5.93-7.19,13.75-12.42,21.75-19.58Z"/>
  <path class="cls-2" d="M296.47,560.5c-13.65,1.01-27.25,.47-40.83-1.29-9.28-1.2-18.25-3.59-27.04-6.74-4.59-1.64-6.22-3.98-3.9-8.98,3.06-6.62,4.98-13.77,7.98-20.43,18.33-40.61,34.71-82.02,51.44-123.3,1.12-2.77,2.63-5.41,3.52-8.25,1.34-4.27,3.67-5.54,8.18-4.63,5.82,1.18,13.07-.8,17.36,2.93,4.11,3.57,1.86,10.72,2.63,16.27,3.43,24.72,6.44,49.5,10.22,74.17,3.75,24.42,3.72,49.08,5.59,73.61,.37,4.91-1.67,6.66-6.19,6.64-9.65-.03-19.3-.01-28.95-.01Z"/>
  <path class="cls-2" d="M113.25,463.19c-22.86-28.87-40.67-59.02-43.61-96.09-.28-3.53,.97-4.88,4.15-5.24,7.6-.85,15.17-1.93,22.79-2.58,44.45-3.76,88.25-12.33,132.49-17.65,2.31-.28,4.65-.42,6.93-.84,2.44-.45,3.75,.62,4.54,2.74,.23,.62,.58,1.22,.73,1.86,1.1,4.87,7.45,8.89,5.68,13.07-1.84,4.33-7.47,7.17-11.68,10.35-26.29,19.84-51.09,41.58-77.81,60.88-14.55,10.51-29.26,20.84-44.2,33.5Z"/>
  <path class="cls-2" d="M359.51,367.52c3.81-4.89,6.74-11.81,11.82-14.27,5.09-2.47,10.64,3.91,16.18,5.95,9.66,3.55,19.05,7.87,28.45,12.11,35.18,15.86,71.27,29.51,107,44.06,4.48,1.82,5.76,3.97,3.82,8.15-1.4,3.01-2.64,6.17-4.5,8.89-9.94,14.55-18.82,29.83-31.57,42.39-6.84,6.73-12.14,14.88-20.59,20.17-4.05,2.54-6.18,2.47-9.03-1.2-5.31-6.84-11.23-13.2-16.43-20.11-24.87-33.02-52.37-63.89-78.12-96.19-2.47-3.1-5.44-5.85-7.04-9.93Z"/>
</svg>