<?xml version="1.0" encoding="UTF-8"?>
<svg id="Capa_1" data-name="Capa 1" xmlns="http://www.w3.org/2000/svg" viewBox="0 0 423.23 537.38">
  <defs>
    <style>
      .cls-1 {
        fill: #e6c35e;
      }

      .cls-2 {
        fill: #1c140a;
      }

      .cls-3 {
        fill: #e45515;
      }
    </style>
  </defs>
  <path class="cls-2" d="M207.41,189.93c16.22-17.58,26.85-36.65,34.67-57.3,6.02-15.91,8.64-32.16,2.21-48.73-1.34-3.45-.86-6.73,2.31-8.9,3.57-2.44,6.97-1.33,9.95,1.41,.73,.67,1.43,1.42,1.96,2.25,8.2,12.92,17.25,25.39,23.54,39.36,16.51,36.66,24.26,75.18,23.31,115.42-.08,3.23-.89,6.54,.61,9.83,3.12,.21,4.69-2.26,6.54-3.88,20.85-18.29,46.24-23.88,72.82-26.16,1.64-.14,3.36,.03,4.97,.38,4.01,.85,5.39,3.95,3.24,7.42-.85,1.38-2.27,2.41-3.41,3.62-22.57,24.18-29.43,52.83-24.07,84.91,.21,1.24,1.03,2.39,1.54,3.51,5.05,.16,7.12-3.29,9.28-6.66,2.15-3.35,4.02-6.99,6.69-9.88,3.5-3.8,6.86-3.06,9.76,1.32,2.34,3.54,2.39,7.5,2.46,11.53,.57,34.19-2.91,67.75-14.13,100.32-6.28,18.21-10.35,37.2-19.7,54.3-3.67,6.71-7.15,13.52-10.82,20.23-2.27,4.15-5.74,7.22-9.29,10.32-14.22,12.41-30.91,19.12-49.28,22.5-21.99,4.04-44.1,6.99-66.48,6.85-31.69-.19-62.4-6.16-91.04-19.76-28.36-13.47-51.08-33.48-64.87-62.46-5.45-11.46-6.82-23.46-6-36,1.56-23.95,6.2-47.52,8.43-71.39,1.52-16.3,1.49-32.53-.49-48.84-2.04-16.8-10.85-29.72-21.87-41.61-2.48-2.68-5.36-4.99-8.08-7.44-2.26-2.04-4.79-4.04-2.8-7.55,1.89-3.34,5.04-4.36,8.57-3.47,5.47,1.39,10.9,3,16.26,4.74,21.71,7.06,39.19,20.56,55.86,37.75,1.1-6.15,1.69-11.22,2.93-16.12,3.27-12.89,6.85-25.71,10.25-38.57,3.87-14.62,5.19-29.46,3.87-44.55-1.13-12.87-5.84-24.52-11.88-35.74-.94-1.75-2.24-3.33-3.05-5.14-.82-1.84-1.14-3.98,.44-5.6,1.6-1.64,3.76-1.43,5.58-.47,8.22,4.38,16.8,8.25,24.44,13.48,12.36,8.47,23.03,19.03,33.65,29.6,7.53,7.49,14.39,15.56,21.12,25.15Zm182.8,27.83c-6.59,.35-11.2,.11-15.62,.92-23.09,4.22-45.69,9.67-62.95,27.43-2,2.06-4.65,4.31-7.92,3.01-3.38-1.35-2.73-4.99-3.43-7.79-.23-.95-.15-1.99-.09-2.98,1.11-20.04-.81-39.78-4.04-59.62-5.74-35.29-20.44-66.54-40.02-95.89-1.46-2.18-3.09-4.38-6.3-3.85-1.9,2.65-.37,5.2,.25,7.67,2.88,11.51,3.06,22.89,.13,34.53-6.15,24.38-18.45,45.36-33.65,65.1-7.72,10.03-9.57,10.94-17.96-.3-13.42-18-29.96-32.94-47.78-46.41-5.63-4.25-11.7-8.43-19.64-9.69-.55,3.86,.86,6.47,2.11,9.06,11.85,24.45,10.49,49.71,4.41,75.16-4.32,18.06-11.77,35.37-12.4,54.33-.18,5.37-4,6.59-8.28,3.23-1.04-.82-1.89-1.88-2.79-2.85-15.2-16.47-33.29-28.61-54.56-35.7-4.75-1.59-9.64-4.29-15.78-2.62,1.85,4.39,5.43,6.4,8.16,9.14,12.47,12.49,22.16,26.39,24.44,44.61,2.28,18.3,2.12,36.57,.11,54.81-1.89,17.19-4.51,34.31-6.48,51.5-.95,8.24-1.76,16.58-1.56,24.85,.57,22.8,12.74,40.51,27.77,55.85,23.04,23.51,51.99,36.29,84.04,43.05,24.73,5.22,49.58,5.99,74.5,3.61,20.19-1.93,40.45-4.43,59.59-11.76,12.6-4.82,24.14-12.17,31.67-23.28,6.84-10.09,12.19-21.33,17.32-32.57,6.83-14.97,9.65-31.12,15-46.49,10.56-30.32,13.04-61.69,12.98-93.45,0-3.93-.14-7.88-3.9-10.83-4.9,3.74-6.48,9.54-10.25,13.66-2.79,3.04-5.99,5.69-10.41,4.49-3.7-1-4.46-4.63-5.36-7.83-.54-1.92-1.05-3.89-1.22-5.86-2.02-23.1,1.26-45.05,13.51-65.29,4.28-7.08,9.36-13.47,16.4-20.93ZM129.15,128.39c-.15,.13-.55,.4-.52,.49,.3,.79,.74,.81,1.1,.04,.03-.07-.38-.34-.59-.53Z"/>
  <path class="cls-2" d="M397.72,122.85c-5.04,5.85-5.56,12.66-6.09,19.63-1.6,21.03-25.66,35.14-44.09,33.55-2.85-.25-3.84-1.72-4.38-4.36-3.82-18.63,4.17-37.3,19.88-46.49,2.18-1.27,4.98-2.85,5.95-.22,2.52,6.81,5.79,2.81,8.99,1.25,9.92-4.82,10.51-4.95,19.73-3.34Zm-10.17,5.34c-4.99-.08-8.34,2.13-11.66,4.26-3.34,2.14-6.31,5.57-9.24-.76-1.48-3.19-4.01-.85-5.75,.48-11.82,9-14.75,21.41-13.42,35.42,.28,2.97,1.97,3.87,4.76,3.52,5.25-.67,10.4-1.12,15.33-3.69,15.86-8.24,21.59-21.45,19.98-39.24Z"/>
  <path class="cls-2" d="M78.96,167.26c-.88,5.07-1.89,12.64-1.43,20.33,.19,3.09-.13,6.31-3.28,7.75-3.04,1.39-5.81-.32-8.26-2.12-10.21-7.49-15.66-17.86-17.78-30.11-1.52-8.79-.72-17.93-4.19-26.46-.95-2.33,.86-4,3.11-3.91,17.62,.74,33.7,17.96,31.82,34.51Zm-28.93-28.62c2.38,10.15,1.47,19.46,3.7,28.54,2.25,9.13,6.88,16.4,14.31,21.93,3.1,2.31,5.33,1.32,4.93-2.32-.7-6.37,.79-12.51,1.21-18.76,1.06-15.64-7-25.98-24.15-29.4Z"/>
  <path class="cls-2" d="M170.59,82.18c.14-9.31,6.03-16.78,8.22-25.45,.18-.69,1.76-1.73,2.27-1.53,5.4,2.12,6.51-1.18,7.83-5.33,.81-2.56,3.11-1.47,4.9-.25,5.97,4.07,9.11,10.08,9.32,16.89,.23,7.35-1.54,14.67-6.94,20.27-3.92,4.07-8.32,7.67-11.21,12.66-1.84,3.17-4.4,2.79-6.59,.58-4.85-4.9-7.83-10.73-7.79-17.83Zm9.92,13.6c20.11-19.41,22.89-28.75,12.26-40.83-2.69,2.73-2.36,10.38-9.57,6.17-.83-.48-1.64,1.7-2.14,2.86-1.31,3.04-2.45,6.15-3.88,9.12-3.85,8.01-2.91,15.31,3.33,22.68Z"/>
  <path class="cls-3" d="M390.21,217.77c-7.03,7.46-12.11,13.86-16.4,20.93-12.24,20.24-15.53,42.19-13.51,65.29,.17,1.98,.68,3.94,1.22,5.86,.9,3.2,1.66,6.83,5.36,7.83,4.42,1.2,7.62-1.45,10.41-4.49,3.77-4.11,5.35-9.92,10.25-13.66,3.76,2.95,3.9,6.9,3.9,10.83,.06,31.76-2.42,63.13-12.98,93.45-5.35,15.37-8.17,31.52-15,46.49-5.13,11.24-10.47,22.48-17.32,32.57-7.53,11.11-19.08,18.45-31.67,23.28-19.14,7.33-39.4,9.84-59.59,11.76-24.92,2.38-49.77,1.61-74.5-3.61-32.05-6.76-61-19.54-84.04-43.05-15.03-15.34-27.2-33.05-27.77-55.85-.21-8.27,.61-16.61,1.56-24.85,1.97-17.19,4.59-34.3,6.48-51.5,2-18.24,2.17-36.51-.11-54.81-2.27-18.22-11.97-32.12-24.44-44.61-2.73-2.74-6.31-4.75-8.16-9.14,6.14-1.68,11.02,1.03,15.78,2.62,21.27,7.09,39.36,19.23,54.56,35.7,.9,.98,1.75,2.04,2.79,2.85,4.28,3.36,8.1,2.15,8.28-3.23,.63-18.96,8.08-36.27,12.4-54.33,6.08-25.45,7.44-50.71-4.41-75.16-1.26-2.59-2.66-5.2-2.11-9.06,7.94,1.26,14.01,5.44,19.64,9.69,17.82,13.47,34.36,28.4,47.78,46.41,8.38,11.24,10.24,10.33,17.96,.3,15.2-19.75,27.5-40.72,33.65-65.1,2.94-11.63,2.75-23.01-.13-34.53-.62-2.46-2.15-5.02-.25-7.67,3.21-.53,4.85,1.67,6.3,3.85,19.58,29.35,34.28,60.6,40.02,95.89,3.23,19.84,5.15,39.57,4.04,59.62-.05,.99-.14,2.04,.09,2.98,.69,2.8,.04,6.44,3.43,7.79,3.26,1.3,5.92-.96,7.92-3.01,17.26-17.76,39.85-23.21,62.95-27.43,4.42-.81,9.03-.57,15.62-.92ZM231.19,496.22c1.67,0,3.33,.06,5,0,14.73-.62,28.66-5.24,40.03-13.86,14.57-11.05,22.7-26.8,23.36-45.62,.26-7.32-.1-14.63-1.01-21.94-1.19-9.58-2.31-19.2-1.81-28.89,.99-19.29,4.42-37.73,18.65-52.33,.91-.93,1.56-2.16,2.2-3.32,1.35-2.44,2.07-4.98,.31-7.52-1.93-2.79-4.4-1.78-7.13-1.27-12.49,2.34-22.82,8.91-32.97,16.01-5.82,4.07-6.41,3.86-9.51-2.48-4.29-8.77-6.9-18.02-6.85-27.87,.09-19.7,.61-39.34,8.78-57.83,1.08-2.45,2.15-5.09,0-7.5-2.53-2.83-5.5-1.51-8.29-.45-1.54,.58-2.95,1.52-4.39,2.34-8.8,5.06-15.69,12.02-21.96,20.03-11.69,14.94-24.01,29.41-32.78,46.38-8.12,15.7-15.17,31.84-19.55,49.06-.6,2.34-.18,5.83-3.57,6.47-3.32,.63-5.68-1.6-7.56-3.99-1.43-1.81-2.47-3.93-3.66-5.93-4.93-8.31-5.27-17.71-6.66-26.92-.65-4.32,.21-11.45-4.56-12.05-6.28-.79-5.88,6.87-7.44,11.12-7.5,20.43-10.33,41.93-13.62,63.31-3.54,22.95-.99,45.33,8.37,66.49,5.31,12,13.55,22.36,26.24,27.64,19.28,8.03,39.67,10.54,60.38,10.91Z"/>
  <path class="cls-3" d="M129.15,128.39c.21,.18,.62,.46,.59,.53-.37,.77-.8,.75-1.1-.04-.04-.09,.37-.35,.52-.49Z"/>
  <path class="cls-3" d="M387.55,128.19c1.61,17.79-4.12,31-19.98,39.24-4.93,2.56-10.08,3.02-15.33,3.69-2.79,.35-4.48-.55-4.76-3.52-1.34-14.01,1.6-26.42,13.42-35.42,1.74-1.33,4.27-3.67,5.75-.48,2.93,6.32,5.9,2.9,9.24,.76,3.32-2.13,6.67-4.35,11.66-4.26Z"/>
  <path class="cls-3" d="M50.03,138.64c17.15,3.42,25.22,13.76,24.15,29.4-.42,6.24-1.91,12.38-1.21,18.76,.4,3.64-1.82,4.63-4.93,2.32-7.43-5.53-12.06-12.8-14.31-21.93-2.24-9.07-1.33-18.39-3.7-28.54Z"/>
  <path class="cls-3" d="M180.51,95.78c-6.25-7.37-7.18-14.67-3.33-22.68,1.43-2.98,2.58-6.09,3.88-9.12,.5-1.16,1.31-3.34,2.14-2.86,7.21,4.21,6.88-3.44,9.57-6.17,10.63,12.09,7.85,21.43-12.26,40.83Z"/>
  <path class="cls-2" d="M231.19,496.22c-20.71-.38-41.09-2.89-60.38-10.91-12.69-5.28-20.94-15.64-26.24-27.64-9.36-21.16-11.9-43.54-8.37-66.49,3.29-21.37,6.12-42.87,13.62-63.31,1.56-4.26,1.16-11.91,7.44-11.12,4.77,.6,3.91,7.72,4.56,12.05,1.38,9.21,1.73,18.61,6.66,26.92,1.19,2,2.23,4.12,3.66,5.93,1.88,2.39,4.24,4.63,7.56,3.99,3.38-.65,2.97-4.13,3.57-6.47,4.38-17.22,11.43-33.35,19.55-49.06,8.77-16.97,21.09-31.44,32.78-46.38,6.26-8.01,13.16-14.97,21.96-20.03,1.44-.83,2.85-1.76,4.39-2.34,2.79-1.06,5.76-2.38,8.29,.45,2.16,2.41,1.09,5.05,0,7.5-8.16,18.49-8.68,38.12-8.78,57.83-.05,9.85,2.56,19.1,6.85,27.87,3.1,6.34,3.69,6.55,9.51,2.48,10.16-7.1,20.49-13.67,32.97-16.01,2.73-.51,5.2-1.53,7.13,1.27,1.76,2.54,1.05,5.09-.31,7.52-.64,1.16-1.29,2.38-2.2,3.32-14.23,14.6-17.66,33.04-18.65,52.33-.5,9.69,.61,19.31,1.81,28.89,.91,7.31,1.27,14.62,1.01,21.94-.66,18.82-8.79,34.57-23.36,45.62-11.37,8.62-25.3,13.24-40.03,13.86-1.66,.07-3.33,0-5,0Zm79.66-169.36c-6.46,.41-12.28,2.67-17.79,5.96-4,2.39-7.74,5.03-11.36,8.03-7.82,6.49-12.71,5.31-17.39-3.58-5.87-11.16-8.3-23.22-7.72-35.68,.86-18.27,1.79-36.6,9.14-53.81,.17-.39-.43-1.12-.94-2.31-8.79,3.59-15.98,9.16-21.91,16.48-4.82,5.95-9.85,11.74-14.35,17.92-7.44,10.19-15.44,20.01-21.1,31.41-8.15,16.39-16.17,32.75-20.09,50.87-2.09,9.64-9.35,11.21-16.91,4.47-2.29-2.04-3.92-4.53-5.26-7.21-3.9-7.77-7.23-15.68-7.23-24.65,0-2.33,.87-5.36-2.54-6.96-2.76,3.57-3.55,7.88-4.64,11.92-5.23,19.3-8.45,39-10.57,58.85-2.24,20.97,1.24,41.07,10.92,59.97,5.29,10.34,12.05,19.2,23.45,23.31,20.23,7.3,41.19,11.61,62.6,9.62,16.62-1.55,32.71-6.45,44.08-20.3,9.19-11.2,14.27-23.97,13.69-38.62-.33-8.31-.65-16.65-1.72-24.88-3.75-28.86,.13-55.72,19.46-78.82,.67-.62,1.54-1.35,.72-2.24-.75-.81-1.72-.28-2.52,.26Z"/>
  <path class="cls-1" d="M312.67,328.85c-19.33,23.1-23.21,49.96-19.46,78.82,1.07,8.23,1.39,16.57,1.72,24.88,.58,14.65-4.49,27.43-13.69,38.62-11.38,13.86-27.46,18.76-44.08,20.3-21.41,1.99-42.37-2.32-62.6-9.62-11.4-4.11-18.16-12.97-23.45-23.31-9.68-18.9-13.16-39-10.92-59.97,2.12-19.85,5.34-39.55,10.57-58.85,1.1-4.05,1.88-8.35,4.64-11.92,3.4,1.6,2.54,4.63,2.54,6.96,0,8.97,3.33,16.88,7.23,24.65,1.35,2.68,2.98,5.18,5.26,7.21,7.56,6.74,14.83,5.17,16.91-4.47,3.92-18.12,11.95-34.49,20.09-50.87,5.67-11.4,13.66-21.22,21.1-31.41,4.51-6.17,9.54-11.97,14.35-17.92,5.93-7.32,13.13-12.89,21.91-16.48,.51,1.19,1.11,1.91,.94,2.31-7.35,17.21-8.28,35.54-9.14,53.81-.59,12.46,1.84,24.52,7.72,35.68,4.68,8.89,9.57,10.07,17.39,3.58,3.62-3,7.36-5.64,11.36-8.03,5.51-3.29,11.33-5.55,17.79-5.96,.6,.66,1.21,1.32,1.81,1.99Z"/>
  <path class="cls-1" d="M310.85,326.87c.8-.54,1.78-1.07,2.52-.26,.83,.89-.05,1.62-.71,2.25-.6-.66-1.21-1.32-1.81-1.98Z"/>
</svg>