<?xml version="1.0" encoding="UTF-8"?>
<svg id="Capa_1" data-name="Capa 1" xmlns="http://www.w3.org/2000/svg" viewBox="0 0 617.11 504.83">
  <defs>
    <style>
      .cls-1 {
        fill: #fff;
      }

      .cls-2 {
        fill: #f3f2e3;
      }

      .cls-3 {
        fill: #1c140a;
      }

      .cls-4 {
        fill: #3c6347;
      }
    </style>
  </defs>
  <path class="cls-3" d="M569.6,300.39c6.74,11.91,13.39,23.73,20.1,35.52,3.53,6.2,6.31,12.76,7.61,19.74,2.79,14.92-5.46,22.47-17.04,22.43-4.25-.02-8.51,.02-12.76,.12-3.05,.07-6.18-.22-9.12,1.44,.18,3.59,1.18,6.8,2.17,10.04,1,3.24,2.03,6.53,2.45,9.88,1.11,8.81-2.08,13.27-10.65,15.55-9.96,2.64-19.7,1.25-29.32-1.69q-13.45-4.11-10.95,10.01c.49,2.78,1.17,5.57,1.3,8.37,.6,13.19-7.17,19.22-19.46,14.68-9.57-3.53-18.76-8.01-27.1-14.04-1.15-.83-2.44-1.52-3.42-2.52-2.88-2.95-5.16-2.85-8.55-.11-11.24,9.11-23.69,16.53-35.86,24.33-9.96,6.39-20.85,10.35-32.5,11.82-28.38,3.58-56.74,7.53-85.51,5.59-28.39-1.91-56.26-6.2-83.03-16.37-12.57-4.77-23.56-12.35-35.1-18.95-11.67-6.67-11.64-6.6-23.33,.35-9.27,5.51-17.97,11.86-26.73,18.13-8.34,5.97-17.01,11.29-26.92,14.27-1.89,.57-3.82,1.14-5.77,1.42-7.01,1.01-9.71-1.36-8.85-8.33,1.15-9.32,4.17-18.21,7.05-27.1,.85-2.61,2.4-5.12,1.42-8.43-4.86,0-8.82,2.19-12.98,3.7-5.59,2.03-11.13,4.34-17.29,3.82-6.56-.55-8.42-2.79-7.3-9.42,1.66-9.87,5.29-19.07,9.94-27.9,1.3-2.47,2.61-4.94,3.86-7.31-1.41-2.66-3.61-1.63-5.39-1.67-9.14-.23-17.97,2.28-27,3.1-4.81,.44-9.62,.71-14.43,.17-8.32-.95-10.54-4.16-7.73-11.94,3.58-9.9,8.48-19.16,14.6-27.75,5.1-7.15,10.64-13.99,14.78-21.8,.65-1.23,1.72-2.3,1.29-4.01-2.14-1.86-5.1-1.89-7.74-2.73-22.79-7.3-35.57-23.03-33.95-49.22,1.11-17.93,6.2-33.63,18.09-47.39,11.68-13.52,26.24-18.11,43.32-16.2,4.45,.5,9.07,.5,13.36,2.28,2.79,1.16,4.26,.06,4.46-2.97,.26-3.91,1.29-7.82,.09-11.7-2.77-.92-5.02,.93-7.54,1.01-7.22,.21-10.78-3.33-9.64-10.34,5.94-36.74,19.4-69.52,44.37-98.29,23.19-26.73,51.56-45.71,80.97-63.93,4.58-2.84,9.58-4.83,14.84-6.23,15.85-4.23,31.43-9.49,47.88-11.36,18.13-2.06,36.22-1.33,54.32-.21,28.03,1.72,55.95,4.74,83.37,10.85,21.32,4.75,42.21,11.16,60.85,23.21,2.14,1.38,4.34,2.77,6.68,3.72,23.14,9.35,39.55,27.01,55.78,44.93,3.08,3.4,5.24,7.34,7.34,11.39,10.16,19.6,15.15,40.82,19.5,62.22,1.51,7.43-2.04,11.15-9.64,10.8-1.94-.09-3.87-.34-6.67-.59,.43,6.22-1.39,11.95-.17,18.21,4.1,.05,7.47-2.2,11.07-3.41,10.34-3.47,20.47-3.9,30.62,.72,4.38,1.99,9.04,3.34,13.44,5.29,9.11,4.03,15.25,10.78,17.4,20.63,2.19,9.99,3.31,19.96,1.12,30.29-4.43,20.89-14.62,37.88-31.95,50.49-1.36,.99-2.58,2.17-4.09,3.46Zm-37.39,.7c.97,.84,1.94,1.69,2.91,2.53,.34,1.16,.91,2.17,2.3,2.01,8.45-.99,17.07-1.89,24.6-6.04,28.51-15.68,44.33-44.93,39.85-77.25-1.55-11.2-6.97-19.63-17.97-23.78-4.24-1.6-8.45-3.27-12.68-4.89-14.54-5.57-27.66-3.02-39.45,6.97-.87,.74-1.69,1.67-2.89,1.18-1.58-.65-1.6-2.19-1.52-3.61,.32-5.65,.64-11.31,1.03-16.95,.58-8.51,.54-8.77-7.03-12.41-12.81-6.15-25.09-13.11-36.35-21.87-6.27-4.88-13.29-8.64-20.27-12.44-7.46-4.06-15.02-7.98-22.18-12.53-6.96-4.42-13.06-5.13-20.25-.03-9.31,6.6-19.93,11-31.27,12.65-15.73,2.28-21.19-2.56-27.38-13.27-1.09-1.88-1.13-4.45-3.38-5.56-.64,.16-1.28,.14-1.66,.45-1.31,1.08-2.55,2.25-3.76,3.44-11.48,11.21-24.94,19.53-39.19,26.68-7.43,3.73-14.71,3.28-21.96-.66-5.71-3.1-9.76-7.69-12.61-13.4-1.85-3.71-4.33-4.04-7.54-1.78-4.17,2.94-8.37,5.83-12.53,8.78-8.32,5.91-16.69,11.78-25.73,16.54-8.94,4.72-15.01,2.47-19.43-6.54-1.21-2.47-1.27-5.58-4.51-7.73-2.18,2.4-4.44,4.82-6.64,7.3-6.59,7.42-13,15-21.31,20.66-5.29,3.61-11.33,4.64-15.56-.1-7.13-8-13.84-6.47-21.35-1.45-1.39,.93-3.08,1.43-4.63,2.13-14.21,6.41-28.02,13.62-41.8,20.9-3.54,1.87-5.76,4.01-5.93,8.36-1.08,27.43-3.84,54.78-1,82.32,2.81,27.15,8.67,53.05,25,75.65,2.15,2.97,3.96,6.24,5.53,9.56,5.4,11.39,12.69,21.36,21.46,30.4,7.69,7.93,13.92,17.61,22.58,24.17,15.1,11.43,31.49,21.37,49.02,28.71,28.3,11.85,58.3,15.89,88.74,17.59,22.5,1.26,44.71-1.7,66.97-3.86,17.64-1.71,34.67-5.57,49.45-16.29,5.73-4.16,11.68-8.03,17.71-11.74,21.94-13.49,36.2-34.01,49.74-54.99,6.74-10.44,12.15-21.76,17.66-32.94,6.51-13.21,12.59-26.65,13.37-41.74,1.17-.85,1.21-2.24,1.61-3.45,1.58,.46,3.2,.81,4.73,1.39,3.12,1.2,4.65-.28,5.51-3.06ZM87.67,251.33c.5-9.86,.97-18.05,1.3-26.25,.25-6.2-.96-8.23-6.94-9.65-7.15-1.69-14.47-2.72-21.86-1.82-11.37,1.38-20.64,6.3-28.47,14.99-15.47,17.18-18.81,37.47-16.53,59.33,.78,7.48,4.39,14.27,9.85,19.32,15.03,13.93,43.74,20.37,63.26,9.13,4.14-2.38,5.29-4.56,4.33-9.35-3.78-18.91-4.62-38.14-4.94-55.71Zm452.37,111.25c.71-.04,1.85,0,2.95-.19,6.7-1.14,12.34-7.17,12.95-13.78,.69-7.43-2.74-13.65-9.68-15.55-4.87-1.33-6.3-3.75-5.61-8.39,.35-2.32,.01-4.72-3.24-4.69-2.63,.03-3.39,1.97-3.13,4.06,.74,5.8-1.91,9.85-5.41,14.26-4.04,5.1-4.35,11.36-.95,17.47,2.61,4.68,6.45,6.86,12.12,6.82Zm-5.38-52.46c.97,4.73,3.15,7.01,7.18,6.23,4.14-.79,3.73-4.37,4.95-8.84-4.53,2.42-8.23,1.33-12.13,2.61Z"/>
  <path class="cls-2" d="M520.37,306.22c-.77,15.09-6.86,28.53-13.37,41.74-5.51,11.18-10.93,22.5-17.66,32.94-13.53,20.97-27.8,41.49-49.74,54.99-6.03,3.71-11.98,7.59-17.71,11.74-14.77,10.72-31.81,14.58-49.45,16.29-22.26,2.16-44.47,5.11-66.97,3.86-30.44-1.7-60.45-5.74-88.74-17.59-17.53-7.35-33.92-17.28-49.02-28.71-8.66-6.56-14.9-16.24-22.58-24.17-8.77-9.04-16.06-19.01-21.46-30.4-1.57-3.32-3.39-6.59-5.53-9.56-16.33-22.6-22.19-48.5-25-75.65-2.84-27.54-.08-54.89,1-82.32,.17-4.35,2.39-6.49,5.93-8.36,13.78-7.28,27.59-14.49,41.8-20.9,1.55-.7,3.23-1.2,4.63-2.13,7.52-5.02,14.22-6.54,21.35,1.45,4.23,4.75,10.27,3.71,15.56,.1,8.3-5.66,14.72-13.24,21.31-20.66,2.2-2.47,4.45-4.9,6.64-7.3,3.24,2.15,3.3,5.26,4.51,7.73,4.42,9.01,10.49,11.26,19.43,6.54,9.03-4.76,17.41-10.63,25.73-16.54,4.16-2.96,8.36-5.84,12.53-8.78,3.2-2.26,5.68-1.92,7.54,1.78,2.85,5.71,6.91,10.3,12.61,13.4,7.25,3.94,14.53,4.39,21.96,.66,14.25-7.15,27.7-15.46,39.19-26.68,1.22-1.19,2.46-2.36,3.76-3.44,.37-.31,1.02-.29,1.66-.45,2.25,1.11,2.29,3.68,3.38,5.56,6.19,10.71,11.65,15.55,27.38,13.27,11.34-1.65,21.96-6.05,31.27-12.65,7.19-5.1,13.29-4.39,20.25,.03,7.16,4.55,14.72,8.47,22.18,12.53,6.98,3.8,14,7.56,20.27,12.44,11.25,8.75,23.54,15.72,36.35,21.87,7.57,3.64,7.62,3.9,7.03,12.41-.39,5.65-.71,11.3-1.03,16.95-.08,1.42-.07,2.96,1.52,3.61,1.2,.49,2.02-.43,2.89-1.18,11.79-9.99,24.91-12.54,39.45-6.97,4.23,1.62,8.44,3.3,12.68,4.89,11,4.15,16.42,12.58,17.97,23.78,4.48,32.32-11.34,61.58-39.85,77.25-7.54,4.15-16.15,5.05-24.6,6.04-1.38,.16-1.96-.85-2.3-2.01,2.7-4.8,3.36-10.82,8.43-14.22,1.57-1.06,2.53-2.36,1.03-4.1-1.58-1.85-3.17-.64-4.31,.49-4.28,4.23-7.09,9.3-8.06,15.3-.85,2.79-2.38,4.26-5.51,3.06-1.53-.59-3.15-.94-4.72-1.39-5.29-4.64-11.88-7.54-16.9-12.55-.8-.8-1.93-1.19-2.93-.14-.89,.94-.92,2.17-.23,3.08,1.01,1.32,2.22,2.54,3.51,3.59,4.59,3.76,9.71,6.72,14.95,9.47Zm-227.94-68.15c-9.7-11.23-21.54-19.27-35.71-23.8-2.01-1.02-3.93-2.32-6.05-3.01-20.99-6.8-42.29-7.48-63.57-1.91-15.48,4.05-26.66,14.34-35.83,27.09-1.93,2.69-2.12,4.99-.57,7.78,1.5,2.7,2.71,5.45,5.12,7.67,4.15,3.83,8.1,7.93,11.73,12.26,11.79,14.07,27.87,19.38,45.1,20.61,19.09,1.36,37.77-2.13,55.55-9.68,16.33-6.94,24.24-18.92,24.23-37.02Zm119.73-32.71c-2.04,.1-5.15,.29-8.27,.4-26.31,.87-47.54,13.08-66.81,29.78-2.67,2.32-3.37,4.76-2.9,8.17,1.94,14.24,8.66,24.91,22.17,30.77,18.84,8.18,38.66,11.44,58.93,9.63,13.24-1.18,26.43-4.75,36.65-14.16,7.47-6.89,14.32-14.5,21.04-22.15,5.16-5.87,4.85-10.03-.06-16.37-15.14-19.56-35.58-27.04-60.74-26.06Zm-187.57,123c3.53,.59,7.1,.09,10.04-2.25,3.36-2.66,7.7-.98,11.1-3.04,3.05,5.21,7.13,.62,10.54,.65,3.82,.03,7.61-3.72,10.74,1.94,.72,1.3,4.23,1.78,6.12-.32,1.87-2.07,4.85-2.38,5.97-.78,3.02,4.32,9.21,.48,10.41,2.96,3.2,6.69,7.13-1.28,10.52,1.33,1.16,.89,4.69-1.98,6.96-1.69,3.87,.5,7.36,.37,11.28-.31,3.32-.57,7.57-.54,10.72-.07,6.89,1.02,14.59-2.53,20.8,2.94,.37,.32,1.17,.51,1.6,.34,10.37-4.01,20.16,6.47,30.58,1.24,.16-.08,.53,.17,.75,.35,3.81,3.04,9.69,.37,13.09,4.94,1.02,1.37,3.2,.97,4.53-.47,.82-.89,.92-2.88,2.91-1.42,1.15,.85,2.55,1.66,3.69,.14,1.07-1.42-.28-2.6-.86-3.78-1.58-3.2-4.51-5-7.34-6.89-4.24-2.82-8.83-5.22-12.66-8.52-4.3-3.71-8.2-4.86-13.77-2.69-4.83,1.88-9.75,1.35-15.25-.61-6.42-2.3-14.1-.82-20.61-4.31-7.09,3.17-15-1.71-22.02,2.24-3.16-2.08-8.06,1.03-9.68-1.08-3.87-5.07-6.61-1.47-9.96-.17-7.12,2.76-7.85,2.38-11.41-4.88-.22-.44-.76-.72-1.5-1.39-4.25,1.6-7.83,7.12-13.66,3.57-.57-.34-1.99,.91-3.07,1.17-1.21,.29-2.31,1.3-3.74-.11-3.29-3.23-7-1.46-10.25,.01-9.33,4.22-18,9.52-25.26,16.9-1.02,1.04-2.04,1.98-1.32,4.03Zm22.53,28.53c-1.99,3.1-.82,4.65,.77,6.01,8.04,6.86,16.78,12.2,27.27,14.81,24.97,6.2,49.98,4.27,75.01,1.04,8.87-1.14,16.7-5.17,23.9-10.35,1.51-1.09,4.02-2.55,2.66-4.59-1.73-2.6-3.33,.17-4.74,1.19-8.94,6.43-18.86,10.1-29.88,10.85-8.46,.58-16.91,1.9-25.36,1.87-24.99-.08-50.02-.51-69.64-20.82Zm208.3-188.27c-.77-2.34-2.78-2.27-4.8-2.15-13.28,.77-26.57,1.3-39.83,2.36-21.32,1.71-41.8,6.99-61.48,15.37-3.41,1.45-6.54,3.35-9.44,5.65-1.18,.94-2.4,2.26-1.64,3.52,1.18,1.97,2.88,.72,4.33-.14,14.77-8.83,30.95-13.73,47.73-16.77,18.43-3.34,37.05-4.75,55.78-4.75,2.54,0,5.1-.09,7.6-.44,1.06-.15,1.84-1.2,1.74-2.65Zm-256.02,6.51c-6.53-.03-13.02,.19-19.48,1.15-2.25,.34-4.51,.53-6.36,2.06-.69,.57-1.1,1.24-.92,2.17,.29,1.46,1.52,1.85,2.53,1.43,4.03-1.66,8.29-1.78,12.5-2,27.21-1.43,53.55,2.54,78.83,12.96,3.65,1.5,7.45,2.64,11.2,3.9,1.11,.37,2.37,.45,2.93-.76,.71-1.54-.07-2.85-1.5-3.42-3.67-1.46-7.48-2.6-11.12-4.13-21.96-9.18-44.89-13.26-68.6-13.37Zm335.86,64.28c.16,7.83,1.32,14.22,.53,20.7-.18,1.49,.74,2.99,2.22,3.18,1.6,.21,2.48-1.28,2.54-2.72,.16-3.94,.05-7.9,.15-11.84,.36-13.62,2.01-15.21,15.71-15.19,1.4,0,2.8,.26,4.2,.39,2.06,.18,5.17,1.87,5.54-1.34,.3-2.58-3.04-2.7-5.16-3.24-.54-.14-1.12-.16-1.68-.19-16.75-.94-30,6.25-41.32,17.87-1.19,1.22-2.41,2.89-.73,4.36,1.24,1.08,2.59-.09,3.61-1.12,3.96-3.97,8.37-7.35,14.4-10.85Z"/>
  <path class="cls-2" d="M87.67,251.33c.33,17.58,1.16,36.8,4.94,55.71,.96,4.79-.19,6.97-4.33,9.35-19.52,11.24-48.23,4.8-63.26-9.13-5.46-5.06-9.07-11.84-9.85-19.32-2.28-21.86,1.05-42.15,16.53-59.33,7.83-8.7,17.1-13.61,28.47-14.99,7.39-.9,14.71,.13,21.86,1.82,5.98,1.41,7.19,3.44,6.94,9.65-.33,8.2-.81,16.39-1.3,26.25Zm-36.96,5.85c1.25,5.34-.41,9.26,.07,13.19,.29,2.37,.14,6.19,2.93,6.19,3.73,0,3.4-3.59,3.04-6.51-.34-2.8-.8-5.63-.68-8.43,.46-10.66,3.13-14.54,13.79-7.66,1.24,.8,2.46,1.79,3.47,.08,.61-1.04-.23-2.18-1.04-2.99-4.99-4.96-13.09-5.67-19.57-1.28-8.73,5.92-13.48,15.08-18.58,23.89-.6,1.03-.41,2.45,.61,3.05,1.69,1,2.44-.41,3.12-1.7,.52-1,1.06-2,1.67-2.96,3.13-4.88,5.65-10.24,11.17-14.88Z"/>
  <path class="cls-4" d="M540.04,362.58c-5.67,.04-9.52-2.14-12.12-6.82-3.4-6.11-3.09-12.37,.95-17.47,3.5-4.42,6.15-8.46,5.41-14.26-.27-2.09,.49-4.03,3.13-4.06,3.26-.03,3.59,2.37,3.24,4.69-.69,4.63,.74,7.06,5.61,8.39,6.94,1.9,10.38,8.12,9.68,15.55-.62,6.61-6.25,12.64-12.95,13.78-1.1,.19-2.24,.15-2.95,.19Z"/>
  <path class="cls-4" d="M520.37,306.22c-5.24-2.75-10.36-5.71-14.95-9.47-1.29-1.06-2.5-2.27-3.51-3.59-.69-.91-.66-2.14,.23-3.08,1-1.05,2.13-.66,2.93,.14,5.02,5.02,11.61,7.92,16.9,12.55-.4,1.21-.43,2.6-1.61,3.45Z"/>
  <path class="cls-4" d="M532.21,301.1c.97-6.01,3.79-11.07,8.06-15.3,1.14-1.13,2.73-2.34,4.31-.49,1.5,1.75,.54,3.05-1.03,4.1-5.07,3.41-5.73,9.42-8.43,14.22-.97-.84-1.94-1.69-2.91-2.53Z"/>
  <path class="cls-2" d="M534.66,310.13c3.9-1.28,7.6-.19,12.13-2.61-1.22,4.48-.81,8.05-4.95,8.84-4.03,.77-6.21-1.5-7.18-6.23Z"/>
  <path class="cls-3" d="M412.16,205.36c25.16-.97,45.6,6.5,60.74,26.06,4.91,6.35,5.22,10.5,.06,16.37-6.72,7.65-13.57,15.26-21.04,22.15-10.22,9.41-23.4,12.98-36.65,14.16-20.26,1.81-40.09-1.46-58.93-9.63-13.51-5.86-20.23-16.53-22.17-30.77-.47-3.41,.23-5.85,2.9-8.17,19.27-16.7,40.5-28.91,66.81-29.78,3.11-.1,6.22-.3,8.27-.4Zm-41.73,13.65c-4.33,.85-7.32,2.47-10.27,4.1-6.48,3.57-11.86,8.7-17.95,12.81-4.55,3.07-5.16,7.1-3.77,11.82,3.1,10.54,8.83,18.78,19.45,23.17,15.38,6.36,31.39,9.31,47.96,9.72,29.58,.72,49.48-14.48,64.04-38.64,2.03-3.36,1.56-6.15-.93-9.22-4.16-5.13-9.15-9.35-14.45-13.06-11.79-8.25-25.15-10.78-40.1-10.2,3.97,9.11,2.78,17.87,1.8,26.53-.98,8.59-5.31,15.49-12.54,20.3-12.13,8.07-24.56,4.76-31.43-8.13-1.91-3.58-2.73-7.4-3.01-11.39-.4-5.65-.17-11.28,1.22-17.81Z"/>
  <path class="cls-3" d="M292.43,238.07c.01,18.11-7.9,30.09-24.23,37.03-17.78,7.55-36.45,11.04-55.55,9.68-17.23-1.23-33.31-6.55-45.1-20.61-3.63-4.33-7.57-8.44-11.73-12.26-2.41-2.22-3.62-4.97-5.12-7.67-1.55-2.79-1.37-5.1,.57-7.78,9.17-12.76,20.35-23.04,35.83-27.09,21.27-5.57,42.57-4.89,63.57,1.91,2.12,.69,4.04,1.99,6.05,3.01-.63,.79-1.24,1.59-1.88,2.37-1.1,1.32-1.02,2.29,.77,2.81,2.1,6.92,2.03,14.03,1.18,21.06-1.68,13.88-14.41,23.19-26.41,19.45-9.23-2.88-15.96-8.91-18.72-18.19-2.5-8.4-3.7-17.14-1.88-25.98,.39-1.91,1.21-3.84-.26-5.67-4.01-.72-7.88,.5-11.78,.98-16.64,2.07-29.4,10.78-40.03,23.36-3.23,3.82-2.85,7.1-.28,10.58,2.68,3.63,5.98,6.83,8.48,10.57,11.41,17.03,28.44,24.01,47.75,25.26,19.14,1.24,37.81-2.5,55.37-10.52,13.5-6.16,19.95-16.93,19.68-31.75,1.24-.18,2.48-.36,3.71-.53Z"/>
  <path class="cls-3" d="M224.58,328.35c-.72-2.05,.3-2.99,1.32-4.03,7.26-7.38,15.93-12.68,25.26-16.9,3.25-1.47,6.96-3.24,10.25-.01,1.43,1.41,2.54,.4,3.74,.11,1.08-.26,2.5-1.52,3.07-1.17,5.83,3.55,9.41-1.97,13.66-3.57,.74,.67,1.28,.95,1.5,1.39,3.57,7.26,4.29,7.64,11.41,4.88,3.35-1.3,6.09-4.9,9.96,.17,1.61,2.11,6.51-1,9.68,1.08,7.01-3.95,14.92,.92,22.02-2.24,6.51,3.49,14.19,2.01,20.61,4.31,5.5,1.97,10.42,2.49,15.25,.61,5.57-2.16,9.48-1.01,13.77,2.69,3.82,3.3,8.42,5.7,12.66,8.52,2.83,1.88,5.77,3.69,7.34,6.89,.58,1.17,1.93,2.36,.86,3.78-1.15,1.52-2.54,.7-3.69-.14-1.99-1.46-2.09,.53-2.91,1.42-1.33,1.44-3.52,1.83-4.53,.47-3.4-4.56-9.29-1.9-13.09-4.94-.22-.17-.59-.42-.75-.35-10.42,5.23-20.21-5.25-30.58-1.24-.44,.17-1.24-.02-1.6-.34-6.21-5.47-13.91-1.92-20.8-2.94-3.15-.47-7.4-.5-10.72,.07-3.91,.68-7.4,.8-11.28,.31-2.26-.29-5.8,2.58-6.96,1.69-3.39-2.61-7.32,5.35-10.52-1.33-1.19-2.48-7.38,1.36-10.41-2.96-1.12-1.61-4.11-1.29-5.97,.78-1.89,2.1-5.4,1.62-6.12,.32-3.13-5.66-6.92-1.91-10.74-1.94-3.4-.03-7.48,4.56-10.54-.65-3.4,2.06-7.74,.38-11.1,3.04-2.94,2.33-6.51,2.84-10.04,2.25Z"/>
  <path class="cls-3" d="M247.11,356.89c19.62,20.31,44.65,20.73,69.64,20.82,8.45,.03,16.9-1.29,25.36-1.87,11.02-.75,20.93-4.42,29.88-10.85,1.41-1.02,3.01-3.79,4.74-1.19,1.36,2.04-1.15,3.51-2.66,4.59-7.2,5.18-15.03,9.21-23.9,10.35-25.03,3.23-50.04,5.17-75.01-1.04-10.49-2.61-19.24-7.94-27.27-14.81-1.59-1.35-2.76-2.91-.77-6.01Z"/>
  <path class="cls-4" d="M455.4,168.61c.1,1.44-.68,2.5-1.74,2.65-2.51,.35-5.06,.44-7.6,.44-18.73,0-37.35,1.42-55.78,4.75-16.79,3.04-32.96,7.94-47.73,16.77-1.45,.87-3.15,2.12-4.33,.14-.76-1.26,.46-2.59,1.64-3.52,2.9-2.3,6.03-4.2,9.44-5.65,19.68-8.38,40.16-13.66,61.48-15.37,13.25-1.06,26.55-1.6,39.83-2.36,2.02-.12,4.03-.18,4.8,2.15Z"/>
  <path class="cls-4" d="M199.39,175.12c23.71,.11,46.64,4.19,68.6,13.37,3.65,1.52,7.45,2.66,11.12,4.13,1.43,.57,2.21,1.88,1.5,3.42-.56,1.22-1.82,1.14-2.93,.76-3.75-1.27-7.55-2.4-11.2-3.9-25.28-10.42-51.62-14.39-78.83-12.96-4.2,.22-8.47,.34-12.5,2-1.01,.41-2.24,.03-2.53-1.43-.18-.93,.23-1.6,.92-2.17,1.85-1.53,4.11-1.72,6.36-2.06,6.46-.97,12.95-1.19,19.48-1.15Z"/>
  <path class="cls-4" d="M535.24,239.4c-6.03,3.51-10.43,6.88-14.4,10.85-1.02,1.03-2.37,2.2-3.61,1.12-1.68-1.47-.46-3.14,.73-4.36,11.31-11.62,24.57-18.8,41.32-17.87,.56,.03,1.14,.05,1.68,.19,2.12,.54,5.46,.66,5.16,3.24-.38,3.21-3.48,1.53-5.54,1.34-1.4-.12-2.8-.39-4.2-.39-13.69-.02-15.35,1.57-15.71,15.19-.1,3.95,0,7.9-.15,11.84-.06,1.45-.94,2.93-2.54,2.72-1.48-.19-2.4-1.69-2.22-3.18,.79-6.48-.37-12.87-.53-20.7Z"/>
  <path class="cls-4" d="M255.6,219.45c-1.79-.52-1.86-1.49-.77-2.81,.65-.77,1.25-1.58,1.88-2.37,14.17,4.53,26.01,12.57,35.71,23.8-1.24,.18-2.48,.35-3.71,.53-5.68-4.12-11.27-8.36-17.06-12.31-4.86-3.32-9.79-6.69-16.05-6.84Z"/>
  <path class="cls-3" d="M50.71,257.18c-5.51,4.64-8.03,10-11.17,14.88-.61,.95-1.15,1.95-1.67,2.96-.67,1.29-1.42,2.7-3.12,1.7-1.02-.61-1.21-2.02-.61-3.05,5.1-8.81,9.85-17.97,18.58-23.89,6.48-4.39,14.58-3.69,19.57,1.28,.81,.81,1.66,1.94,1.04,2.99-1,1.71-2.23,.72-3.47-.08-10.67-6.88-13.34-3-13.79,7.66-.12,2.79,.34,5.63,.68,8.43,.36,2.92,.69,6.52-3.04,6.51-2.79,0-2.64-3.82-2.93-6.19-.48-3.92,1.18-7.85-.07-13.19Z"/>
  <path class="cls-1" d="M370.43,219c-1.39,6.53-1.62,12.15-1.22,17.81,.28,3.99,1.1,7.81,3.01,11.39,6.87,12.89,19.3,16.2,31.43,8.13,7.23-4.81,11.56-11.71,12.54-20.3,.98-8.66,2.17-17.42-1.8-26.53,14.94-.58,28.31,1.95,40.1,10.2,5.31,3.71,10.29,7.93,14.45,13.06,2.49,3.07,2.96,5.85,.93,9.22-14.55,24.15-34.46,39.36-64.04,38.64-16.57-.4-32.57-3.36-47.96-9.72-10.61-4.39-16.35-12.63-19.45-23.17-1.39-4.72-.78-8.75,3.77-11.82,6.09-4.11,11.47-9.24,17.95-12.81,2.95-1.63,5.94-3.25,10.27-4.1Z"/>
  <path class="cls-1" d="M255.6,219.45c6.25,.15,11.18,3.53,16.05,6.84,5.79,3.95,11.39,8.2,17.06,12.31,.27,14.82-6.19,25.59-19.68,31.75-17.57,8.02-36.23,11.76-55.37,10.52-19.31-1.25-36.34-8.23-47.75-25.26-2.5-3.74-5.8-6.94-8.48-10.57-2.57-3.47-2.95-6.75,.28-10.58,10.63-12.59,23.39-21.3,40.03-23.36,3.9-.48,7.77-1.7,11.78-.98,1.47,1.83,.65,3.75,.26,5.67-1.82,8.83-.62,17.58,1.88,25.98,2.76,9.28,9.49,15.31,18.72,18.19,12,3.75,24.73-5.57,26.41-19.45,.85-7.03,.91-14.13-1.18-21.06Z"/>
</svg>