<?xml version="1.0" encoding="UTF-8"?>
<svg id="Capa_1" data-name="Capa 1" xmlns="http://www.w3.org/2000/svg" viewBox="0 0 560.83 624.93">
  <defs>
    <style>
      .cls-1 {
        fill: #e6c35e;
      }

      .cls-2 {
        fill: #1c140a;
      }

      .cls-3 {
        fill: #3c6347;
      }
    </style>
  </defs>
  <path class="cls-2" d="M404.56,606.98c-37.28,.82-74.38,4.77-111.61,6.16-28.09,1.06-56.14,.1-84.2,.93-12.69,.37-25.35,1.58-38.08,1.43-7.98-.1-15.94-.01-23.9-.99-10.59-1.31-21.27,1.21-31.86-.42-20.33-3.12-40.14-8.51-56.6-21.15-19.69-15.11-30.81-36-32.29-60.76-1.25-20.95,.79-42.01,7.13-62.17,6.38-20.27,13.43-40.36,21.12-60.18,5.79-14.91,7.82-31.05,14.92-45.39,8.22-16.6,12.18-34.4,16.65-52.15,3.17-12.6,9.42-24.15,13.31-36.59,7.58-24.22,15.52-48.34,24.47-72.12,7.9-21,15.89-41.98,23.22-63.19,4.24-12.26,7.73-24.84,10.69-37.48,6.73-28.71,22.49-50.86,46.7-67.43,9.26-6.34,18.44-12.59,28.45-17.86,15.9-8.38,32.46-10.18,49.86-8.39,14.74,1.52,29.3,3.99,43.32,8.83,13.18,4.55,25.81,10.92,36.62,19.37,8.91,6.96,15.28,17.2,21.23,27.04,11.99,19.85,20.65,41.21,25.52,63.88,5.04,23.48,12.05,46.2,21.8,68.18,12.22,27.56,20.79,56.55,32.37,84.36,10.56,25.35,20.38,50.97,29,77.03,3.05,9.22,4.53,18.94,7.35,28.25,6.11,20.13,14.59,39.28,24.67,57.74,6.84,12.52,11.25,26.03,14.96,39.71,1.93,7.1,4.97,13.78,6.1,21.23,2,13.18,.05,25.89-2.21,38.71-.58,3.33-2.06,6.16-3.83,8.87-4.34,6.67-9.37,12.9-12.15,20.51-1.16,3.17-3.92,5.08-6.47,7.13-22.57,18.14-48.82,25.83-77.28,26.81-12.99,.45-26.01,.08-39.01,.08Zm.89-3.5c22.74,.39,45.42-.32,67.73-5.25,9.21-2.04,18.5-4.24,26.52-9.53,12-7.92,23-16.11,30.61-29.56,7.16-12.66,10.49-25.29,11.36-39.23,.7-11.13-2.37-21.5-5.47-32.03-5.54-18.78-12.36-36.94-21.94-54.05-8.99-16.06-15.51-33.3-20.11-50.92-4.33-16.56-8.09-33.18-14.98-48.91-5.46-12.46-9.05-25.62-14.28-38.13-5.7-13.62-11.12-27.31-16.34-41.12-6.26-16.56-12.28-33.21-18.93-49.63-8.39-20.72-17.69-41.06-21.84-63.42-4.99-26.82-13.9-52.52-28.56-75.8-6.12-9.72-12.29-20.1-21.73-26.56-10.85-7.42-22.6-13.96-35.51-17.68-15.86-4.57-31.85-7.97-48.52-8.2-12.58-.17-24.44,1.47-35.97,6.81-10.81,5.01-20.2,12.07-30.04,18.55-11.3,7.44-19.96,17.51-29.05,27.16-3.6,3.82-6.3,8.62-7.85,13.78-2.88,9.59-7.18,18.62-9.81,28.37-2.52,9.34-5.02,18.76-7.94,28.01-6.23,19.7-13.33,39.16-20.8,58.38-10.28,26.44-18.43,53.56-28.03,80.2-2.39,6.65-3.6,13.73-6.63,20.16-3.92,8.32-6.64,17.01-9.02,25.87-2.98,11.08-4.28,22.65-9.67,33.04-5.19,9.99-9.47,20.53-11.93,31.39-4.25,18.83-12.56,36.2-18.16,54.53-5.84,19.09-14.67,37.26-16.18,57.63-1.25,16.99-4.91,33.83,1.06,50.78,6.34,17.99,15.53,33.44,32,44.14,14.46,9.39,30.7,13.85,47.06,17.39,12.47,2.7,25.51,0,38.34,.56,18.23,.81,36.51,1.04,54.82-1.01,15.44-1.73,31.09,.41,46.69-.11,10.42-.35,20.86,.5,31.39,.06,16.78-.69,33.51-3.08,50.36-2.1,.88,.05,1.78,.03,2.66-.05,22.85-2.22,45.72-4.04,68.7-3.53Z"/>
  <path class="cls-3" d="M405.45,603.48c-22.99-.51-45.86,1.32-68.7,3.53-.88,.09-1.78,.1-2.66,.05-16.85-.97-33.58,1.41-50.36,2.1-10.53,.43-20.97-.41-31.39-.06-15.59,.52-31.24-1.62-46.69,.11-18.31,2.05-36.59,1.82-54.82,1.01-12.83-.57-25.88,2.13-38.34-.56-16.36-3.54-32.6-8.01-47.06-17.39-16.47-10.7-25.66-26.15-32-44.14-5.98-16.95-2.32-33.79-1.06-50.78,1.5-20.38,10.34-38.54,16.18-57.63,5.6-18.33,13.91-35.69,18.16-54.53,2.45-10.86,6.74-21.4,11.93-31.39,5.4-10.39,6.69-21.96,9.67-33.04,2.38-8.86,5.1-17.55,9.02-25.87,3.03-6.43,4.24-13.52,6.63-20.16,9.6-26.64,17.74-53.77,28.03-80.2,7.47-19.22,14.57-38.67,20.8-58.38,2.92-9.25,5.42-18.67,7.94-28.01,2.63-9.75,6.94-18.79,9.81-28.37,1.55-5.16,4.25-9.97,7.85-13.78,9.09-9.64,17.74-19.72,29.05-27.16,9.85-6.48,19.23-13.54,30.04-18.55,11.53-5.34,23.39-6.99,35.97-6.81,16.67,.23,32.66,3.64,48.52,8.2,12.9,3.72,24.66,10.26,35.51,17.68,9.44,6.46,15.61,16.84,21.73,26.56,14.66,23.27,23.57,48.98,28.56,75.8,4.16,22.36,13.46,42.7,21.84,63.42,6.65,16.42,12.67,33.07,18.93,49.63,5.22,13.81,10.64,27.51,16.34,41.12,5.24,12.51,8.83,25.67,14.28,38.13,6.89,15.73,10.66,32.35,14.98,48.91,4.6,17.62,11.11,34.86,20.11,50.92,9.58,17.1,16.4,35.27,21.94,54.05,3.1,10.53,6.17,20.9,5.47,32.03-.87,13.94-4.2,26.57-11.36,39.23-7.61,13.45-18.61,21.65-30.61,29.56-8.02,5.29-17.31,7.49-26.52,9.53-22.31,4.93-44.98,5.64-67.73,5.25ZM51.5,513.36c0,1.77,.12,3.56-.02,5.32-1.21,15.37,3.76,28.43,14.76,39.15,3.59,3.49,7.27,6.93,11.23,9.98,8.01,6.17,16.83,12.3,26.57,13.53,12.17,1.54,24.54,3.49,37.01,2.61,3.49-.25,6.76-1.87,10.47-.96,6.09,1.49,12.43,1.03,18.53,.41,23.5-2.4,47.11-1.65,70.64-3.05,10.32-.61,20.84,.85,31-.54,14.18-1.94,28.31-.62,42.43-1.38,4.12-.22,8.01,2.49,12.22,1.32,6.11-1.7,12.34-.99,18.52-1.09,15.93-.26,31.83,.75,47.74,1.18,10.82,.29,21.66-1.66,32.55,.18,3.14,.53,6.42-.03,9.67-.64,6.35-1.18,12.79-2.06,19.23-2.6,21.65-1.83,38.68-11.27,50.7-29.62,4.43-6.77,8.79-13.97,9.41-21.74,1.17-14.67,.95-29.51-5.26-43.49-1.91-4.3-3.35-8.85-4.55-13.4-2.72-10.3-6.29-20.29-10.06-30.23-6.7-17.66-15.17-34.69-20.02-52.99-4.26-16.09-10.39-31.43-17.57-46.29-8.63-17.85-16.26-36.09-22.71-54.78-8.66-25.11-18.49-49.77-27.73-74.65-6.98-18.8-14.65-37.35-20.32-56.63-2.74-9.32-5.87-18.57-8.76-27.83-2.26-7.25-3.42-14.82-6.92-21.76-7.93-15.74-18.77-29.43-31.1-41.67-8.07-8.02-17.83-14.75-29.53-16.98-35.99-6.85-68.49,.86-96.87,24.26-8.28,6.82-14.57,15.48-19.01,25.3-11.56,25.6-19.67,52.5-28.95,78.93-9.38,26.73-20.84,52.67-29.24,79.74-4.81,15.51-12.35,30.06-15.96,45.97-1.84,8.08-4.49,15.91-7.39,23.65-6.21,16.58-12.81,33.03-17.16,50.23-2.42,9.56-8.74,17.37-11.5,26.79-4.72,16.12-10.45,31.88-17.7,47.05-10.09,21.12-14.72,43.4-14.39,66.75Z"/>
  <path class="cls-2" d="M51.5,513.36c-.33-23.35,4.3-45.63,14.39-66.75,7.25-15.17,12.98-30.93,17.7-47.05,2.76-9.42,9.08-17.22,11.5-26.79,4.35-17.2,10.95-33.65,17.16-50.23,2.9-7.74,5.55-15.57,7.39-23.65,3.62-15.91,11.15-30.47,15.96-45.97,8.4-27.07,19.86-53.01,29.24-79.74,9.27-26.43,17.39-53.33,28.95-78.93,4.43-9.82,10.73-18.47,19.01-25.3,28.38-23.4,60.89-31.11,96.87-24.26,11.71,2.23,21.46,8.96,29.53,16.98,12.33,12.25,23.17,25.94,31.1,41.67,3.5,6.94,4.66,14.51,6.92,21.76,2.89,9.27,6.02,18.51,8.76,27.83,5.67,19.29,13.33,37.83,20.32,56.63,9.24,24.89,19.08,49.54,27.73,74.65,6.44,18.69,14.08,36.93,22.71,54.78,7.18,14.86,13.31,30.2,17.57,46.29,4.85,18.3,13.32,35.33,20.02,52.99,3.77,9.94,7.34,19.93,10.06,30.23,1.2,4.55,2.64,9.11,4.55,13.4,6.21,13.99,6.42,28.83,5.26,43.49-.62,7.77-4.98,14.98-9.41,21.74-12.02,18.35-29.05,27.8-50.7,29.62-6.44,.54-12.88,1.42-19.23,2.6-3.25,.61-6.53,1.17-9.67,.64-10.88-1.84-21.73,.11-32.55-.18-15.91-.43-31.81-1.44-47.74-1.18-6.18,.1-12.41-.61-18.52,1.09-4.21,1.17-8.1-1.54-12.22-1.32-14.12,.76-28.25-.56-42.43,1.38-10.17,1.39-20.69-.07-31,.54-23.53,1.4-47.15,.65-70.64,3.05-6.11,.62-12.44,1.08-18.53-.41-3.71-.9-6.98,.71-10.47,.96-12.47,.88-24.84-1.07-37.01-2.61-9.74-1.23-18.56-7.37-26.57-13.53-3.96-3.05-7.65-6.49-11.23-9.98-11.01-10.72-15.97-23.78-14.76-39.15,.14-1.76,.02-3.55,.02-5.32Zm73.01,66.37c5.6,.12,11.19,1,16.81,.2,12.86-1.82,25.72-2.52,38.77-2.3,26,.44,51.97-1.42,77.96-2.29,22.43-.76,44.89-.86,67.37-.43,34.27,.66,68.57,.55,102.85,.02,16.22-.25,32.39-2.03,47.73-8.33,19.57-8.03,35.44-31.52,33.96-52.51-.78-11-.87-22.35-6.15-32.61-.67-1.3-.99-2.78-1.39-4.2-5.13-18.22-11.25-36.09-18.68-53.51-6.15-14.41-11.8-28.99-15.73-44.22-2.07-8.01-5.3-15.64-8.52-23.28-8.48-20.13-18.89-39.39-25.75-60.26-5.62-17.1-12.27-33.87-18.65-50.72-13.49-35.63-27.19-71.14-38.35-107.65-13.19-43.14-6.08-29.78-35.14-67.46-7.74-10.03-18.31-17.15-30.49-20.3-22.62-5.85-45.1-4.59-66.66,5.14-6.16,2.78-12.56,5.04-18.24,8.94-16.15,11.11-27.14,26.26-33.89,44.32-9.18,24.62-17.85,49.44-26.27,74.33-3.89,11.49-8.33,22.73-12.57,34.07-9.4,25.18-18.97,50.32-27.26,75.88-11.57,35.66-22.83,71.4-37.43,105.98-1.49,3.54-3.33,7.06-4.03,10.78-2.71,14.46-9.86,27.17-15.66,40.37-10.41,23.72-14.71,48.53-13.78,74.24,.3,8.24,2.7,16.37,7.77,23.17,5.5,7.37,12.22,13.58,19.64,19.04,11.28,8.3,24.02,12.33,37.9,13.11,1.17,1.13,2.47,1.1,3.85,.46Z"/>
  <path class="cls-1" d="M120.66,579.27c-13.88-.77-26.62-4.8-37.9-13.11-7.42-5.46-14.14-11.67-19.64-19.04-5.08-6.8-7.47-14.93-7.77-23.17-.93-25.7,3.36-50.51,13.78-74.24,5.8-13.21,12.96-25.91,15.66-40.37,.69-3.71,2.53-7.24,4.03-10.78,14.6-34.58,25.86-70.31,37.43-105.98,8.29-25.55,17.86-50.7,27.26-75.88,4.23-11.34,8.68-22.59,12.57-34.07,8.42-24.89,17.09-49.71,26.27-74.33,6.74-18.07,17.73-33.22,33.89-44.32,5.67-3.9,12.08-6.16,18.24-8.94,21.56-9.74,44.04-10.99,66.66-5.14,12.17,3.15,22.75,10.26,30.49,20.3,29.06,37.68,21.95,24.32,35.14,67.46,11.16,36.51,24.86,72.02,38.35,107.65,6.38,16.85,13.03,33.62,18.65,50.72,6.85,20.87,17.27,40.13,25.75,60.26,3.22,7.64,6.45,15.27,8.52,23.28,3.93,15.22,9.58,29.81,15.73,44.22,7.43,17.42,13.55,35.29,18.68,53.51,.4,1.42,.72,2.9,1.39,4.2,5.27,10.26,5.37,21.61,6.15,32.61,1.49,20.99-14.39,44.48-33.96,52.51-15.35,6.3-31.52,8.08-47.73,8.33-34.28,.52-68.58,.63-102.85-.02-22.48-.43-44.94-.33-67.37,.43-25.98,.88-51.96,2.73-77.96,2.29-13.05-.22-25.91,.48-38.77,2.3-5.62,.79-11.21-.08-16.81-.2-1.2-.88-2.5-.91-3.85-.46Zm73.68-191.67c.33,.46,.71,.87,1.13,1.25-1.55,5.25-5.1,9.24-8.45,13.35-4.67,5.72-9.87,11.09-13.96,17.2-15.46,23.09-32.44,45.08-48.25,67.9-6.38,9.2-13.55,18.13-15.52,29.6-2.83,16.5,1.35,26.05,16.94,32.53,10.59,4.4,21.28,4.45,32.17,2.19,10.7-2.22,21.37-4.6,32.02-7.05,3.15-.73,6.29-1.71,9.28-2.95,16.33-6.77,32.36-7.79,48.66,.63,9.65,4.98,19.52,9.46,31,9.58,17.18,.18,33.39-3.67,49.27-9.6,14.52-5.42,29.42-6.28,44.48-3.37,14.48,2.8,28.69,6.87,43.36,8.86,19.27,2.61,34.12-4.68,45.39-19.85,5.07-6.83,5.95-14.47,2.71-22.68-3.62-9.18-8.48-17.39-15.1-24.78-23.68-26.42-47.13-53.04-70.61-79.64-1.2-1.35-3.57-2.29-2.49-5.32,12.35,3.25,23.12-2.25,33.84-6.92,11.88-5.17,22.37-22.83,14.46-38.09-3.68-7.1-7.05-14.27-11.93-20.65-17.79-23.28-37.36-45.05-57.18-66.58-9.13-9.92-15.27-21.97-26.16-32.4,6.64-.02,10.76,1.8,15.07,2.59,13.15,2.43,24.99-.5,33.49-11.16,7.82-9.81,5.36-20.56,.32-30.89-2.73-5.6-6.11-10.79-10.1-15.59-22.11-26.62-43.08-54.15-63.55-82.02-13.62-18.55-37.77-13.04-49.21-.14-6.4,7.21-12.28,15.14-17.75,23.19-10.12,14.9-19.34,30.38-30.93,44.27-9.85,11.8-16.62,25.87-26.97,37.34-2.39,2.65-3.94,5.89-5.11,9.27-3.01,8.72-.76,14.61,7.12,19.56,12.45,7.82,25.98,6.52,39.55,4.88,2.52-.3,4.92-2.01,7.95-.33-1.75,4.74-4.38,9-7.64,12.76-10.85,12.53-19.7,26.52-29.49,39.79-15.46,20.95-28.24,43.72-44.58,64.01-5.84,7.25-7.65,15.94-8.53,24.79-.72,7.2,2.92,12.32,9.83,15.13,13.37,5.45,26.81,6.88,40.42,.72,1.58-.71,3.37-.94,5.06-1.4Z"/>
  <path class="cls-2" d="M194.34,387.6c-1.69,.45-3.49,.68-5.06,1.4-13.6,6.15-27.05,4.73-40.42-.72-6.9-2.82-10.55-7.93-9.83-15.13,.89-8.85,2.7-17.55,8.53-24.79,16.34-20.29,29.12-43.06,44.58-64.01,9.79-13.27,18.64-27.25,29.49-39.79,3.26-3.76,5.89-8.02,7.64-12.76-3.03-1.68-5.43,.03-7.95,.33-13.57,1.64-27.1,2.95-39.55-4.88-7.88-4.95-10.14-10.84-7.12-19.56,1.17-3.38,2.72-6.62,5.11-9.27,10.35-11.48,17.12-25.55,26.97-37.34,11.6-13.89,20.82-29.38,30.93-44.27,5.47-8.05,11.35-15.98,17.75-23.19,11.44-12.9,35.59-18.41,49.21,.14,20.47,27.87,41.44,55.4,63.55,82.02,3.99,4.81,7.37,10,10.1,15.59,5.04,10.34,7.5,21.08-.32,30.89-8.5,10.66-20.34,13.59-33.49,11.16-4.31-.79-8.43-2.61-15.07-2.59,10.89,10.43,17.03,22.49,26.16,32.4,19.82,21.53,39.39,43.3,57.18,66.58,4.88,6.38,8.25,13.55,11.93,20.65,7.92,15.26-2.58,32.91-14.46,38.09-10.72,4.67-21.49,10.17-33.84,6.92-1.08,3.04,1.29,3.97,2.49,5.32,23.48,26.59,46.93,53.22,70.61,79.64,6.62,7.39,11.48,15.6,15.1,24.78,3.23,8.2,2.36,15.85-2.71,22.68-11.27,15.16-26.12,22.46-45.39,19.85-14.67-1.99-28.88-6.06-43.36-8.86-15.06-2.91-29.96-2.05-44.48,3.37-15.88,5.93-32.09,9.78-49.27,9.6-11.48-.12-21.36-4.6-31-9.58-16.3-8.42-32.33-7.4-48.66-.63-2.99,1.24-6.12,2.22-9.28,2.95-10.65,2.45-21.32,4.84-32.02,7.05-10.9,2.26-21.58,2.21-32.17-2.19-15.59-6.48-19.77-16.02-16.94-32.53,1.97-11.47,9.14-20.39,15.52-29.6,15.81-22.82,32.8-44.81,48.25-67.9,4.09-6.11,9.29-11.48,13.96-17.2,3.35-4.11,6.9-8.1,8.45-13.35,.72-.3,1.4-.79,.78-1.55-.57-.69-1.32-.16-1.91,.29Zm10.59-8.75c1.25,2.22,.61,3.59-.24,4.79-5.28,7.45-9.02,15.92-15.46,22.61-3.88,4.03-8.11,8.06-10.76,12.87-8.44,15.36-20.13,28.39-30.02,42.69-6.86,9.92-13.4,20.08-20.87,29.64-5.52,7.07-11.07,14.62-13.42,23.74-3.49,13.56-.56,22.89,9.81,28.28,5.71,2.97,11.87,5.34,18.61,4.98,19.87-1.05,38.96-5.89,57.67-12.26,14.13-4.82,28.27-5.78,42.47-1.12,5.86,1.92,11.39,4.87,16.98,7.55,3.76,1.8,7.61,3.63,11.7,3.92,16.31,1.17,32.53,.3,47.82-5.98,14.42-5.92,29.46-7.35,44.72-7.91,1.72-.06,3.48,.48,5.2,.86,10.92,2.39,21.82,4.91,32.76,7.21,7.2,1.51,14.48,3.91,21.69,3.79,15.67-.25,31.7-10.87,37.12-24.55,1.36-3.43,1.59-7.17,.44-10.45-2.93-8.33-6.15-16.56-12.51-23.17-6.14-6.37-12.06-12.96-17.78-19.72-20.03-23.65-40.51-46.89-62.18-69.06-2.48-2.54-5.03-5.01-7.49-7.57-.99-1.03-2.47-2.13-1.61-3.76,1.05-1.99,3.15-1.53,4.71-.99,4.45,1.55,8.86,3.26,13.17,5.18,3.37,1.5,6.74,2.27,10.32,1.29,5.68-1.56,11.35-3.12,16.83-5.42,9.42-3.95,15.04-11.05,18.45-20.36,.85-2.33,1.49-4.7,.35-6.86-3.15-6.01-4.7-12.72-8.6-18.42-13.19-19.28-28.97-36.45-44.07-54.17-11.65-13.68-25.09-25.84-34.54-41.39-1.8-2.97-4.77-5.22-7.17-7.84-3.52-3.82-6.73-7.86-9.22-12.36,2.44-1.97,4.32-1.05,6.3-.38,9.84,3.32,19.94,5.37,30.33,4.52,14.74-1.2,27.21-13.83,19.55-31.53-2.85-6.58-6.5-12.58-10.9-18.12-8.25-10.39-17.15-20.28-25.03-30.94-12.81-17.3-25.92-34.36-39.07-51.4-10.53-13.63-33.48-14.57-42.77-.25-5.97,9.2-13.78,16.86-19.35,26.28-5.4,9.13-10.6,18.64-17.51,26.57-14.02,16.08-23.93,35.09-37.82,51.2-1.51,1.75-2.37,4.08-3.41,6.2-4.07,8.26-2.65,12.89,5.78,17.25,10.08,5.21,20.92,5.77,31.88,3.96,5.8-.96,11.47-2.67,17.21-3.95,1.57-.35,2.93,.31,3.72,1.74,.66,1.19,.22,2.29-.73,3.14-6.55,5.79-9.34,14.25-14.9,20.82-7.58,8.98-16.11,17.29-21.37,28.08-1.54,3.16-3.33,6.32-5.56,9.02-16.94,20.54-29.17,44.35-45.61,65.24-4.87,6.19-6.59,13.75-6.95,21.58-.18,3.88,.96,7.48,4.6,8.84,9.59,3.6,19.13,8.29,29.88,4.86,8.89-2.84,17.73-5.81,26.83-8.8Z"/>
  <path class="cls-3" d="M204.93,378.85c-9.09,2.99-17.94,5.97-26.83,8.8-10.74,3.43-20.29-1.26-29.88-4.86-3.64-1.37-4.78-4.97-4.6-8.84,.35-7.83,2.07-15.39,6.95-21.58,16.44-20.89,28.67-44.7,45.61-65.24,2.23-2.7,4.02-5.85,5.56-9.02,5.26-10.79,13.79-19.1,21.37-28.08,5.55-6.57,8.34-15.03,14.9-20.82,.95-.84,1.39-1.95,.73-3.14-.79-1.43-2.15-2.09-3.72-1.74-5.75,1.28-11.42,2.99-17.21,3.95-10.96,1.81-21.8,1.25-31.88-3.96-8.43-4.36-9.85-8.99-5.78-17.25,1.04-2.12,1.9-4.45,3.41-6.2,13.88-16.11,23.8-35.12,37.82-51.2,6.91-7.93,12.11-17.44,17.51-26.57,5.57-9.42,13.38-17.07,19.35-26.28,9.29-14.32,32.24-13.38,42.77,.25,13.16,17.03,26.26,34.1,39.07,51.4,7.89,10.65,16.78,20.55,25.03,30.94,4.4,5.54,8.06,11.54,10.9,18.12,7.65,17.69-4.81,30.32-19.55,31.53-10.39,.85-20.5-1.2-30.33-4.52-1.98-.67-3.86-1.58-6.3,.38,2.48,4.49,5.7,8.53,9.22,12.36,2.4,2.61,5.37,4.87,7.17,7.84,9.45,15.55,22.88,27.71,34.54,41.39,15.1,17.72,30.88,34.88,44.07,54.17,3.9,5.7,5.45,12.41,8.6,18.42,1.13,2.16,.5,4.54-.35,6.86-3.41,9.31-9.03,16.41-18.45,20.36-5.48,2.3-11.14,3.86-16.83,5.42-3.57,.98-6.95,.22-10.32-1.29-4.3-1.92-8.71-3.63-13.17-5.18-1.56-.54-3.66-1-4.71,.99-.86,1.63,.62,2.73,1.61,3.76,2.46,2.56,5.01,5.03,7.49,7.57,21.67,22.17,42.15,45.41,62.18,69.06,5.72,6.75,11.64,13.34,17.78,19.72,6.36,6.61,9.58,14.83,12.51,23.17,1.15,3.28,.92,7.02-.44,10.45-5.41,13.68-21.45,24.3-37.12,24.55-7.21,.12-14.49-2.28-21.69-3.79-10.94-2.29-21.84-4.81-32.76-7.21-1.72-.38-3.48-.92-5.2-.86-15.27,.56-30.3,1.99-44.72,7.91-15.29,6.28-31.52,7.15-47.82,5.98-4.09-.29-7.94-2.12-11.7-3.92-5.59-2.68-11.12-5.63-16.98-7.55-14.2-4.66-28.34-3.7-42.47,1.12-18.71,6.37-37.8,11.21-57.67,12.26-6.74,.36-12.89-2.01-18.61-4.98-10.37-5.39-13.3-14.72-9.81-28.28,2.35-9.13,7.9-16.67,13.42-23.74,7.47-9.56,14-19.72,20.87-29.64,9.89-14.3,21.57-27.32,30.02-42.69,2.65-4.81,6.88-8.84,10.76-12.87,6.44-6.69,10.19-15.16,15.46-22.61,.85-1.2,1.49-2.58,.24-4.79Z"/>
  <path class="cls-1" d="M194.34,387.6c.59-.45,1.35-.98,1.91-.29,.62,.75-.07,1.25-.78,1.55-.42-.38-.8-.8-1.13-1.25Z"/>
</svg>