<?xml version="1.0" encoding="utf-8"?>
<!-- Generator: Adobe Illustrator 27.0.0, SVG Export Plug-In . SVG Version: 6.00 Build 0)  -->
<svg version="1.1" id="Capa_1" xmlns="http://www.w3.org/2000/svg" xmlns:xlink="http://www.w3.org/1999/xlink" x="0px" y="0px"
	 viewBox="0 0 32 32" style="enable-background:new 0 0 32 32;" xml:space="preserve">
<style type="text/css">
	.st0{fill:#E45515;}
</style>
<path class="st0" d="M3.7,14.4c1.1,0.1,2.3,0.3,3.4,0.4c1,0.1,2.1,0.2,3.1,0.2c0.5,0,0.9-0.2,1-0.7c0.1-0.5,0-0.8-0.4-1.2
	c-0.9-0.8-2-1.2-3.1-1.9c-0.6-0.4-1.3-0.7-2-1.1C5.1,9.8,4.5,9.3,4.1,8.6C3.7,8,3.8,7.5,4.2,7c0.4-0.5,1-0.7,1.6-0.4
	c0.3,0.1,0.7,0.4,1,0.6c1.3,1,2.6,2.1,3.8,3.2c0.5,0.5,1.1,0.9,1.6,1.3c0.4,0.3,0.7,0.2,1-0.2c0.3-0.4,0.3-0.9,0.2-1.3
	c-0.3-0.9-0.6-1.8-1.1-2.6c-0.7-1.3-1.2-2.6-1.6-4c-0.1-0.3-0.1-0.7-0.1-1c0-0.7,0.4-1.3,1-1.4c0.7-0.2,1.3,0.2,1.6,0.9
	c0.3,0.8,0.5,1.6,0.7,2.4C14.2,6,14.6,7.7,15,9.4c0.1,0.3,0.2,0.6,0.4,0.9c0.4,0.5,1,0.5,1.4,0c0.3-0.3,0.4-0.7,0.5-1.2
	c0.3-2.1,0.8-4.2,1.2-6.4c0.1-0.6,0.3-1.1,0.7-1.5c0.5-0.5,1.2-0.5,1.8,0c0.6,0.6,0.7,1.2,0.5,2c-0.2,0.9-0.5,1.7-0.8,2.5
	c-0.1,0.2-0.1,0.4-0.2,0.6c-0.7,1.2-1.1,2.6-1.6,4c-0.2,0.6-0.2,0.9,0.3,1.2c0.4,0.3,0.8,0.2,1.2-0.1c0.9-0.8,1.7-1.7,2.5-2.5
	c1-0.9,1.9-1.9,2.9-2.7c0.3-0.2,0.6-0.4,1-0.4c0.6,0,1.2,0.2,1.5,0.8c0.3,0.7,0.1,1.5-0.4,2c-0.8,0.7-1.6,1.3-2.5,1.8
	c-0.4,0.2-0.8,0.5-1.2,0.8c-0.6,0.5-1.3,1-2,1.4c-0.3,0.2-0.7,0.4-1,0.7c-0.2,0.2-0.4,0.4-0.3,0.8c0.1,0.3,0.3,0.7,0.7,0.8
	c0.2,0.1,0.4,0.1,0.6,0c1.9-0.2,3.7-0.4,5.6-0.7c0.6-0.1,1.2-0.2,1.8-0.2c1.2,0.1,1.9,1,1.5,2.3c-0.3,1-0.8,1.3-1.8,1.3
	c-0.5,0-1,0-1.5-0.1c-1.5-0.2-3.1-0.1-4.6-0.4c-0.4-0.1-0.8-0.1-1.2,0c-0.5,0-0.8,0.3-0.9,0.7c-0.1,0.4,0.1,0.8,0.5,1
	c1.3,0.7,2.6,1.4,3.8,2.1c0.8,0.5,1.7,1,2.5,1.6c0.6,0.4,1,1,0.8,1.8c-0.2,1.1-1.4,1.7-2.3,1.2c-0.3-0.2-0.6-0.3-0.8-0.5
	c-1.5-1.3-3-2.5-4.5-3.8c-0.3-0.2-0.6-0.5-0.9-0.7c-0.4-0.2-0.8-0.2-1.1,0c-0.3,0.3-0.2,0.6-0.1,1c0.4,0.8,0.8,1.6,1.2,2.4
	c0.6,1.4,1.3,2.8,2,4.2c0.3,0.7,0.2,1.4-0.3,2c-0.5,0.6-1.1,0.7-1.8,0.5c-0.4-0.1-0.6-0.4-0.8-0.7c-0.3-0.7-0.5-1.4-0.7-2.1
	c-0.5-1.7-1-3.4-1.3-5.1c0-0.2-0.1-0.4-0.1-0.5c-0.1-0.3-0.3-0.6-0.7-0.6c-0.4,0-0.6,0.2-0.8,0.6c-0.1,0.3-0.2,0.7-0.2,1
	c-0.1,1.8-0.6,3.5-0.9,5.3c-0.1,0.4-0.1,0.9-0.2,1.3c-0.2,0.7-0.6,1.3-1.4,1.5c-1.2,0.2-2.1-0.8-1.8-2.1c0.3-1.2,0.7-2.4,1.2-3.6
	c0.4-1.2,0.9-2.4,1.3-3.6c0-0.1,0.1-0.2,0.1-0.3c0.2-0.6,0.1-0.8-0.3-1.1c-0.3-0.2-0.6-0.2-1,0.2c-0.8,0.7-1.5,1.4-2.2,2.2
	c-0.2,0.2-0.3,0.4-0.6,0.6c-0.8,0.7-1.6,1.4-2.3,2.1c-0.4,0.4-1,0.6-1.6,0.5c-0.3,0-0.6-0.2-0.8-0.4c-0.8-0.9-0.8-1.9,0.1-2.7
	c0.2-0.2,0.5-0.4,0.7-0.6c1.5-1,3.1-2.1,4.6-3.1c0.3-0.2,0.5-0.4,0.8-0.6c0.3-0.3,0.4-0.6,0.3-1C11.3,17.2,11,17,10.6,17
	c-0.2,0-0.4,0-0.5,0c-1.3,0.2-2.6,0.4-4,0.6c-0.4,0.1-0.8,0.2-1.1,0.3c-0.7,0.2-1.3,0.2-2,0.1c-0.8-0.2-1.2-0.6-1.4-1.4
	c-0.1-0.4-0.1-0.8,0.1-1.3c0.2-0.5,0.6-0.8,1.1-0.8C3.1,14.4,3.3,14.4,3.7,14.4L3.7,14.4L3.7,14.4z M28.5,17c0.5,0,0.9,0.1,1.3,0
	c0.3,0,0.5-0.1,0.7-0.4c0.3-0.4,0.5-0.9,0.4-1.5c-0.1-0.5-0.3-0.8-0.8-0.9c-0.4-0.1-0.7-0.1-1-0.1c-1.3,0.2-2.6,0.5-3.9,0.6
	c-1,0.1-2.1,0.3-3.1,0.3c-0.7,0-1.1-0.3-1.3-0.9c-0.2-0.4-0.1-0.8,0.3-1.1c0.3-0.3,0.6-0.5,1-0.7c0.6-0.4,1.2-0.8,1.8-1.2
	c0.6-0.5,1.2-0.9,1.8-1.2c0.8-0.5,1.5-1,2.2-1.6c0.5-0.4,0.6-1.1,0.3-1.6c-0.2-0.4-0.7-0.7-1.2-0.6c-0.2,0-0.4,0.1-0.6,0.2
	c-0.4,0.3-0.8,0.6-1.2,1C24,8.1,23.1,9,22.3,9.9c-0.6,0.6-1.2,1.2-1.8,1.8c-0.5,0.4-1.1,0.4-1.5,0.1c-0.4-0.3-0.6-0.8-0.4-1.3
	c0.5-1.3,0.8-2.7,1.5-3.9c0.6-1.1,0.9-2.4,1.2-3.6c0.2-0.6-0.1-1.1-0.5-1.5c-0.4-0.4-0.9-0.4-1.3,0c-0.4,0.4-0.6,0.9-0.7,1.4
	c0,0.3-0.1,0.6-0.1,0.9c-0.3,1.7-0.7,3.4-0.9,5.1c-0.1,0.6-0.2,1.2-0.6,1.6c-0.5,0.7-1.3,0.7-1.9,0.1c-0.2-0.3-0.4-0.6-0.4-0.9
	c-0.4-1.9-0.9-3.7-1.3-5.6c-0.2-0.7-0.3-1.5-0.6-2.2c-0.2-0.4-0.7-0.7-1.2-0.6c-0.4,0.1-0.7,0.5-0.8,0.9c-0.1,0.5,0,1,0.2,1.4
	c0.1,0.4,0.3,0.8,0.4,1.2c0.3,0.8,0.6,1.5,1,2.2c0.5,0.9,0.9,2,1.2,3c0.2,0.5,0.1,1-0.2,1.5c-0.4,0.6-0.8,0.7-1.3,0.3
	c-0.5-0.3-0.9-0.6-1.3-1C9.4,9.6,8,8.5,6.5,7.3C6.3,7.1,6.1,7,5.8,6.9c-0.5-0.2-1-0.1-1.3,0.2C4.1,7.5,4.1,8,4.4,8.5
	c0.4,0.6,1,1.1,1.6,1.4c1.4,0.7,2.7,1.5,4.1,2.3c0.4,0.2,0.7,0.5,1,0.7c0.5,0.4,0.6,0.9,0.4,1.5c-0.2,0.5-0.6,0.9-1.2,0.8
	c-1.5-0.1-3-0.2-4.5-0.4c-0.7-0.1-1.3-0.2-2-0.2c-0.4,0-0.8,0.1-1.2,0.1c-0.2,0-0.4,0.1-0.5,0.3c-0.6,0.7-0.4,2.4,0.8,2.6
	c0.6,0.1,1.3,0.1,1.9-0.1c1.8-0.6,3.7-0.6,5.5-1c0.4-0.1,0.8,0.1,1.1,0.4c0.4,0.6,0.4,1.4-0.2,1.8c-1.5,1-3,2.1-4.5,3.1
	c-0.6,0.4-1.2,0.8-1.7,1.3c-0.1,0.1-0.3,0.3-0.4,0.5c-0.2,0.6,0,1.4,0.6,1.7c0.5,0.3,1,0.3,1.5,0C7.2,25,7.5,24.6,8,24.2
	c0.7-0.6,1.4-1.1,2-1.8c0.7-0.8,1.5-1.6,2.3-2.3c0.5-0.4,0.8-0.5,1.2-0.2c0.5,0.3,0.7,0.7,0.4,1.3c-0.7,1.9-1.4,3.8-2,5.7
	c-0.2,0.6-0.4,1.3-0.5,2c-0.1,0.7,0.2,1.3,0.8,1.5c0.6,0.2,1.1,0,1.5-0.5c0.2-0.3,0.3-0.6,0.4-1c0.2-1.4,0.5-2.9,0.8-4.3
	c0.2-0.9,0.3-1.8,0.4-2.6c0.1-0.4,0.2-0.8,0.6-1c0.7-0.4,1.4,0,1.5,0.9c0.4,1.7,0.8,3.4,1.3,5c0.2,0.8,0.5,1.7,0.8,2.4
	c0.3,0.6,0.9,0.8,1.5,0.7c0.5-0.1,1-0.7,1-1.3c0-0.3-0.1-0.6-0.2-0.9c-0.5-1-0.9-2.1-1.4-3.1c-0.5-0.9-0.8-1.9-1.4-2.8
	c-0.2-0.3-0.3-0.6-0.4-0.9c-0.1-0.7,0.2-1.1,0.8-1.2c0.3-0.1,0.7,0,0.9,0.2c0.3,0.2,0.6,0.5,0.9,0.7c1.3,1.1,2.6,2.3,4,3.4
	c0.4,0.3,0.8,0.7,1.3,0.9c0.8,0.4,1.8-0.1,1.9-1.1c0.1-0.7-0.4-1.1-0.8-1.4c-1.8-1.2-3.6-2.3-5.5-3.3c-0.2-0.1-0.4-0.2-0.6-0.3
	c-0.5-0.3-0.7-0.7-0.6-1.2c0-0.5,0.3-0.8,0.8-1c0.3-0.1,0.6-0.1,0.8-0.1c0.7,0.1,1.3,0.2,2,0.2C25.7,16.7,27.2,16.9,28.5,17
	C28.5,17,28.5,17,28.5,17z"/>
</svg>
