<?xml version="1.0" encoding="UTF-8"?>
<svg id="Capa_1" data-name="Capa 1" xmlns="http://www.w3.org/2000/svg" viewBox="0 0 587.84 563.6">
  <defs>
    <style>
      .cls-1 {
        fill: #e6c35e;
      }

      .cls-2 {
        fill: #1c140a;
      }

      .cls-3 {
        fill: #e45515;
      }
    </style>
  </defs>
  <path class="cls-2" d="M294.17,15.29c44.74-1.75,86.67,9.12,125.73,30.15,30.17,16.24,58.68,35.34,83.13,59.69,10.39,10.34,18.22,22.91,26.85,34.72,13.39,18.32,23.25,38.79,34.06,58.62,9.41,17.25,11.18,36.77,12.76,56.08,.49,5.97,.74,11.96,1.15,17.94,.81,11.65,.56,23.2-1.08,34.85-4.63,32.86-13.86,64.47-27.12,94.68-7.55,17.2-18.37,32.83-29.64,48.16-10.2,13.87-23.64,24.27-34.47,37.31-11.51,13.87-27.11,22.6-42.53,31-8.78,4.78-16.4,11.17-25.46,15.56-24.96,12.1-51.25,18.31-78.74,20.21-17.27,1.19-34.54,2.77-51.83,3.38-35.17,1.25-68.69-7.05-101.46-18.87-24.35-8.78-45.59-23.01-66.04-38.53-9.53-7.23-19.6-13.85-28.57-21.72-9.96-8.74-19.02-18.58-26.78-29.4-13.04-18.19-22.47-38.44-32.44-58.36-.89-1.78-1.72-3.61-2.33-5.5-11.11-34.71-19.86-69.74-16.18-106.74,1.79-17.97,7.03-35.23,9.86-52.96,2.45-15.32,8.87-29.08,14.51-43.3,7.31-18.43,17.58-35,28.32-51.42,.55-.83,.95-1.79,1.6-2.53,16.43-18.61,31.6-38.02,52.53-52.67,39.29-27.51,81.43-47.69,128.38-57.44,15.04-3.12,30.44-3.38,45.78-2.89Zm-.64,4.3c-22.8-1.6-45.62,2.3-68.27,8.61-33.44,9.32-63.9,24.8-92.58,43.86-11.86,7.88-23.58,16.07-33.86,26.3-7.16,7.13-12.47,15.53-19.17,22.85-12.26,13.38-21.46,28.76-30.07,44.52-3.49,6.39-5.51,13.58-8.77,20.13-6.4,12.89-11.41,26.14-13.78,40.42-3.42,20.66-9.16,40.91-10.18,62-1.64,33.94,7,65.95,17.42,97.69,.31,.94,.77,1.84,1.22,2.74,9.66,19.37,18.92,38.96,31.35,56.79,7.64,10.96,16.45,21.21,26.69,29.49,9.52,7.7,19.16,15.42,29.18,22.6,20.06,14.39,40.2,28.49,63.6,36.98,29.24,10.61,59.14,18.35,90.47,19.12,17.68,.44,35.28-1.45,52.88-2.64,30.08-2.05,59.38-7.31,86.72-21.09,8.38-4.22,15.55-10.13,23.73-14.65,15.09-8.34,30.26-16.92,41.99-30.16,3.74-4.22,6.82-9.09,11.48-12.48,12.38-8.99,21-21.52,29.38-33.75,11.23-16.39,21.15-33.58,28.38-52.55,10.16-26.66,16.78-53.93,21.36-81.93,1.47-8.99,1.86-17.96,1.07-26.88-.8-8.97-.83-17.98-1.7-26.92-1.73-17.6-3.88-35.2-12.34-51.14-15.79-29.73-32.51-58.9-54.03-84.99-2.75-3.33-5.7-6.52-8.83-9.5-23.28-22.19-50.11-39.55-77.83-55.41-14.69-8.41-30.52-15.02-46.86-19.75-25.4-7.34-51.26-11.96-78.65-10.28Z"/>
  <path class="cls-3" d="M293.52,19.59c27.39-1.68,53.25,2.94,78.65,10.28,16.34,4.73,32.17,11.34,46.86,19.75,27.72,15.86,54.54,33.22,77.83,55.41,3.12,2.98,6.08,6.17,8.83,9.5,21.52,26.09,38.25,55.25,54.03,84.99,8.46,15.94,10.61,33.54,12.34,51.14,.88,8.94,.91,17.94,1.7,26.92,.79,8.92,.4,17.89-1.07,26.88-4.58,27.99-11.2,55.26-21.36,81.93-7.23,18.96-17.14,36.15-28.38,52.55-8.38,12.23-17.01,24.76-29.38,33.75-4.66,3.38-7.74,8.25-11.48,12.48-11.74,13.24-26.9,21.82-41.99,30.16-8.18,4.52-15.35,10.43-23.73,14.65-27.34,13.78-56.64,19.04-86.72,21.09-17.61,1.2-35.2,3.08-52.88,2.64-31.33-.77-61.23-8.51-90.47-19.12-23.4-8.49-43.54-22.59-63.6-36.98-10.02-7.19-19.66-14.91-29.18-22.6-10.24-8.28-19.05-18.53-26.69-29.49-12.43-17.83-21.69-37.42-31.35-56.79-.45-.89-.91-1.79-1.22-2.74-10.42-31.74-19.07-63.75-17.42-97.69,1.02-21.1,6.76-41.34,10.18-62,2.36-14.29,7.38-27.54,13.78-40.42,3.25-6.55,5.27-13.73,8.77-20.13,8.61-15.76,17.81-31.13,30.07-44.52,6.7-7.31,12.01-15.72,19.17-22.85,10.28-10.23,22-18.42,33.86-26.3,28.68-19.06,59.15-34.54,92.58-43.86,22.65-6.31,45.47-10.21,68.27-8.61Zm7.25,14.99c-18.6,1.31-33.65,1.63-48.49,3.56-38.68,5.03-73.79,19.61-105.61,42-15.49,10.9-29.59,23.56-44.04,35.82-15.37,13.05-26.76,28.46-35.42,46.28-2.18,4.49-3.58,9.45-6.27,13.58-15.09,23.16-19.77,49.93-26.69,75.92-1.55,5.81-2.3,11.74-2.55,17.77-.51,12.3-.96,24.6,.04,36.89,.84,10.28-1.23,20.96,1.85,30.83,8.59,27.53,15.16,55.75,31.17,80.63,9.07,14.09,19.29,27.09,30.14,39.67,11.16,12.93,25.11,22.85,38.55,33.19,6.07,4.67,12.27,9.06,17.74,14.48,5.81,5.75,14.2,7.21,20.87,11.46,11.71,7.47,24.47,12.02,37.87,14.81,13.03,2.71,25.9,6.01,38.79,9.24,4.82,1.21,9.71,2.55,14.63,2.93,24.02,1.82,48.25,.38,71.73-3.1,28.36-4.2,56.96-9.81,82.12-26.12,15.93-10.33,32.49-20.05,46.66-32.41,21.52-18.79,41.82-39.15,57.72-63.3,3.48-5.29,6.61-10.64,9.33-16.41,4.25-9.06,7.6-18.42,11.33-27.66,9.17-22.72,14.8-46.39,15.8-70.75,1.21-29.66-.01-59.23-9.11-88.03-2.39-7.58-3.91-15.44-7.18-22.77-9.69-21.66-21.74-41.93-36.48-60.51-7.23-9.11-14.24-18.71-22.94-26.25-11.75-10.17-23.4-20.46-36.65-29.09-23.52-15.32-49.63-23.94-75.5-33.43-12.6-4.62-26.05-5.55-39.18-7.44-11.15-1.61-22.56-1.39-30.23-1.79Z"/>
  <path class="cls-2" d="M300.78,34.58c7.67,.4,19.08,.19,30.23,1.79,13.14,1.89,26.58,2.82,39.18,7.44,25.88,9.49,51.98,18.11,75.5,33.43,13.26,8.63,24.9,18.92,36.65,29.09,8.7,7.54,15.72,17.14,22.94,26.25,14.74,18.58,26.79,38.85,36.48,60.51,3.28,7.33,4.79,15.2,7.18,22.77,9.1,28.79,10.33,58.37,9.11,88.03-.99,24.36-6.63,48.03-15.8,70.75-3.73,9.24-7.08,18.6-11.33,27.66-2.71,5.78-5.85,11.13-9.33,16.41-15.91,24.15-36.21,44.51-57.72,63.3-14.16,12.37-30.73,22.08-46.66,32.41-25.16,16.31-53.77,21.92-82.12,26.12-23.48,3.48-47.71,4.92-71.73,3.1-4.92-.37-9.81-1.72-14.63-2.93-12.9-3.22-25.76-6.53-38.79-9.24-13.39-2.79-26.16-7.34-37.87-14.81-6.67-4.25-15.06-5.71-20.87-11.46-5.48-5.42-11.67-9.81-17.74-14.48-13.45-10.34-27.39-20.26-38.55-33.19-10.85-12.57-21.07-25.57-30.14-39.67-16.01-24.88-22.58-53.11-31.17-80.63-3.08-9.87-1.01-20.55-1.85-30.83-1-12.28-.55-24.58-.04-36.89,.25-6.03,1-11.96,2.55-17.77,6.92-25.99,11.59-52.76,26.69-75.92,2.69-4.13,4.09-9.09,6.27-13.58,8.66-17.82,20.05-33.23,35.42-46.28,14.44-12.26,28.54-24.92,44.04-35.82,31.82-22.39,66.93-36.97,105.61-42,14.84-1.93,29.88-2.25,48.49-3.56ZM35.87,297.97c.4,12.62-1.44,25.78,2.1,37.77,6.29,21.31,10.76,43.37,21.45,63.21,4.72,8.76,8.98,17.94,14.87,25.88,11.08,14.92,22.3,29.71,36.47,42.18,14.26,12.55,30.77,22.22,44.24,35.73,2.98,2.98,7.11,4.87,11.21,6.43,2.78,1.07,5.59,2.25,8.1,3.84,11.69,7.38,24.47,11.8,37.92,14.63,10.07,2.12,20.13,4.29,30.05,7.14,12.16,3.5,24.53,6.44,37.34,5.34,24.15-2.08,48.55-1.16,72.4-6.92,21.36-5.16,42.59-9.86,61.8-21.7,15.34-9.45,30.91-18.91,44.38-30.45,18.83-16.15,36.65-33.61,51.89-53.73,15.86-20.92,25.45-44.4,33.15-68.77,6.8-21.54,11.05-43.62,10.55-66.68-.49-22.38-1.15-44.47-7.02-66.27-3.46-12.86-5.83-25.99-12.42-37.8-2.1-3.78-4.32-7.53-6-11.5-7.74-18.4-20.67-33.32-33.07-48.46-5.24-6.39-9.77-13.74-16.2-18.85-11.94-9.48-23.01-19.9-35.91-28.42-21.74-14.36-45.76-23.28-69.89-31.33-39.63-13.21-80.78-11.88-121.7-6.74-20.53,2.58-40.17,8.71-59.31,16.96-20.37,8.78-39.11,20.11-56.19,33.91-11.08,8.95-22.24,17.88-32.88,27.47-10.07,9.08-19.18,18.96-25.08,30.62-12.87,25.41-27.32,50.02-34,78.51-5.29,22.58-9.91,44.78-8.24,68.01Z"/>
  <path class="cls-1" d="M35.87,297.97c-1.67-23.23,2.95-45.43,8.24-68.01,6.68-28.49,21.13-53.1,34-78.51,5.9-11.66,15.01-21.55,25.08-30.62,10.64-9.59,21.8-18.52,32.88-27.47,17.08-13.8,35.82-25.13,56.19-33.91,19.14-8.25,38.77-14.38,59.31-16.96,40.92-5.15,82.07-6.47,121.7,6.74,24.13,8.04,48.14,16.97,69.89,31.33,12.9,8.52,23.97,18.94,35.91,28.42,6.44,5.11,10.97,12.46,16.2,18.85,12.4,15.14,25.32,30.06,33.07,48.46,1.67,3.97,3.89,7.72,6,11.5,6.58,11.81,8.95,24.94,12.42,37.8,5.87,21.8,6.53,43.89,7.02,66.27,.5,23.06-3.74,45.15-10.55,66.68-7.7,24.37-17.29,47.85-33.15,68.77-15.25,20.12-33.06,37.59-51.89,53.73-13.46,11.54-29.04,21-44.38,30.45-19.21,11.84-40.44,16.54-61.8,21.7-23.85,5.76-48.25,4.84-72.4,6.92-12.8,1.1-25.18-1.84-37.34-5.34-9.92-2.85-19.98-5.02-30.05-7.14-13.46-2.83-26.23-7.25-37.92-14.63-2.51-1.58-5.31-2.77-8.1-3.84-4.1-1.57-8.23-3.45-11.21-6.43-13.48-13.5-29.98-23.18-44.24-35.73-14.17-12.47-25.39-27.26-36.47-42.18-5.89-7.93-10.15-17.11-14.87-25.88-10.68-19.84-15.16-41.9-21.45-63.21-3.54-11.99-1.7-25.15-2.1-37.77Zm64.34-28.56c-5.46,.5-9.77,.93-14.08,1.28-8.06,.64-13.2,4.72-16.94,12.01-3.23,6.29-2.38,12.04-1.1,18.32,2.45,12.09,8.79,18.71,20.83,21.09,10.31,2.04,20.5,1.85,30.62-1.26,5.72-1.76,11.47-3.72,17.36-4.59,20.1-2.97,40.35-4.82,60.36-8.43,2.59-.47,5.35-.6,7.95-.26,5.66,.74,10.37,3.36,11.55,9.37,1.05,5.37,.5,10.72-4.51,14.37-3.77,2.75-7.53,5.51-11.44,8.04-23.49,15.2-47.04,30.3-70.51,45.53-3.9,2.53-7.64,5.36-11.21,8.34-13.39,11.16-13.95,26.21-1.85,38.91,3.44,3.61,7.24,5.35,12.16,5.94,9.34,1.11,17.12-2.06,23.87-7.97,11.77-10.32,23.5-20.68,35.75-30.45,3.1-2.47,5.83-5.5,8.35-8.59,9.96-12.2,21.76-22.51,33.53-32.85,6.52-5.72,9.95-6.28,15.07-2.95,5.46,3.55,6.61,7.68,4.32,15.78-.36,1.28-.88,2.51-1.35,3.76-6.67,17.4-13.55,34.72-19.97,52.21-6.3,17.17-13.49,34.04-17.53,51.98-4.17,18.55,9.98,34.21,28.14,30.61,11.93-2.36,17.57-11.38,20.72-22.07,1.78-6.04,2.6-12.38,3.59-18.62,4.11-25.96,10.91-51.45,13.07-77.78,.39-4.73,1.08-9.86,3.23-14.5,2.35-5.06,6.1-7.97,11.57-8.06,5.51-.09,8.22,3.85,10.01,8.38,.97,2.46,1.55,5.11,2.03,7.72,4.79,25.59,13.1,50.23,20.32,75.15,3.04,10.51,6.2,21.07,11.22,30.93,2.73,5.37,6.61,9.04,12.36,10.86,10.48,3.34,19.71,1.69,27.4-6.56,8-8.58,9.15-18.38,4.31-28.67-9.77-20.78-20.21-41.24-29.77-62.11-5.55-12.13-12.83-23.33-18.13-35.54-2.03-4.68-2.92-9.78,1.29-13.96,3.84-3.81,11.36-4.04,16.66-.47,4.69,3.15,9.25,6.54,13.63,10.1,22.74,18.52,45.42,37.1,68.07,55.72,3.9,3.2,8.14,5.78,12.66,7.94,14.42,6.88,31.4-1.77,34.98-17.32,2.82-12.24-3.47-20.09-12.34-26.11-12.11-8.21-24.61-15.93-37.41-23-19.23-10.62-38.29-21.59-58.06-31.23-6.53-3.19-9-8.58-7.64-14.62,1.35-6.02,6.16-10.1,13.01-10.27,6.32-.16,12.76-.35,18.96,.61,23.45,3.63,47.23,2.75,70.74,5.5,7.6,.89,15.28,1.28,22.93,1.46,15.23,.36,22.23-4.58,27.03-18.52,6.14-17.84-3.8-32.28-22.6-33.07-9.43-.4-18.57,1.55-27.75,3.04-28.29,4.59-56.77,7.56-85.25,10.66-2.98,.32-5.95,.24-8.94-.45-6.13-1.42-8.29-6.51-10.15-11.4-1.81-4.77,1.31-7.99,4.86-10.98,4.62-3.89,9.61-7.21,14.83-10.12,10.8-6.02,21.05-12.81,30.75-20.46,5.51-4.34,11.45-8.02,17.67-11.28,13.63-7.15,26.17-15.98,37.96-25.79,8.67-7.22,11.2-18.78,6.54-29.08-4.25-9.39-12.32-12.27-22.13-12.26-6.06,0-10.91,2.35-15.64,5.65-16.49,11.51-30.4,25.92-44.85,39.71-12.78,12.19-24.82,25.16-38.49,36.39-6.62,5.44-12.44,5.81-18.23,1.87-6.57-4.47-7.71-8.11-4.18-17.38,7.45-19.57,13.06-39.92,23.9-58.11,1.52-2.56,2.68-5.39,3.62-8.22,4.11-12.32,8.35-24.6,12.03-37.05,3.29-11.15,.69-21.01-7.9-29.19-7.89-7.51-19.04-7.51-26.76,.14-6.14,6.07-9.65,13.35-11.2,21.84-5.65,31.11-13.4,61.81-17.71,93.18-.87,6.35-3.08,12.3-7.31,17.27-6.17,7.25-14.36,7.36-20.73,.4-3.24-3.54-4.93-7.79-6.02-12.43-5.97-25.27-11.97-50.54-18.12-75.77-2.92-11.96-5.24-24.14-10.13-35.51-4.2-9.76-14.48-14.76-24.62-12.51-7.89,1.75-14.62,10.75-14.59,20.48,.01,4.95,.37,10.17,1.95,14.79,6.9,20.15,13.75,40.33,24.76,58.8,7.19,12.06,12.09,25.21,16.31,38.56,2.11,6.65,1.44,13.19-2.77,19.07-4.7,6.56-8.45,7.41-15.1,3.12-8.69-5.6-16.99-11.69-24.72-18.61-18.63-16.69-38.63-31.7-58.52-46.83-4.54-3.45-9.33-6.48-14.6-8.59-8.62-3.45-18.42-.72-24.31,6.5-6.72,8.25-7.26,15.83-1.52,24.77,6.48,10.09,15.51,17.36,26.21,22.51,10.2,4.91,20.34,9.91,30.12,15.63,15.5,9.07,32.24,16.01,46.54,27.14,6.93,5.39,8.86,10.16,6.77,17.05-1.96,6.44-7.43,10.42-15.52,10.01-15.94-.82-31.86-1.96-47.76-3.36-17.89-1.57-35.74-3.58-52.52-5.29Z"/>
  <path class="cls-2" d="M100.21,269.42c16.78,1.71,34.63,3.71,52.52,5.29,15.9,1.4,31.82,2.54,47.76,3.36,8.09,.42,13.56-3.56,15.52-10.01,2.09-6.89,.16-11.66-6.77-17.05-14.31-11.13-31.04-18.07-46.54-27.14-9.78-5.72-19.92-10.71-30.12-15.63-10.69-5.15-19.72-12.42-26.21-22.51-5.74-8.94-5.2-16.52,1.52-24.77,5.89-7.22,15.69-9.96,24.31-6.5,5.27,2.11,10.07,5.14,14.6,8.59,19.89,15.13,39.89,30.13,58.52,46.83,7.72,6.92,16.03,13.01,24.72,18.61,6.65,4.29,10.4,3.44,15.1-3.12,4.21-5.88,4.88-12.41,2.77-19.07-4.23-13.35-9.13-26.5-16.31-38.56-11.01-18.47-17.86-38.65-24.76-58.8-1.58-4.62-1.94-9.84-1.95-14.79-.03-9.73,6.7-18.74,14.59-20.48,10.14-2.24,20.41,2.75,24.62,12.51,4.9,11.37,7.21,23.55,10.13,35.51,6.16,25.23,12.16,50.5,18.12,75.77,1.1,4.64,2.78,8.88,6.02,12.43,6.37,6.96,14.56,6.85,20.73-.4,4.23-4.97,6.44-10.92,7.31-17.27,4.31-31.37,12.06-62.07,17.71-93.18,1.54-8.49,5.06-15.77,11.2-21.84,7.72-7.64,18.87-7.65,26.76-.14,8.59,8.18,11.2,18.04,7.9,29.19-3.68,12.45-7.92,24.73-12.03,37.05-.95,2.83-2.1,5.66-3.62,8.22-10.84,18.2-16.44,38.54-23.9,58.11-3.53,9.27-2.39,12.9,4.18,17.38,5.79,3.94,11.61,3.56,18.23-1.87,13.67-11.23,25.71-24.2,38.49-36.39,14.45-13.79,28.37-28.2,44.85-39.71,4.73-3.3,9.58-5.65,15.64-5.65,9.81,0,17.88,2.87,22.13,12.26,4.66,10.3,2.13,21.86-6.54,29.08-11.79,9.82-24.32,18.65-37.96,25.79-6.21,3.26-12.16,6.94-17.67,11.28-9.7,7.65-19.96,14.44-30.75,20.46-5.22,2.91-10.21,6.23-14.83,10.12-3.55,2.99-6.67,6.21-4.86,10.98,1.86,4.89,4.02,9.98,10.15,11.4,2.99,.69,5.95,.78,8.94,.45,28.47-3.09,56.96-6.07,85.25-10.66,9.18-1.49,18.32-3.44,27.75-3.04,18.81,.79,28.75,15.23,22.6,33.07-4.8,13.94-11.8,18.87-27.03,18.52-7.65-.18-15.33-.57-22.93-1.46-23.51-2.75-47.29-1.87-70.74-5.5-6.21-.96-12.64-.76-18.96-.61-6.85,.17-11.66,4.25-13.01,10.27-1.35,6.04,1.11,11.44,7.64,14.62,19.77,9.64,38.82,20.62,58.06,31.23,12.81,7.07,25.31,14.79,37.41,23,8.88,6.02,15.16,13.87,12.34,26.11-3.58,15.55-20.56,24.2-34.98,17.32-4.52-2.16-8.76-4.74-12.66-7.94-22.65-18.62-45.33-37.2-68.07-55.72-4.38-3.57-8.94-6.95-13.63-10.1-5.3-3.57-12.82-3.34-16.66,.47-4.21,4.17-3.32,9.27-1.29,13.96,5.3,12.21,12.58,23.41,18.13,35.54,9.56,20.87,20,41.33,29.77,62.11,4.84,10.29,3.69,20.09-4.31,28.67-7.69,8.25-16.92,9.89-27.4,6.56-5.74-1.83-9.63-5.49-12.36-10.86-5.02-9.87-8.18-20.43-11.22-30.93-7.22-24.92-15.53-49.56-20.32-75.15-.49-2.61-1.06-5.26-2.03-7.72-1.79-4.53-4.51-8.47-10.01-8.38-5.47,.09-9.22,3-11.57,8.06-2.15,4.64-2.85,9.76-3.23,14.5-2.15,26.32-8.95,51.82-13.07,77.78-.99,6.24-1.81,12.58-3.59,18.62-3.14,10.69-8.78,19.71-20.72,22.07-18.16,3.59-32.31-12.07-28.14-30.61,4.03-17.95,11.23-34.82,17.53-51.98,6.42-17.49,13.3-34.81,19.97-52.21,.48-1.24,.99-2.48,1.35-3.76,2.29-8.1,1.15-12.23-4.32-15.78-5.13-3.34-8.56-2.78-15.07,2.95-11.77,10.34-23.56,20.65-33.53,32.85-2.52,3.09-5.25,6.12-8.35,8.59-12.24,9.77-23.97,20.13-35.75,30.45-6.75,5.92-14.53,9.09-23.87,7.97-4.92-.59-8.72-2.33-12.16-5.94-12.1-12.7-11.54-27.75,1.85-38.91,3.57-2.98,7.31-5.81,11.21-8.34,23.47-15.23,47.02-30.33,70.51-45.53,3.91-2.53,7.67-5.3,11.44-8.04,5.01-3.65,5.56-9,4.51-14.37-1.18-6.01-5.89-8.63-11.55-9.37-2.6-.34-5.36-.21-7.95,.26-20.01,3.61-40.27,5.46-60.36,8.43-5.89,.87-11.64,2.83-17.36,4.59-10.13,3.12-20.31,3.3-30.62,1.26-12.04-2.38-18.38-9-20.83-21.09-1.27-6.28-2.13-12.03,1.1-18.32,3.75-7.29,8.89-11.37,16.94-12.01,4.32-.34,8.62-.78,14.08-1.28Zm376.92,38.24c7.98,.48,13.63,.97,19.29,.23,4.11-.54,8-1.83,10.37-5.32,4.4-6.5,7.05-13.65,5.66-21.68-1.24-7.12-4.72-12.07-12.47-13.75-5.32-1.15-10.55-1.73-15.82-.83-19.7,3.35-39.42,6.58-59.31,8.5-15.9,1.54-31.59,5.06-47.65,5.03-10.55-.02-16.03-3.68-19.96-13.37-2.42-5.95-1.03-11.94,4.23-16.04,4.72-3.68,9.63-7.15,14.69-10.34,9.29-5.87,18.96-11.14,27.56-18.07,8.59-6.92,17.95-12.64,27.62-17.93,12.02-6.57,23.23-14.42,33.49-23.47,6.98-6.16,8.44-15.83,4.52-23.84-2.9-5.93-10.58-9.55-18.74-9.03-3.47,.22-6.4,1.63-9.22,3.47-6.42,4.2-12.57,8.71-18.21,13.96-13.66,12.7-27.29,25.44-40.53,38.59-8.97,8.92-18.3,17.5-27.89,25.76-6.89,5.93-16.05,5.98-23.17,1.15-6.75-4.58-9.64-11.17-6.71-19.13,7.02-19.03,12.32-38.79,22.37-56.6,9.3-16.47,12.95-34.89,18.66-52.58,2.84-8.8-.92-16.32-7.63-22.33-6.04-5.41-13.95-5.33-19.74,.34-5.66,5.55-8.79,12.44-10.07,20.23-.7,4.27-1.33,8.56-2.22,12.79-5.23,24.75-11.01,49.38-14.26,74.51-1.11,8.6-3.16,17.09-8.94,24.06-8.21,9.9-19.71,10.17-28.4,.72-3.48-3.78-5.42-8.2-6.6-13.21-6.41-27.21-12.95-54.4-19.55-81.57-2.59-10.66-4.54-21.56-9.53-31.47-3.17-6.29-11.1-9.84-17.66-8.42-5.72,1.24-10.77,6.96-11.47,13.68-.74,7.05,.3,13.94,2.78,20.62,2.09,5.61,3.78,11.37,6.04,16.91,4.52,11.09,8.73,22.38,14.92,32.68,8.3,13.81,13.97,28.69,18.97,43.9,2.62,7.98,.72,15.17-3.75,21.8-5.67,8.41-11.87,9.98-20.48,4.77-7.1-4.3-14.14-8.73-20.44-14.29-20.73-18.31-42.53-35.33-64.67-51.89-3.44-2.58-7.26-4.74-11.13-6.63-7.22-3.54-15.09-2.01-20.05,3.52-5.54,6.18-6.03,13.52-1.11,21.02,6.01,9.17,14.46,15.55,24.24,20.24,21.33,10.22,41.86,21.96,62.49,33.49,5.5,3.07,10.73,6.73,15.75,10.55,7.74,5.89,9.76,13.2,6.66,22.04-2.76,7.87-9.54,12.95-18.61,12.27-22.89-1.73-45.86-2.5-68.67-5.29-10.23-1.25-20.48-2.57-30.75-3.12-5.93-.32-11.94,.8-17.9,1.36-3.14,.29-5.56,1.97-7.68,4.25-9.08,9.8-5.37,34.69,12.31,37.62,9.59,1.59,19.18,2.06,28.66-.93,27.2-8.58,55.85-8.55,83.61-13.89,6.23-1.2,12.69,1,16.97,6.41,6.68,8.45,5.29,20.18-3.76,26.27-22.65,15.25-45.57,30.09-68.45,44.99-8.93,5.82-18.23,11.09-26.08,18.42-2.17,2.03-4.52,3.9-5.46,6.98-2.64,8.63,.67,19.83,8.37,25.01,7.38,4.96,14.99,3.76,22.5-.67,7.59-4.48,13.29-11.07,19.83-16.71,10.07-8.69,21.23-16.14,29.87-26.47,10.3-12.32,22.24-22.96,34.41-33.36,7.23-6.18,12.33-6.79,18.95-2.48,7.71,5.02,9.89,10.66,6.57,19.69-10.2,27.8-20.59,55.54-31.08,83.24-3.55,9.38-6.3,18.99-7.96,28.82-1.64,9.7,3.74,18.41,12.32,21.62,8.36,3.13,16.78,.17,22.66-7.79,3.23-4.38,5.09-9.18,6.05-14.57,3.71-20.98,7.83-41.88,11.53-62.86,2.25-12.78,3.98-25.65,6.01-38.46,.98-6.18,3.53-11.55,9.23-14.68,10.3-5.68,20.69-.46,23.56,12.9,5.32,24.77,12.45,49.01,19.52,73.29,3.53,12.13,7.09,24.31,12.63,35.71,4.16,8.56,13.22,12.16,22.77,9.82,8.33-2.05,14.99-10.23,15.17-18.87,.1-4.74-1.22-9.12-3.33-13.42-7.33-14.92-14.19-30.08-21.69-44.92-6.91-13.65-12.35-28.03-20.61-41.02-2.66-4.19-4.79-8.75-5.81-13.73-2.01-9.81,2.25-16.27,12.1-18.11,5.09-.95,9.96-.61,14.27,2.69,4.49,3.44,9.1,6.74,13.48,10.32,20.11,16.44,40.09,33.05,60.28,49.39,6.19,5.01,12.29,10.22,19.65,13.64,12.9,6,27.23-2.05,28.93-16.1,1.27-10.55-5.51-16.11-12.88-20.71-27.4-17.1-55.25-33.43-84.08-48.04-3.27-1.66-6.61-3.17-9.83-4.91-6.9-3.73-9.98-9.69-9.27-17.38,.68-7.36,5.26-12.05,11.75-14.94,4.06-1.81,8.37-1.88,12.76-1.36,9.92,1.18,19.84,2.95,29.78,3.14,22.34,.42,44.48,3.6,64.46,4.16Z"/>
  <path class="cls-3" d="M477.13,307.66c-19.98-.56-42.11-3.74-64.46-4.16-9.94-.19-19.86-1.96-29.78-3.14-4.39-.52-8.7-.45-12.76,1.36-6.49,2.89-11.06,7.57-11.75,14.94-.71,7.69,2.36,13.65,9.27,17.38,3.22,1.74,6.56,3.25,9.83,4.91,28.83,14.61,56.68,30.95,84.08,48.04,7.37,4.6,14.16,10.16,12.88,20.71-1.7,14.06-16.03,22.11-28.93,16.1-7.36-3.43-13.46-8.63-19.65-13.64-20.19-16.35-40.17-32.95-60.28-49.39-4.38-3.58-8.99-6.88-13.48-10.32-4.31-3.3-9.18-3.64-14.27-2.69-9.85,1.84-14.11,8.3-12.1,18.11,1.02,4.98,3.15,9.55,5.81,13.73,8.26,12.99,13.71,27.37,20.61,41.02,7.5,14.83,14.36,29.99,21.69,44.92,2.11,4.3,3.43,8.68,3.33,13.42-.19,8.64-6.84,16.83-15.17,18.87-9.55,2.35-18.61-1.26-22.77-9.82-5.54-11.4-9.1-23.58-12.63-35.71-7.06-24.28-14.2-48.52-19.52-73.29-2.87-13.36-13.25-18.58-23.56-12.9-5.69,3.14-8.25,8.5-9.23,14.68-2.03,12.82-3.76,25.69-6.01,38.46-3.7,20.98-7.82,41.88-11.53,62.86-.95,5.4-2.82,10.19-6.05,14.57-5.87,7.96-14.3,10.92-22.66,7.79-8.58-3.21-13.96-11.92-12.32-21.62,1.66-9.83,4.41-19.44,7.96-28.82,10.49-27.7,20.88-55.44,31.08-83.24,3.31-9.02,1.14-14.67-6.57-19.69-6.62-4.31-11.72-3.7-18.95,2.48-12.17,10.4-24.11,21.04-34.41,33.36-8.63,10.33-19.8,17.78-29.87,26.47-6.54,5.64-12.24,12.23-19.83,16.71-7.52,4.43-15.12,5.64-22.5,.67-7.7-5.18-11.02-16.38-8.37-25.01,.94-3.08,3.29-4.95,5.46-6.98,7.85-7.33,17.15-12.6,26.08-18.42,22.88-14.91,45.8-29.74,68.45-44.99,9.05-6.09,10.44-17.82,3.76-26.27-4.28-5.42-10.74-7.61-16.97-6.41-27.76,5.34-56.41,5.31-83.61,13.89-9.48,2.99-19.06,2.52-28.66,.93-17.68-2.93-21.39-27.82-12.31-37.62,2.11-2.28,4.53-3.95,7.68-4.25,5.97-.55,11.98-1.67,17.9-1.36,10.28,.55,20.52,1.87,30.75,3.12,22.81,2.79,45.78,3.56,68.67,5.29,9.07,.68,15.85-4.4,18.61-12.27,3.1-8.84,1.08-16.15-6.66-22.04-5.02-3.82-10.25-7.48-15.75-10.55-20.63-11.52-41.16-23.26-62.49-33.49-9.78-4.69-18.23-11.06-24.24-20.24-4.92-7.5-4.43-14.84,1.11-21.02,4.96-5.53,12.82-7.06,20.05-3.52,3.87,1.89,7.69,4.06,11.13,6.63,22.14,16.56,43.94,33.57,64.67,51.89,6.3,5.57,13.33,10,20.44,14.29,8.61,5.21,14.81,3.63,20.48-4.77,4.47-6.62,6.37-13.82,3.75-21.8-5-15.21-10.67-30.09-18.97-43.9-6.19-10.3-10.4-21.59-14.92-32.68-2.26-5.54-3.95-11.3-6.04-16.91-2.48-6.68-3.52-13.58-2.78-20.62,.7-6.72,5.75-12.44,11.47-13.68,6.55-1.42,14.49,2.13,17.66,8.42,4.99,9.91,6.95,20.81,9.53,31.47,6.59,27.17,13.14,54.35,19.55,81.57,1.18,5.01,3.12,9.43,6.6,13.21,8.69,9.45,20.19,9.18,28.4-.72,5.78-6.97,7.83-15.46,8.94-24.06,3.25-25.14,9.03-49.77,14.26-74.51,.89-4.23,1.52-8.52,2.22-12.79,1.27-7.79,4.4-14.68,10.07-20.23,5.78-5.67,13.7-5.75,19.74-.34,6.71,6.01,10.47,13.52,7.63,22.33-5.71,17.69-9.36,36.11-18.66,52.58-10.05,17.8-15.35,37.56-22.37,56.6-2.94,7.96-.05,14.55,6.71,19.13,7.12,4.83,16.28,4.78,23.17-1.15,9.59-8.25,18.92-16.84,27.89-25.76,13.24-13.16,26.86-25.89,40.53-38.59,5.65-5.25,11.8-9.76,18.21-13.96,2.82-1.85,5.74-3.25,9.22-3.47,8.17-.52,15.85,3.1,18.74,9.03,3.92,8.01,2.46,17.68-4.52,23.84-10.26,9.05-21.47,16.91-33.49,23.47-9.67,5.28-19.03,11-27.62,17.93-8.6,6.93-18.27,12.2-27.56,18.07-5.06,3.19-9.97,6.66-14.69,10.34-5.26,4.1-6.65,10.09-4.23,16.04,3.93,9.68,9.41,13.35,19.96,13.37,16.06,.03,31.75-3.49,47.65-5.03,19.89-1.93,39.61-5.16,59.31-8.5,5.27-.9,10.5-.32,15.82,.83,7.75,1.68,11.23,6.63,12.47,13.75,1.39,8.02-1.26,15.18-5.66,21.68-2.36,3.49-6.26,4.79-10.37,5.32-5.66,.74-11.31,.25-19.29-.23Z"/>
</svg>