<?xml version="1.0" encoding="UTF-8"?>
<svg id="Capa_1" data-name="Capa 1" xmlns="http://www.w3.org/2000/svg" viewBox="0 0 59.39 59.73">
  <defs>
    <style>
      .cls-1 {
        fill: #e6c35e;
      }

      .cls-2 {
        fill: #1c140a;
      }

      .cls-3 {
        fill: #3c6347;
      }

      .cls-4 {
        fill: #e45515;
      }
    </style>
  </defs>
  <path class="cls-1" d="M15.62,38.79c-.86,0-1.63-.71-1.6-1.5,.03-.89,.78-1.8,1.5-1.81,.81-.01,1.67,.81,1.66,1.59-.02,.87-.78,1.71-1.55,1.72h0Z"/>
  <g>
    <path class="cls-2" d="M59.35,29.91c.17,1.53-.23,3.87-.69,6.19-.34,1.73-.94,3.4-1.72,5-1.13,2.3-2.14,4.68-3.73,6.72-1.64,2.1-3.22,4.25-5.51,5.73-1.12,.72-2.16,1.57-3.26,2.32-1.7,1.17-3.65,1.78-5.59,2.37-3.74,1.13-7.58,1.49-11.46,1.5-1.31,0-2.57-.37-3.86-.55-.66-.09-1.32-.15-1.97-.35-3.2-.99-6.17-2.43-8.94-4.34-1.96-1.35-3.75-2.88-5.51-4.47-1.58-1.42-2.55-3.23-3.47-5.08-.68-1.37-1.25-2.8-1.9-4.18-.59-1.26-.73-2.63-1.07-3.95-.13-.51-.25-1.04-.33-1.56-.55-3.73-.42-7.44,.38-11.13,.11-.52,.27-1.03,.32-1.57,.03-.33,.11-.66,.24-.97,1.26-3,2.27-6.11,4.27-8.75,.67-.88,1.5-1.61,2.13-2.52,1.61-2.32,3.72-4.07,6.14-5.48,.75-.44,1.34-1.14,2.15-1.45,2.74-1.04,5.43-2.22,8.3-2.87,2.77-.63,5.55-.66,8.35-.28,1.02,.14,2.05,.22,3.07,.41,2.07,.38,4.09,1.02,6.02,1.8,2.14,.87,4.18,2.06,5.85,3.75,.61,.62,1.29,1.16,2.04,1.61,.55,.33,1.03,.74,1.4,1.26,.48,.69,1.06,1.29,1.71,1.82,.5,.4,.92,.88,1.26,1.41,2.21,3.53,3.88,7.3,4.81,11.36,.4,1.75,.45,3.57,.58,6.23h0Zm-.47,.31c.07-1.38-.12-2.74-.24-4.1-.12-1.39-.31-2.78-.74-4.12-.73-2.3-1.67-4.51-2.73-6.66-.87-1.77-1.95-3.36-3.43-4.75-1.23-1.16-2.34-2.45-3.78-3.37-.14-.09-.25-.22-.37-.33-2.26-2.13-4.82-3.77-7.85-4.58-1.06-.28-2.07-.73-3.15-.98-1.53-.36-3.09-.51-4.64-.7-1.56-.19-3.13-.33-4.69-.11-4.66,.66-9.1,1.98-13.06,4.62-.08,.06-.17,.11-.26,.16-2.3,1.35-4.29,3.04-5.86,5.21-.9,1.24-2.04,2.28-2.84,3.61-.55,.92-.91,1.93-1.51,2.82-.67,.98-.76,2.2-1.38,3.2-.39,.63-.65,1.32-.78,2.05-.4,2.09-.94,4.15-1.07,6.3-.06,1.01,.05,2,.05,3,0,.7-.13,1.38-.05,2.09,.19,1.69,.72,3.31,1.01,4.99,.11,.62,.25,1.24,.52,1.82,.72,1.58,1.4,3.18,2.17,4.73,.75,1.52,1.57,3.04,2.82,4.22,1.7,1.6,3.45,3.12,5.36,4.49,2.33,1.68,4.85,2.96,7.47,4.02,2.36,.96,4.91,1.21,7.43,1.42,1.92,.17,3.87-.05,5.79-.27,1.91-.22,3.82-.59,5.67-1.18,1.84-.59,3.71-1.12,5.33-2.24,1.26-.87,2.52-1.76,3.73-2.69,.84-.65,1.75-1.24,2.42-2.08,.71-.89,1.39-1.79,2.12-2.66,1.68-1.98,2.73-4.33,3.88-6.63,1.78-3.56,2.52-7.35,2.64-11.29h0Z"/>
    <path class="cls-4" d="M58.88,30.22c-.12,3.94-.85,7.73-2.64,11.29-1.15,2.3-2.2,4.64-3.88,6.63-.73,.86-1.41,1.77-2.12,2.66-.68,.85-1.58,1.44-2.42,2.08-1.22,.93-2.47,1.82-3.73,2.69-1.62,1.11-3.49,1.64-5.33,2.24-1.85,.6-3.76,.96-5.67,1.18-1.91,.22-3.86,.44-5.79,.27-2.52-.22-5.08-.47-7.43-1.42-2.62-1.06-5.14-2.34-7.47-4.02-1.91-1.37-3.66-2.89-5.36-4.49-1.25-1.18-2.06-2.69-2.82-4.22-.77-1.55-1.44-3.15-2.17-4.73-.27-.58-.41-1.2-.52-1.82-.28-1.67-.81-3.29-1.01-4.99-.08-.71,.05-1.4,.05-2.09,0-1-.11-1.99-.05-3,.13-2.14,.67-4.21,1.07-6.3,.14-.73,.4-1.41,.78-2.05,.61-1,.71-2.22,1.38-3.2,.6-.88,.96-1.9,1.51-2.82,.8-1.33,1.94-2.37,2.84-3.61,1.57-2.17,3.56-3.86,5.86-5.21,.09-.05,.17-.1,.26-.16,3.97-2.64,8.4-3.96,13.06-4.62,1.56-.22,3.13-.08,4.69,.11,1.55,.19,3.11,.34,4.64,.7,1.08,.25,2.08,.7,3.15,.98,3.04,.8,5.59,2.44,7.85,4.58,.12,.11,.23,.24,.37,.33,1.44,.92,2.55,2.21,3.78,3.37,1.48,1.39,2.56,2.99,3.43,4.75,1.06,2.15,2,4.36,2.73,6.66,.43,1.35,.62,2.73,.74,4.12,.12,1.36,.31,2.72,.24,4.1h0Zm-1.78-.51c0-1.12,0-2.02,0-2.92-.01-3.61-.94-6.96-2.71-10.11-.72-1.29-1.57-2.47-2.38-3.68-2.3-3.43-5.39-5.96-8.89-8.05-1.88-1.12-3.91-1.83-6.03-2.34-1.88-.46-3.76-.73-5.72-.73-3.03,0-5.98,.43-8.9,1.13-1.43,.34-2.82,.83-4.1,1.57-1.56,.9-3.08,1.86-4.64,2.75-1.43,.82-2.71,1.89-3.82,3.04-1.5,1.55-2.88,3.24-3.9,5.18-.32,.62-.72,1.2-1.1,1.79-.79,1.21-1.36,2.53-1.66,3.94-.25,1.17-.45,2.36-.68,3.53-.18,.92-.26,1.85-.28,2.78-.04,3.01,.13,5.99,.5,8.98,.35,2.84,1.1,5.48,2.89,7.76,.16,.21,.32,.44,.41,.69,.32,.91,.94,1.61,1.56,2.31,.38,.43,.75,.85,1.05,1.33,.99,1.57,2.29,2.88,3.82,3.88,1.05,.69,2.11,1.39,3.18,2.05,.14,.09,.29,.16,.45,.23,2.21,1.01,4.51,1.82,6.76,2.73,.18,.07,.38,.12,.58,.16,2.36,.47,4.72,.83,7.14,.42,1.41-.24,2.84-.36,4.27-.46,1.55-.11,3.07-.52,4.52-1.17,1.43-.64,2.7-1.59,4.19-2.13,.34-.12,.64-.36,.9-.62,.35-.36,.76-.65,1.18-.92,.8-.49,1.54-1.07,2.15-1.78,1.34-1.56,3.02-2.84,3.96-4.74,.2-.41,.55-.75,.86-1.1,.76-.86,1.35-1.81,1.72-2.9,.27-.79,.59-1.57,1.02-2.28,.98-1.62,1.19-3.45,1.53-5.25,.32-1.75,.07-3.53,.19-5.08h0Z"/>
    <path class="cls-2" d="M57.11,29.7c-.12,1.55,.14,3.33-.19,5.08-.33,1.8-.55,3.62-1.53,5.25-.43,.71-.75,1.5-1.02,2.28-.38,1.1-.96,2.05-1.72,2.9-.31,.35-.66,.69-.86,1.1-.94,1.9-2.62,3.18-3.96,4.74-.61,.71-1.35,1.29-2.15,1.78-.43,.26-.83,.56-1.18,.92-.26,.27-.55,.5-.9,.62-1.49,.53-2.75,1.49-4.19,2.13-1.45,.64-2.97,1.06-4.52,1.17-1.43,.1-2.86,.22-4.27,.46-2.42,.41-4.78,.05-7.14-.42-.2-.04-.39-.08-.58-.16-2.25-.91-4.55-1.72-6.76-2.73-.15-.07-.3-.14-.45-.23-1.07-.66-2.13-1.36-3.18-2.05-1.53-1-2.82-2.31-3.82-3.88-.3-.48-.68-.91-1.05-1.33-.62-.7-1.24-1.4-1.56-2.31-.09-.25-.24-.48-.41-.69-1.79-2.28-2.54-4.92-2.89-7.76-.37-2.99-.55-5.98-.5-8.98,.01-.93,.1-1.86,.28-2.78,.23-1.18,.43-2.36,.68-3.53,.3-1.42,.86-2.73,1.66-3.94,.38-.59,.77-1.17,1.1-1.79,1.02-1.94,2.4-3.64,3.9-5.18,1.12-1.16,2.39-2.22,3.82-3.04,1.56-.89,3.09-1.86,4.64-2.75,1.28-.74,2.67-1.23,4.1-1.57,2.92-.7,5.87-1.12,8.9-1.13,1.96,0,3.83,.27,5.72,.73,2.12,.51,4.16,1.22,6.03,2.34,3.5,2.09,6.59,4.62,8.89,8.05,.82,1.22,1.66,2.4,2.38,3.68,1.77,3.16,2.7,6.5,2.71,10.11,0,.9,0,1.8,0,2.92h0Zm-8.01-19.52c-.34-.34-.54-.55-.75-.76-1.23-1.23-2.69-2.17-4.09-3.18-.92-.66-1.91-1.23-2.95-1.67-2.36-1.01-4.81-1.75-7.37-2.07-1.89-.24-3.79-.18-5.69-.02-1.69,.15-3.34,.53-5,.89-1.61,.35-3.19,.81-4.59,1.64-1.37,.82-2.77,1.59-4.14,2.41-1.61,.97-3.13,2.08-4.4,3.43-1.47,1.57-2.8,3.29-3.84,5.21-.82,1.52-1.92,2.89-2.32,4.62-.25,1.07-.44,2.15-.69,3.22-.69,2.93-.5,5.9-.39,8.86,.07,1.79,.47,3.55,.69,5.33,.21,1.74,.88,3.27,1.72,4.75,.54,.95,1.33,1.75,1.68,2.82,.08,.24,.27,.47,.45,.65,.88,.87,1.58,1.88,2.3,2.89,.28,.39,.61,.65,1.13,.72,.72,.09,1.43,.31,2.14,.48,2.79,.66,5.35,.01,7.55-1.67,1.4-1.08,2.87-2.2,3.75-3.83,.11-.2,.24-.41,.4-.57,1.13-1.17,1.87-2.59,2.53-4.05,.79-1.77,1.44-3.59,1.62-5.54,.18-1.96,.26-3.92,.19-5.89-.07-2.19,.35-4.3,.92-6.4,.58-2.15,1.95-3.87,3.23-5.6,1.67-2.27,3.87-4.03,6.36-5.38,2.21-1.2,4.53-1.92,7.09-1.69,.76,.07,1.49,.31,2.47,.41h0ZM10.78,50.65c.93,.53,1.48,1.2,2.2,1.64,.76,.47,1.56,.87,2.26,1.45,.38,.32,.84,.53,1.3,.73,1.65,.71,3.32,1.36,4.99,2.02,2.76,1.1,5.56,1.56,8.5,1.22,1.09-.13,2.18-.41,3.27-.42,3.03-.02,5.76-.92,8.31-2.5,.34-.21,.67-.43,1.06-.55,.65-.19,1.2-.55,1.7-1.02,.31-.3,.66-.57,1.03-.79,1.02-.6,1.85-1.41,2.64-2.28,1.29-1.43,2.72-2.75,3.64-4.48,.2-.38,.53-.69,.82-1.01,.63-.7,1.07-1.51,1.4-2.4,.34-.9,.71-1.81,1.18-2.65,.89-1.59,1.26-3.33,1.38-5.08,.23-3.39,.38-6.8,.02-10.19-.11-1.05-.2-2.14-.58-3.14-1.05-2.77-2.19-5.51-4.17-7.8-.22-.25-.35-.56-.54-.84-.59-.88-1.3-1.61-2.36-1.88-1.82-.45-3.65-.69-5.52-.18-2.42,.66-4.6,1.79-6.52,3.38-1.38,1.15-2.77,2.31-3.73,3.88-.48,.8-.99,1.59-1.5,2.36-.43,.65-.75,1.33-.99,2.07-.47,1.5-.77,3.03-.94,4.59-.21,1.93-.17,3.86-.16,5.8,0,3.82-1.11,7.31-3.2,10.46-1.31,1.96-2.75,3.83-4.58,5.39-2.67,2.28-5.63,3.21-9.08,2.37-.51-.12-1.02-.26-1.84-.19h0Z"/>
    <path class="cls-3" d="M49.1,10.18c-.98-.1-1.71-.34-2.47-.41-2.56-.23-4.88,.49-7.09,1.69-2.49,1.35-4.69,3.12-6.36,5.38-1.27,1.72-2.64,3.45-3.23,5.6-.57,2.1-.99,4.21-.92,6.4,.06,1.97-.02,3.93-.19,5.89-.18,1.95-.82,3.77-1.62,5.54-.65,1.46-1.39,2.88-2.53,4.05-.16,.17-.29,.37-.4,.57-.88,1.64-2.35,2.76-3.75,3.83-2.2,1.69-4.76,2.34-7.55,1.67-.71-.17-1.42-.39-2.14-.48-.53-.07-.86-.33-1.13-.72-.72-1-1.42-2.01-2.3-2.89-.19-.18-.37-.41-.45-.65-.35-1.07-1.14-1.87-1.68-2.82-.84-1.48-1.51-3.01-1.72-4.75-.22-1.78-.62-3.54-.69-5.33-.11-2.96-.3-5.93,.39-8.86,.25-1.07,.44-2.15,.69-3.22,.4-1.73,1.5-3.1,2.32-4.62,1.04-1.92,2.37-3.65,3.84-5.21,1.27-1.35,2.78-2.46,4.4-3.43,1.37-.83,2.77-1.6,4.14-2.41,1.4-.83,2.98-1.29,4.59-1.64,1.66-.36,3.31-.74,5-.89,1.89-.17,3.79-.22,5.69,.02,2.56,.32,5.01,1.06,7.37,2.07,1.04,.44,2.03,1.01,2.95,1.67,1.4,1.01,2.86,1.94,4.09,3.18,.21,.21,.41,.42,.75,.76h0ZM15.56,35.23c-.86-.14-1.93,.75-2.02,2.28-.06,.87,1.02,1.88,1.98,1.9,.94,.02,2.02-1.14,2.07-2.21,.04-.93-1.01-1.95-2.02-1.96h0Z"/>
    <path class="cls-1" d="M10.78,50.65c.81-.07,1.32,.06,1.84,.19,3.45,.84,6.41-.09,9.08-2.37,1.83-1.56,3.27-3.43,4.58-5.39,2.1-3.15,3.21-6.64,3.2-10.46,0-1.93-.05-3.87,.16-5.8,.17-1.56,.47-3.09,.94-4.59,.23-.74,.56-1.42,.99-2.07,.51-.78,1.02-1.57,1.5-2.36,.96-1.57,2.35-2.73,3.73-3.88,1.91-1.6,4.1-2.72,6.52-3.38,1.86-.51,3.69-.27,5.52,.18,1.07,.26,1.78,1,2.36,1.88,.19,.28,.32,.59,.54,.84,1.98,2.29,3.11,5.02,4.17,7.8,.38,1,.47,2.08,.58,3.14,.36,3.39,.21,6.8-.02,10.19-.12,1.75-.5,3.49-1.38,5.08-.47,.84-.84,1.74-1.18,2.65-.34,.89-.77,1.7-1.4,2.4-.29,.32-.62,.63-.82,1.01-.92,1.73-2.35,3.05-3.64,4.48-.78,.87-1.62,1.68-2.64,2.28-.37,.22-.72,.49-1.03,.79-.49,.47-1.04,.82-1.7,1.02-.39,.12-.72,.34-1.06,.55-2.54,1.58-5.28,2.48-8.31,2.5-1.09,0-2.17,.29-3.27,.42-2.94,.34-5.75-.13-8.5-1.22-1.67-.66-3.34-1.32-4.99-2.02-.46-.2-.92-.42-1.3-.73-.7-.58-1.5-.98-2.26-1.45-.71-.44-1.27-1.11-2.2-1.64h0ZM44.35,25.9c.81-.01,1.7-1.07,1.71-2.03,0-.89-1-1.94-1.84-1.91-.99,.05-1.9,1.12-1.88,2.24,.02,.88,1,1.72,2.01,1.7h0Z"/>
    <path class="cls-2" d="M44.35,25.9c-1.01,.02-1.99-.82-2.01-1.7-.02-1.11,.89-2.19,1.88-2.24,.83-.04,1.84,1.01,1.84,1.91,0,.96-.9,2.02-1.71,2.03h0Zm-.1-.48c.68,.02,1.35-.75,1.37-1.56,0-.53-.82-1.42-1.33-1.43-.74-.01-1.4,.75-1.42,1.64-.02,.75,.58,1.34,1.39,1.36h0Z"/>
    <path class="cls-3" d="M44.24,25.42c-.81-.02-1.41-.61-1.39-1.36,.02-.89,.68-1.65,1.42-1.64,.51,0,1.34,.9,1.33,1.43-.01,.81-.69,1.58-1.37,1.56h0Z"/>
  </g>
  <path class="cls-2" d="M15.59,34.94c1.08,.02,2.2,1.11,2.16,2.1-.04,1.14-1.21,2.39-2.21,2.37-1.03-.02-2.18-1.11-2.12-2.03,.1-1.63,1.25-2.58,2.16-2.43h0Zm0,3.85c.77,0,1.53-.85,1.55-1.72,.02-.78-.84-1.61-1.66-1.59-.72,.01-1.47,.92-1.5,1.81-.03,.79,.74,1.5,1.6,1.5h0Z"/>
</svg>