<?xml version="1.0" encoding="UTF-8"?>
<svg id="helvetica" xmlns="http://www.w3.org/2000/svg" viewBox="0 0 62.4 17">
  <defs>
    <style>
      .cls-1 {
        fill: #fff;
      }
    </style>
  </defs>
  <path class="cls-1" d="M4.55,4.65h2.79l2.33,8.91h.05l2.24-8.91h2.65l2.15,8.91h.05l2.42-8.91h2.68l-3.74,11.93h-2.7l-2.22-8.86h-.05l-2.19,8.86h-2.77L4.55,4.65Z"/>
  <path class="cls-1" d="M29.65,16.9c-.95,0-1.8-.16-2.55-.47-.75-.32-1.38-.75-1.89-1.3-.52-.55-.91-1.22-1.18-1.98-.27-.77-.4-1.61-.4-2.54s.13-1.75,.4-2.52c.27-.77,.66-1.43,1.18-1.98,.52-.55,1.15-.99,1.89-1.3,.75-.32,1.6-.47,2.55-.47s1.8,.16,2.55,.47c.75,.32,1.38,.75,1.89,1.3,.51,.55,.91,1.22,1.18,1.98,.27,.77,.4,1.61,.4,2.52s-.14,1.77-.4,2.54c-.27,.77-.66,1.43-1.18,1.98-.52,.55-1.15,.99-1.89,1.3-.75,.32-1.6,.47-2.55,.47Zm0-2.08c.58,0,1.09-.12,1.52-.37,.43-.25,.78-.57,1.06-.97,.28-.4,.48-.85,.61-1.35,.13-.5,.2-1.01,.2-1.53s-.07-1.02-.2-1.52-.33-.96-.61-1.35c-.28-.39-.63-.71-1.06-.96-.43-.25-.94-.37-1.52-.37s-1.09,.12-1.52,.37c-.43,.25-.78,.57-1.06,.96-.28,.39-.48,.84-.61,1.35s-.2,1.02-.2,1.52,.07,1.03,.2,1.53c.13,.5,.33,.95,.61,1.35,.28,.4,.63,.72,1.06,.97,.43,.25,.94,.37,1.52,.37Z"/>
  <path class="cls-1" d="M38.11,4.65h2.47v2.31h.05c.08-.32,.23-.64,.45-.95,.22-.31,.49-.59,.81-.84,.31-.25,.66-.46,1.05-.61,.38-.15,.78-.23,1.18-.23,.31,0,.52,0,.63,.02,.11,.01,.23,.03,.36,.05v2.54c-.18-.03-.37-.06-.56-.08-.19-.02-.38-.03-.57-.03-.45,0-.87,.09-1.26,.26-.39,.18-.73,.44-1.03,.79s-.52,.77-.69,1.28c-.17,.51-.25,1.09-.25,1.75v5.68h-2.63V4.65Z"/>
  <path class="cls-1" d="M47.26,.1h2.63V9.47l4.75-4.82h3.23l-4.57,4.38,5.01,7.54h-3.21l-3.65-5.79-1.57,1.52v4.27h-2.63V.1Z"/>
</svg>