<?xml version="1.0" encoding="UTF-8"?>
<svg id="pixel" xmlns="http://www.w3.org/2000/svg" viewBox="0 0 62.4 17">
  <defs>
    <style>
      .cls-1 {
        fill: #fff;
      }
    </style>
  </defs>
  <path class="cls-1" d="M14.56,16.63h-2.35V4.85h2.35v1.18h1.18v-1.62h3.39v2.8h-3.39v1.18h-1.18v8.25Z"/>
  <path class="cls-1" d="M28.13,16.63h-5.9v-1.18h-1.18v-1.18h-1.18V7.2h1.18v-1.18h1.18v-1.42h5.9v1.42h1.18v1.18h1.18v4.12h-8.25v1.77h1.18v1.18h3.54v-1.18h3.54v1.18h-1.18v1.18h-1.18v1.18Zm-5.9-7.07h5.9v-1.18h-1.18v-1.18h-3.54v1.18h-1.18v1.18Z"/>
  <path class="cls-1" d="M40.94,16.63h-5.9v-1.18h-1.18v-1.18h-1.18V7.2h1.18v-1.18h1.18v-1.42h5.9v1.42h1.18v1.18h1.18v4.12h-8.25v1.77h1.18v1.18h3.54v-1.18h3.54v1.18h-1.18v1.18h-1.18v1.18Zm-5.9-7.07h5.9v-1.18h-1.18v-1.18h-3.54v1.18h-1.18v1.18Z"/>
  <path class="cls-1" d="M48.22,16.63h-2.35V.13h2.35V16.63Z"/>
</svg>