<?xml version="1.0" encoding="UTF-8"?>
<svg id="helvetica" xmlns="http://www.w3.org/2000/svg" viewBox="0 0 62.4 17">
  <defs>
    <style>
      .cls-1 {
        fill: #fff;
      }
    </style>
  </defs>
  <path class="cls-1" d="M1.66,8.29c.28-2.67,2-4.02,5.2-4.02,1.47,0,2.67,.3,3.54,.87,.87,.6,1.33,1.49,1.33,2.71v6.03c0,.34,.02,.57,.11,.69,.09,.14,.25,.18,.51,.18,.18,0,.37,0,.6-.05v1.84c-.69,.18-1.24,.25-1.7,.25-1.13,0-1.77-.46-1.93-1.43-1.01,.97-2.39,1.43-4.16,1.43-1.24,0-2.21-.3-2.92-.94-.74-.64-1.08-1.5-1.08-2.6,0-.32,.02-.64,.11-.94,.07-.28,.16-.53,.25-.76,.09-.21,.25-.41,.48-.6s.41-.32,.55-.46c.14-.11,.39-.23,.71-.34,.32-.09,.57-.18,.74-.23,.16-.05,.44-.11,.85-.18,.39-.05,.64-.09,.78-.11s.41-.07,.83-.11c.92-.11,1.56-.21,1.91-.3,.32-.09,.55-.21,.69-.39,.09-.11,.16-.39,.16-.85,0-1.2-.83-1.79-2.44-1.79-.87,0-1.49,.16-1.89,.48-.41,.32-.67,.87-.76,1.63H1.66Zm7.54,2.25c-.21,.11-.44,.21-.69,.3-.28,.09-.48,.14-.64,.16-.16,.02-.41,.05-.76,.09-.35,.05-.57,.09-.67,.09-.32,.05-.57,.09-.76,.14-.18,.05-.41,.09-.69,.18s-.48,.21-.62,.35c-.14,.14-.28,.3-.37,.53-.11,.23-.16,.48-.16,.78,0,.57,.18,1.01,.55,1.31,.37,.32,.9,.46,1.59,.46,1.15,0,2.05-.3,2.69-.94,.35-.35,.53-1.03,.53-2.05v-1.4Z"/>
  <path class="cls-1" d="M17.18,.13V6.18c.87-1.22,2.16-1.84,3.89-1.84,1.56,0,2.83,.57,3.79,1.68,.97,1.13,1.45,2.62,1.45,4.46,0,1.93-.51,3.47-1.47,4.62-.99,1.15-2.3,1.73-3.91,1.73-1.79,0-3.11-.64-3.89-1.93v1.61h-2.46V.13h2.6Zm3.22,6.3c-1.04,0-1.84,.37-2.44,1.1-.6,.74-.87,1.77-.87,3.06s.28,2.28,.87,3.01c.6,.74,1.4,1.1,2.44,1.1,.97,0,1.77-.37,2.37-1.13,.6-.76,.9-1.77,.9-3.06s-.3-2.25-.9-2.99c-.6-.74-1.38-1.1-2.37-1.1Z"/>
  <path class="cls-1" d="M34.11,4.29c1.79,0,3.24,.57,4.32,1.7,1.06,1.15,1.61,2.67,1.61,4.58s-.55,3.47-1.61,4.6c-1.06,1.15-2.51,1.7-4.32,1.7s-3.33-.55-4.42-1.7c-1.1-1.13-1.63-2.67-1.63-4.6s.53-3.43,1.63-4.58c1.1-1.13,2.58-1.7,4.42-1.7Zm-.05,2.07c-1.06,0-1.86,.39-2.46,1.13-.6,.76-.9,1.79-.9,3.08s.3,2.39,.9,3.13c.6,.76,1.43,1.13,2.48,1.13s1.82-.37,2.41-1.13c.6-.76,.9-1.82,.9-3.15s-.3-2.32-.9-3.06c-.6-.74-1.4-1.13-2.44-1.13Z"/>
  <path class="cls-1" d="M52.67,4.64v11.87h-2.46v-1.77c-1.01,1.4-2.3,2.09-3.91,2.09-1.31,0-2.32-.37-3.01-1.1-.69-.74-1.04-1.82-1.04-3.22V4.64h2.62v6.78c0,.41,0,.76,.02,1.01,0,.25,.05,.53,.14,.85,.09,.32,.21,.55,.37,.71,.16,.18,.39,.32,.69,.44,.3,.14,.67,.18,1.1,.18,.97,0,1.7-.35,2.16-1.03,.46-.69,.69-1.59,.69-2.67V4.64h2.62Z"/>
  <path class="cls-1" d="M61.25,4.64v1.91h-2.39v6.26c0,.37,0,.64,.02,.78,0,.14,.05,.3,.14,.48,.07,.18,.21,.3,.39,.34,.18,.07,.46,.09,.8,.09,.41,0,.76,0,1.04-.05v2.07c-.53,.07-1.13,.09-1.77,.09-.46,0-.87-.02-1.22-.09-.35-.07-.62-.16-.85-.25-.23-.09-.44-.23-.58-.46-.16-.23-.28-.41-.37-.55-.09-.14-.14-.41-.18-.78-.05-.37-.05-.64-.05-.83V6.55h-1.98v-1.91h1.98V1.07h2.62v3.56h2.39Z"/>
</svg>