<?xml version="1.0" encoding="UTF-8"?>
<svg id="pixel" xmlns="http://www.w3.org/2000/svg" viewBox="0 0 62.4 17">
  <defs>
    <style>
      .cls-1 {
        fill: #fff;
      }
    </style>
  </defs>
  <path class="cls-1" d="M8.64,16.73H3.92v-1.18h-1.18v-1.18H1.57v-2.36h1.18v-1.18h2.35v-1.18h4.72v-1.18h-1.18v-1.18h-3.54v1.18H1.57v-1.18h1.18v-1.18h1.18v-1.18h5.9v1.18h1.18v1.18h1.18v9.43h-2.35v-1.18h-1.18v1.18Zm-4.12-2.35h4.12v-1.18h1.18v-2.36h-1.18v1.18H4.51v2.36Z"/>
  <path class="cls-1" d="M16.93,16.73h-2.35V.23h2.35V6.12h1.18v-1.18h5.63v1.18h1.18v1.18h1.18v7.07h-1.18v1.18h-1.18v1.18h-5.63v-1.18h-1.18v1.18Zm1.18-2.35h4.44v-1.18h1.18v-4.72h-1.18v-1.18h-4.44v1.18h-1.18v4.72h1.18v1.18Z"/>
  <path class="cls-1" d="M37.31,16.73h-6.42v-1.21h-1.28v-1.21h-1.28V7.05h1.28v-1.21h1.28v-1.21h6.42v1.21h1.28v1.21h1.28v7.26h-1.28v1.21h-1.28v1.21Zm-5.14-2.41h3.85v-1.21h1.29v-4.85h-1.29v-1.21h-3.85v1.21h-1.28v4.85h1.28v1.21Z"/>
  <path class="cls-1" d="M48.89,16.73h-4.12v-1.18h-1.18v-1.18h-1.18V4.95h2.35V13.2h1.18v1.18h2.95v-1.18h1.18V4.95h2.36v11.78h-2.36v-1.18h-1.18v1.18Z"/>
  <path class="cls-1" d="M61.06,16.44h-3.54v-1.18h-1.18V6.43h-1.77v-1.76h1.77V1.13h2.36v3.54h2.35v1.76h-2.35v7.66h2.35v2.35Z"/>
</svg>