<?xml version="1.0" encoding="UTF-8"?>
<svg id="helvetica" xmlns="http://www.w3.org/2000/svg" viewBox="0 0 62.4 17">
  <defs>
    <style>
      .cls-1 {
        fill: #fff;
      }
    </style>
  </defs>
  <path class="cls-1" d="M19.12,4.41v2.51c-.46-.05-.78-.07-.92-.07-2.3,0-3.43,1.49-3.43,4.44v5.22h-2.6V4.64h2.46v2.37c.83-1.75,2.16-2.64,3.98-2.64l.51,.05Z"/>
  <path class="cls-1" d="M30.72,12.8c-.3,1.29-.94,2.3-1.91,3.01-.97,.74-2.14,1.08-3.47,1.08-1.79,0-3.22-.58-4.28-1.73-1.06-1.15-1.56-2.65-1.56-4.46s.53-3.38,1.61-4.6c1.08-1.2,2.46-1.82,4.14-1.82s3.11,.6,4.12,1.79c1.01,1.2,1.52,2.81,1.52,4.85v.28h-8.76c.02,1.2,.32,2.14,.9,2.78,.55,.64,1.36,.97,2.37,.97,.71,0,1.29-.16,1.75-.51s.81-.9,1.08-1.66h2.51Zm-2.46-3.33c-.09-.99-.39-1.77-.94-2.35-.55-.58-1.24-.87-2.09-.87s-1.56,.28-2.09,.83c-.53,.55-.85,1.36-.97,2.39h6.09Z"/>
  <path class="cls-1" d="M43.5,12.8c-.3,1.29-.94,2.3-1.91,3.01-.97,.74-2.14,1.08-3.47,1.08-1.79,0-3.22-.58-4.28-1.73-1.06-1.15-1.56-2.65-1.56-4.46s.53-3.38,1.61-4.6c1.08-1.2,2.46-1.82,4.14-1.82s3.11,.6,4.12,1.79c1.01,1.2,1.52,2.81,1.52,4.85v.28h-8.76c.02,1.2,.32,2.14,.9,2.78,.55,.64,1.36,.97,2.37,.97,.71,0,1.29-.16,1.75-.51,.46-.35,.8-.9,1.08-1.66h2.51Zm-2.46-3.33c-.09-.99-.39-1.77-.94-2.35-.55-.58-1.24-.87-2.09-.87s-1.56,.28-2.09,.83c-.53,.55-.85,1.36-.97,2.39h6.09Z"/>
  <path class="cls-1" d="M48.34,.13V16.51h-2.6V.13h2.6Z"/>
</svg>