<?xml version="1.0" encoding="UTF-8"?>
<svg id="pixel" xmlns="http://www.w3.org/2000/svg" viewBox="0 0 60.27 153.98">
  <g>
    <path d="M10.8,153.71h-2.35v-11.78h2.35v1.18h1.18v-1.62h3.39v2.8h-3.39v1.18h-1.18v8.25Z"/>
    <path d="M24.38,153.71h-5.9v-1.18h-1.18v-1.18h-1.18v-7.07h1.18v-1.18h1.18v-1.42h5.9v1.42h1.18v1.18h1.18v4.12h-8.25v1.77h1.18v1.18h3.54v-1.18h3.54v1.18h-1.18v1.18h-1.18v1.18Zm-5.9-7.07h5.9v-1.18h-1.18v-1.18h-3.54v1.18h-1.18v1.18Z"/>
    <path d="M37.18,153.71h-5.9v-1.18h-1.18v-1.18h-1.18v-7.07h1.18v-1.18h1.18v-1.42h5.9v1.42h1.18v1.18h1.18v4.12h-8.25v1.77h1.18v1.18h3.54v-1.18h3.54v1.18h-1.18v1.18h-1.18v1.18Zm-5.9-7.07h5.9v-1.18h-1.18v-1.18h-3.54v1.18h-1.18v1.18Z"/>
    <path d="M44.46,153.71h-2.35v-16.5h2.35v16.5Z"/>
  </g>
  <g>
    <path d="M2.83,75.88H.47v-11.78H2.83v1.18h1.18v-1.18h3.54v1.18h2.36v-1.18h4.71v1.18h1.18v1.18h1.18v9.43h-2.36v-8.25h-1.18v-1.18h-2.36v1.18h-1.18v8.25h-2.36v-8.25h-1.18v-1.18h-2.36v1.18h-1.18v8.25Z"/>
    <path d="M27.83,75.88h-5.9v-1.18h-1.18v-1.18h-1.18v-7.07h1.18v-1.18h1.18v-1.18h5.9v1.18h1.18v1.18h1.18v4.13h-8.25v1.77h1.18v1.18h3.54v-1.18h3.54v1.18h-1.18v1.18h-1.18v1.18Zm-5.9-7.07h5.9v-1.18h-1.19v-1.18h-3.54v1.18h-1.18v1.18Z"/>
    <path d="M35.55,75.88h-2.35v-11.78h2.35v1.18h1.18v-1.18h4.12v1.18h1.18v1.18h1.18v9.43h-2.36v-8.25h-1.18v-1.18h-2.95v1.18h-1.18v8.25Z"/>
    <path d="M52.71,75.88h-4.12v-1.18h-1.18v-1.18h-1.18v-9.43h2.35v8.25h1.18v1.18h2.95v-1.18h1.18v-8.25h2.36v11.78h-2.36v-1.18h-1.18v1.18Z"/>
  </g>
  <g>
    <path d="M7.65,16.6H2.94v-1.18H1.76v-1.18H.59v-2.36H1.76v-1.18h2.35v-1.18h4.72v-1.18h-1.18v-1.18h-3.54v1.18H.59v-1.18H1.76v-1.18h1.18v-1.18h5.9v1.18h1.18v1.18h1.18v9.43h-2.35v-1.18h-1.18v1.18Zm-4.12-2.35H7.65v-1.18h1.18v-2.36h-1.18v1.18H3.53v2.36Z"/>
    <path d="M15.95,16.6h-2.35V.1h2.35V6h1.18v-1.18h5.63v1.18h1.18v1.18h1.18v7.07h-1.18v1.18h-1.18v1.18h-5.63v-1.18h-1.18v1.18Zm1.18-2.35h4.44v-1.18h1.18v-4.72h-1.18v-1.18h-4.44v1.18h-1.18v4.72h1.18v1.18Z"/>
    <path d="M36.33,16.6h-6.42v-1.21h-1.28v-1.21h-1.28V6.92h1.28v-1.21h1.28v-1.21h6.42v1.21h1.28v1.21h1.28v7.26h-1.28v1.21h-1.28v1.21Zm-5.14-2.41h3.85v-1.21h1.29v-4.85h-1.29v-1.21h-3.85v1.21h-1.28v4.85h1.28v1.21Z"/>
    <path d="M47.91,16.6h-4.12v-1.18h-1.18v-1.18h-1.18V4.82h2.35V13.07h1.18v1.18h2.95v-1.18h1.18V4.82h2.36v11.78h-2.36v-1.18h-1.18v1.18Z"/>
    <path d="M60.07,16.31h-3.54v-1.18h-1.18V6.3h-1.77v-1.76h1.77V1h2.36v3.54h2.35v1.76h-2.35v7.66h2.35v2.35Z"/>
  </g>
</svg>