<?xml version="1.0" encoding="UTF-8"?>
<svg id="pixel" xmlns="http://www.w3.org/2000/svg" viewBox="0 0 100.73 23.8">
  <defs>
    <style>
      .cls-1 {
        fill: #fff;
      }
    </style>
  </defs>
  <path class="cls-1" d="M.19,23.56V5.63H3.57v1.28h1.28v-1.28h5.13v1.28h1.28v1.28h1.28v7.69h-1.28v1.28h-1.28v1.28H4.85v-1.28h-1.28v6.4H.19Zm8.5-7.68v-1.28h1.29v-5.13h-1.29v-1.28h-3.84v1.28h-1.28v5.13h1.28v1.28h3.84Z"/>
  <path class="cls-1" d="M15.75,18.44V5.63h2.95v1.28h1.28v-1.28h3.85v2.56h-3.85v1.28h-1.28v8.97h-2.95Z"/>
  <path class="cls-1" d="M27.65,18.44v-1.28h-1.28v-1.28h-1.28v-7.69h1.28v-1.28h1.28v-1.28h6.41v1.28h1.28v1.28h1.28v4.48h-8.97v1.93h1.28v1.28h3.84v-1.28h3.84v1.28h-1.28v1.28h-1.28v1.28h-6.41Zm6.41-7.68v-1.29h-1.29v-1.28h-3.84v1.28h-1.28v1.29h6.41Z"/>
  <path class="cls-1" d="M43.02,18.44v-2.56h-1.29v-2.57h-1.28v-2.56h-1.28v-2.56h-1.28v-2.56h2.56v2.56h1.28v2.56h1.29v2.56h2.56v-2.56h1.29v-2.56h1.28v-2.56h2.56v2.56h-1.28v2.56h-1.28v2.56h-1.28v2.57h-1.29v2.56h-2.56Z"/>
  <path class="cls-1" d="M52.33,3.71V1.15h3.44V3.71h-3.44Zm0,14.73V5.63h3.44v12.8h-3.44Z"/>
  <path class="cls-1" d="M61.72,18.44v-1.28h-1.28v-1.28h-1.28v-7.69h1.28v-1.28h1.28v-1.28h6.41v1.28h1.28v1.28h1.28v7.69h-1.28v1.28h-1.28v1.28h-6.41Zm5.12-2.56v-1.28h1.29v-5.13h-1.29v-1.28h-3.84v1.28h-1.28v5.13h1.28v1.28h3.84Z"/>
  <path class="cls-1" d="M76.93,18.44v-1.28h-1.28v-1.28h-1.72V5.63h3.5V14.6h1.28v1.28h2.71v-1.28h1.28V5.63h3.33v12.8h-3.33v-1.28h-1.28v1.28h-4.48Z"/>
  <path class="cls-1" d="M90.94,18.44v-1.28h-1.28v-1.28h-1.28v-1.28h3.84v1.28h4.48v-2.57h-4.48v-1.28h-2.56v-1.28h-1.28v-2.56h1.28v-1.28h1.28v-1.28h6.41v1.28h1.28v1.28h1.28v1.28h-3.84v-1.28h-4.48v2.56h4.48v1.28h2.57v1.28h1.28v2.57h-1.28v1.28h-1.28v1.28h-6.41Z"/>
</svg>