<?xml version="1.0" encoding="UTF-8"?>
<svg id="helvetica" xmlns="http://www.w3.org/2000/svg" viewBox="0 0 100.73 23.8">
  <defs>
    <style>
      .cls-1 {
        fill: #fff;
      }
    </style>
  </defs>
  <path class="cls-1" d="M3.57,5.59v1.65h.05c.43-.7,.99-1.21,1.65-1.53,.67-.32,1.4-.48,2.2-.48,1.02,0,1.89,.19,2.63,.58,.73,.38,1.34,.89,1.83,1.53,.48,.64,.84,1.37,1.08,2.22,.23,.84,.35,1.72,.35,2.64,0,.87-.12,1.7-.35,2.5-.23,.8-.59,1.51-1.06,2.13-.48,.62-1.07,1.11-1.78,1.48-.71,.37-1.54,.55-2.49,.55-.8,0-1.54-.16-2.22-.49-.68-.33-1.23-.8-1.66-1.44h-.05v6.13H.19V5.59H3.57Zm4.62,10.27c.39-.23,.71-.54,.95-.91,.24-.38,.41-.82,.51-1.31,.1-.5,.15-1.01,.15-1.53s-.05-1.03-.16-1.53c-.11-.5-.29-.95-.54-1.34-.25-.39-.57-.71-.96-.95s-.87-.36-1.44-.36-1.07,.12-1.47,.36-.71,.56-.95,.94c-.24,.38-.41,.83-.51,1.33-.1,.5-.15,1.02-.15,1.55s.05,1.03,.16,1.53c.11,.5,.28,.94,.53,1.31,.24,.37,.56,.68,.96,.91,.4,.23,.88,.35,1.45,.35s1.07-.12,1.47-.35Z"/>
  <path class="cls-1" d="M18.87,5.59v2.4h.05c.17-.4,.39-.77,.68-1.11,.28-.34,.61-.63,.98-.88,.37-.24,.76-.43,1.18-.56,.42-.13,.85-.2,1.3-.2,.23,0,.49,.04,.78,.13v3.3c-.17-.03-.37-.06-.6-.09-.23-.03-.46-.04-.68-.04-.65,0-1.2,.11-1.65,.33-.45,.22-.81,.51-1.09,.89-.28,.37-.47,.81-.59,1.31-.12,.5-.18,1.04-.18,1.63v5.83h-3.56V5.59h3.38Z"/>
  <path class="cls-1" d="M28.59,15.43c.53,.52,1.3,.78,2.3,.78,.72,0,1.33-.18,1.85-.54s.83-.74,.95-1.14h3.13c-.5,1.55-1.27,2.66-2.3,3.33-1.04,.67-2.29,1-3.76,1-1.02,0-1.94-.16-2.75-.49s-1.51-.79-2.08-1.39c-.57-.6-1.01-1.32-1.32-2.15-.31-.83-.46-1.75-.46-2.75s.16-1.87,.48-2.7c.32-.84,.77-1.56,1.35-2.17,.58-.61,1.28-1.09,2.09-1.44,.81-.35,1.71-.53,2.69-.53,1.1,0,2.06,.21,2.88,.64,.82,.43,1.49,1,2.02,1.72s.91,1.54,1.14,2.45c.23,.92,.32,1.88,.25,2.88h-9.34c.05,1.15,.34,1.99,.88,2.5Zm4.02-6.81c-.43-.47-1.07-.7-1.94-.7-.57,0-1.04,.1-1.41,.29s-.68,.43-.9,.71c-.23,.29-.38,.58-.48,.9-.09,.32-.15,.6-.16,.85h5.78c-.17-.9-.46-1.59-.89-2.05Z"/>
  <path class="cls-1" d="M42.36,18.53l-4.43-12.94h3.73l2.73,8.84h.05l2.73-8.84h3.53l-4.38,12.94h-3.96Z"/>
  <path class="cls-1" d="M52.27,3.58V.65h3.56V3.58h-3.56Zm3.56,2v12.94h-3.56V5.59h3.56Z"/>
  <path class="cls-1" d="M58.71,9.25c.32-.84,.77-1.56,1.35-2.15,.58-.59,1.28-1.05,2.1-1.38,.82-.33,1.74-.49,2.75-.49s1.94,.16,2.77,.49c.83,.32,1.53,.78,2.12,1.38,.58,.59,1.04,1.31,1.35,2.15,.32,.84,.48,1.78,.48,2.82s-.16,1.97-.48,2.8-.77,1.55-1.35,2.14c-.58,.59-1.29,1.05-2.12,1.36-.83,.32-1.75,.48-2.77,.48s-1.94-.16-2.75-.48c-.82-.32-1.52-.77-2.1-1.36-.58-.59-1.04-1.31-1.35-2.14-.32-.84-.48-1.77-.48-2.8s.16-1.97,.48-2.82Zm3.23,4.33c.1,.49,.27,.94,.51,1.33,.24,.39,.56,.71,.96,.94,.4,.23,.9,.35,1.5,.35s1.11-.12,1.51-.35c.41-.23,.73-.55,.98-.94,.24-.39,.41-.83,.51-1.33,.1-.49,.15-1,.15-1.51s-.05-1.03-.15-1.53c-.1-.5-.27-.94-.51-1.33-.24-.38-.57-.7-.98-.94-.41-.24-.91-.36-1.51-.36s-1.1,.12-1.5,.36-.72,.56-.96,.94c-.24,.38-.41,.83-.51,1.33s-.15,1.01-.15,1.53,.05,1.02,.15,1.51Z"/>
  <path class="cls-1" d="M82.69,18.53v-1.8h-.08c-.45,.75-1.04,1.29-1.75,1.63-.72,.33-1.45,.5-2.2,.5-.95,0-1.73-.13-2.34-.38-.61-.25-1.09-.6-1.44-1.06-.35-.46-.6-1.02-.74-1.68s-.21-1.39-.21-2.19V5.59h3.56v7.31c0,1.07,.17,1.87,.5,2.39s.93,.79,1.78,.79c.97,0,1.67-.29,2.1-.86,.43-.58,.65-1.52,.65-2.84V5.59h3.55v12.94h-3.38Z"/>
  <path class="cls-1" d="M91.77,15.31c.16,.28,.36,.5,.61,.68s.54,.3,.86,.39c.32,.08,.66,.13,1.01,.13,.25,0,.51-.03,.79-.09,.28-.06,.53-.15,.75-.28,.23-.12,.41-.29,.56-.5,.15-.21,.23-.47,.23-.79,0-.53-.35-.94-1.06-1.2-.71-.27-1.7-.53-2.97-.8-.52-.12-1.02-.25-1.51-.41s-.93-.37-1.31-.63-.69-.58-.93-.98c-.23-.39-.35-.87-.35-1.44,0-.84,.16-1.52,.49-2.05,.32-.53,.75-.96,1.29-1.26,.53-.31,1.13-.53,1.8-.65,.67-.12,1.35-.19,2.05-.19s1.38,.07,2.04,.2c.66,.13,1.25,.36,1.77,.68,.52,.32,.95,.74,1.29,1.27s.55,1.19,.61,1.99h-3.38c-.05-.68-.31-1.15-.78-1.39-.47-.24-1.02-.36-1.65-.36-.2,0-.42,.01-.65,.04-.23,.02-.45,.08-.64,.16s-.35,.2-.49,.36-.2,.37-.2,.64c0,.32,.12,.58,.35,.78,.23,.2,.54,.36,.91,.49,.38,.12,.81,.24,1.29,.34s.98,.21,1.48,.32c.52,.12,1.02,.26,1.51,.43,.49,.17,.93,.39,1.31,.66s.69,.62,.93,1.03c.23,.41,.35,.91,.35,1.51,0,.85-.17,1.56-.51,2.14-.34,.57-.79,1.04-1.34,1.39s-1.18,.6-1.89,.74c-.71,.14-1.43,.21-2.16,.21s-1.49-.08-2.2-.23c-.72-.15-1.36-.4-1.92-.75-.56-.35-1.02-.82-1.38-1.39-.36-.58-.56-1.3-.59-2.17h3.38c0,.38,.08,.71,.24,.99Z"/>
</svg>