<?xml version="1.0" encoding="UTF-8"?>
<svg id="pixel" xmlns="http://www.w3.org/2000/svg" viewBox="0 0 100.73 23.8">
  <defs>
    <style>
      .cls-1 {
        fill: #fff;
      }
    </style>
  </defs>
  <path class="cls-1" d="M50.46,17.27V4.2h3.2v1.31h1.31v-1.31h3.99v1.31h1.31v1.31h1.99v10.46h-3.31V8.11h-1.31v-1.31h-2.68v1.31h-1.31v9.16h-3.2Z"/>
  <path class="cls-1" d="M67.4,17.27v-1.31h-1.31v-1.31h-1.31V6.81h1.31v-1.31h1.31v-1.31h6.54v1.31h1.31v1.31h1.31v4.58h-9.16v1.97h1.31v1.31h3.93v-1.31h3.93v1.31h-1.31v1.31h-1.31v1.31h-6.54Zm6.54-7.84v-1.31h-1.31v-1.31h-3.93v1.31h-1.31v1.31h6.54Z"/>
  <path class="cls-1" d="M77.86,17.27v-1.96h1.31v-1.31h1.31v-1.31h1.31v-1.31h1.31v-1.31h-1.31v-1.31h-1.31v-1.32h-1.31v-1.3h-1.31v-1.96h2.61v1.31h1.31v1.31h1.31v1.31h2.61v-1.31h1.31v-1.31h1.31v-1.31h2.61v1.96h-1.31v1.3h-1.31v1.32h-1.31v1.31h-1.31v1.31h1.31v1.31h1.31v1.31h1.31v1.31h1.31v1.96h-2.61v-1.31h-1.31v-1.31h-1.31v-1.31h-2.61v1.31h-1.31v1.31h-1.31v1.31h-2.61Z"/>
  <path class="cls-1" d="M95.5,17.27v-1.31h-1.89V6.54h-1.96v-1.96h1.96V.65h3.2v3.93h2.61v1.96h-2.61V14.66h2.61v2.61h-3.93Z"/>
</svg>