<?xml version="1.0" encoding="UTF-8"?>
<svg id="helvetica" xmlns="http://www.w3.org/2000/svg" viewBox="0 0 100.73 23.8">
  <defs>
    <style>
      .cls-1 {
        fill: #fff;
      }
    </style>
  </defs>
  <path class="cls-1" d="M53.7,4.32v1.78h.07c.44-.74,1.02-1.28,1.73-1.62,.71-.34,1.43-.51,2.18-.51,.94,0,1.71,.13,2.31,.38s1.08,.61,1.42,1.06,.59,1.01,.73,1.66c.14,.65,.21,1.37,.21,2.16v7.86h-3.51v-7.22c0-1.05-.16-1.84-.49-2.36s-.91-.78-1.76-.78c-.96,0-1.65,.29-2.08,.85-.43,.57-.64,1.51-.64,2.81v6.7h-3.51V4.32h3.34Z"/>
  <path class="cls-1" d="M68.79,14.04c.53,.51,1.29,.77,2.27,.77,.71,0,1.32-.18,1.83-.53s.82-.73,.94-1.12h3.09c-.49,1.53-1.25,2.63-2.27,3.29-1.02,.66-2.26,.99-3.71,.99-1.01,0-1.91-.16-2.72-.48s-1.49-.78-2.05-1.37c-.56-.59-.99-1.3-1.3-2.13-.3-.82-.46-1.73-.46-2.72s.16-1.85,.47-2.67c.31-.82,.76-1.54,1.34-2.14,.58-.6,1.26-1.08,2.06-1.42,.8-.35,1.69-.52,2.66-.52,1.09,0,2.04,.21,2.84,.63,.81,.42,1.47,.99,1.99,1.69s.89,1.52,1.13,2.42c.23,.91,.31,1.86,.25,2.84h-9.22c.05,1.14,.34,1.96,.87,2.47Zm3.97-6.72c-.42-.46-1.06-.69-1.92-.69-.56,0-1.03,.09-1.4,.28s-.67,.42-.89,.7c-.22,.28-.38,.58-.47,.89-.09,.31-.14,.59-.16,.84h5.71c-.16-.89-.46-1.57-.88-2.03Z"/>
  <path class="cls-1" d="M78.28,4.32h4.01l2.25,3.34,2.23-3.34h3.88l-4.2,5.98,4.72,6.8h-4.01l-2.67-4.03-2.67,4.03h-3.93l4.6-6.72-4.2-6.06Z"/>
  <path class="cls-1" d="M99.52,4.32v2.35h-2.57v6.33c0,.59,.1,.99,.3,1.19,.2,.2,.59,.3,1.19,.3,.2,0,.39,0,.57-.02,.18-.02,.35-.04,.52-.07v2.72c-.3,.05-.63,.08-.99,.1-.36,.02-.72,.02-1.06,.02-.54,0-1.06-.04-1.55-.11-.49-.07-.91-.22-1.29-.43-.37-.21-.66-.52-.88-.92-.21-.39-.32-.91-.32-1.56V6.67h-2.13v-2.35h2.13V.49h3.51v3.83h2.57Z"/>
</svg>