<?xml version="1.0" encoding="utf-8"?>
<!-- Generator: Adobe Illustrator 27.0.0, SVG Export Plug-In . SVG Version: 6.00 Build 0)  -->
<svg version="1.1" id="helvetica" xmlns="http://www.w3.org/2000/svg" xmlns:xlink="http://www.w3.org/1999/xlink" x="0px" y="0px"
	 viewBox="0 0 62.4 17" style="enable-background:new 0 0 62.4 17;" xml:space="preserve">
<style type="text/css">
	.st0{fill:#FFFFFF;}
</style>
<g>
	<path class="st0" d="M40.4,7.4c0.4,0,0.8-0.1,1.1-0.3c0.3-0.1,0.6-0.3,0.8-0.6s0.3-0.6,0.3-1.1c0-0.7-0.2-1.2-0.7-1.5
		s-1-0.5-1.5-0.5c-0.8,0-1.4,0.3-1.8,0.8c-0.4,0.5-0.6,1.2-0.6,2h-3c0-0.8,0.2-1.6,0.4-2.2c0.3-0.7,0.6-1.2,1.1-1.7s1-0.9,1.7-1.1
		c0.7-0.3,1.4-0.4,2.2-0.4c0.6,0,1.3,0.1,1.9,0.3c0.6,0.2,1.2,0.5,1.7,0.8s0.9,0.8,1.2,1.4c0.3,0.5,0.5,1.2,0.5,1.9
		c0,0.8-0.2,1.4-0.5,2s-0.9,1-1.6,1.2v0.1c0.9,0.2,1.5,0.6,2,1.3s0.7,1.4,0.7,2.3c0,0.8-0.2,1.6-0.5,2.2s-0.8,1.2-1.3,1.6
		c-0.5,0.4-1.2,0.8-1.9,1c-0.7,0.2-1.4,0.3-2.2,0.3c-0.9,0-1.7-0.1-2.4-0.4s-1.3-0.6-1.9-1.1c-0.5-0.5-0.9-1.1-1.2-1.8
		c-0.3-0.7-0.4-1.5-0.4-2.4h3c0,0.4,0.1,0.8,0.2,1.2s0.3,0.7,0.5,1c0.2,0.3,0.5,0.5,0.8,0.7c0.3,0.2,0.7,0.2,1.2,0.2
		c0.7,0,1.3-0.2,1.8-0.7c0.5-0.4,0.7-1,0.7-1.8c0-0.6-0.1-1.1-0.4-1.4s-0.5-0.5-0.9-0.7c-0.4-0.1-0.8-0.2-1.2-0.2s-0.8,0-1.2,0V7.5
		C39.7,7.5,40,7.5,40.4,7.4L40.4,7.4z"/>
	<path class="st0" d="M55.1,0.8c1,0,2,0.2,2.9,0.5s1.7,0.8,2.3,1.5s1.2,1.5,1.5,2.5s0.5,2.2,0.5,3.5c0,1.2-0.2,2.2-0.5,3.2
		s-0.8,1.8-1.4,2.6c-0.6,0.7-1.4,1.3-2.3,1.7c-0.9,0.4-2,0.6-3.2,0.6h-6.9v-16H55.1L55.1,0.8z M54.9,13.8c0.5,0,1-0.1,1.5-0.2
		c0.5-0.2,0.9-0.4,1.3-0.8s0.7-0.9,0.9-1.5c0.2-0.6,0.3-1.4,0.3-2.2c0-0.8-0.1-1.5-0.2-2.2s-0.4-1.2-0.8-1.7S57,4.4,56.5,4.1
		c-0.6-0.2-1.3-0.4-2.2-0.4h-2.5v10.1H54.9L54.9,13.8z"/>
</g>
</svg>
