<?xml version="1.0" encoding="utf-8"?>
<!-- Generator: Adobe Illustrator 27.0.0, SVG Export Plug-In . SVG Version: 6.00 Build 0)  -->
<svg version="1.1" id="pixel" xmlns="http://www.w3.org/2000/svg" xmlns:xlink="http://www.w3.org/1999/xlink" x="0px" y="0px"
	 viewBox="0 0 62.4 17" style="enable-background:new 0 0 62.4 17;" xml:space="preserve">
<style type="text/css">
	.st0{fill:#FFFFFF;}
</style>
<g>
	<path class="st0" d="M39.6,16.9v-1.1h-1.1v-1.1h-1.1v-2.2h2.2v1.1h1.1v1.1h3.4v-1.1h1.1v-2.8h-1.1V9.6h-3.4V7.9h3.4V6.8h1.1V4.6
		h-1.1V3.5h-3.4v1.1h-1.1v1.1h-2.2V3.5h1.1V2.3h1.1V1.2h5.6v1.1h1.1v1.1h1.1v4.5h-1.1v1.7h1.1v5h-1.1v1.1h-1.1v1.1L39.6,16.9
		L39.6,16.9z"/>
	<path class="st0" d="M50.1,16.9V1.2h9v1.1h1.1v1.1h1.1v1.1h1.1v9h-1.1v1.1h-1.1v1.1H59v1.1L50.1,16.9L50.1,16.9z M57.9,14.6v-1.1
		H59v-1.1h1.1V5.7H59V4.6h-1.1V3.4h-4.6v11.2L57.9,14.6L57.9,14.6z"/>
</g>
</svg>
