<?xml version="1.0" encoding="utf-8"?>
<!-- Generator: Adobe Illustrator 27.0.0, SVG Export Plug-In . SVG Version: 6.00 Build 0)  -->
<svg version="1.1" id="helvetica" xmlns="http://www.w3.org/2000/svg" xmlns:xlink="http://www.w3.org/1999/xlink" x="0px" y="0px"
	 viewBox="0 0 62.4 17" style="enable-background:new 0 0 62.4 17;" xml:space="preserve">
<style type="text/css">
	.st0{fill:#FFFFFF;}
</style>
<g>
	<path class="st0" d="M35.3,4.3c0.2-0.8,0.6-1.4,1.1-2c0.5-0.6,1.1-1,1.8-1.4c0.7-0.3,1.6-0.5,2.5-0.5c0.7,0,1.4,0.1,2,0.3
		c0.7,0.2,1.2,0.5,1.7,1c0.5,0.4,0.9,0.9,1.2,1.5s0.4,1.3,0.4,2.1s-0.1,1.5-0.4,2s-0.6,1.1-1,1.5s-0.9,0.8-1.4,1.2
		c-0.5,0.4-1.1,0.7-1.6,1.1c-0.5,0.4-1.1,0.7-1.6,1.1c-0.5,0.4-1,0.9-1.3,1.4h7.4v2.7H34.7c0-0.9,0.1-1.7,0.4-2.4s0.6-1.3,1.1-1.8
		c0.5-0.5,1-1,1.6-1.5c0.6-0.4,1.2-0.9,1.9-1.4C40,9.2,40.3,9,40.7,8.7s0.7-0.5,1.1-0.8c0.3-0.3,0.6-0.6,0.8-1s0.3-0.8,0.3-1.3
		c0-0.8-0.2-1.4-0.7-1.8c-0.4-0.4-1-0.6-1.7-0.6c-0.5,0-0.9,0.1-1.2,0.3S38.8,4,38.6,4.4s-0.3,0.7-0.4,1.2s-0.1,0.8-0.1,1.3h-3
		C35,5.9,35.1,5.1,35.3,4.3L35.3,4.3z"/>
	<path class="st0" d="M55.1,0.5c1,0,2,0.2,2.9,0.5s1.7,0.8,2.3,1.5s1.2,1.5,1.5,2.5s0.5,2.2,0.5,3.5c0,1.2-0.2,2.2-0.5,3.2
		s-0.8,1.8-1.4,2.6c-0.6,0.7-1.4,1.3-2.3,1.7c-0.9,0.4-2,0.6-3.2,0.6h-6.9v-16H55.1L55.1,0.5z M54.9,13.6c0.5,0,1-0.1,1.5-0.2
		c0.5-0.2,0.9-0.4,1.3-0.8s0.7-0.9,0.9-1.5c0.2-0.6,0.3-1.4,0.3-2.2c0-0.8-0.1-1.5-0.2-2.2s-0.4-1.2-0.8-1.7S57,4.1,56.5,3.8
		c-0.6-0.2-1.3-0.4-2.2-0.4h-2.5v10.1H54.9L54.9,13.6z"/>
</g>
</svg>
