<?xml version="1.0" encoding="utf-8"?>
<!-- Generator: Adobe Illustrator 27.0.0, SVG Export Plug-In . SVG Version: 6.00 Build 0)  -->
<svg version="1.1" id="pixel" xmlns="http://www.w3.org/2000/svg" xmlns:xlink="http://www.w3.org/1999/xlink" x="0px" y="0px"
	 viewBox="0 0 62.4 17" style="enable-background:new 0 0 62.4 17;" xml:space="preserve">
<style type="text/css">
	.st0{fill:#FFFFFF;}
</style>
<g>
	<path class="st0" d="M37.8,16.7v-3.4h1.1v-1.1H40v-1.1h1.1V10h1.1V8.9h1.1V7.7h1.1V6.6h1.1V4.4h-1.1V3.3h-3.4v1.1H40v1.1h-2.2V3.2
		h1.1V2.1H40V1h5.6v1.1h1.1v1.1h1.1v4.5h-1.1v1.1h-1.1V10h-1.1v1.1h-1.1v1.1h-1.1v1.1h-1.1v1.1h6.7v2.2L37.8,16.7L37.8,16.7z"/>
	<path class="st0" d="M50.1,16.7V1h9v1.1h1.1v1.1h1.1v1.1h1.1v9h-1.1v1.1h-1.1v1.1H59v1.1C59,16.7,50.1,16.7,50.1,16.7z M57.9,14.5
		v-1.1H59v-1.1h1.1V5.5H59V4.4h-1.1V3.2h-4.7v11.2C53.2,14.4,57.9,14.4,57.9,14.5z"/>
</g>
</svg>
