<?xml version="1.0" encoding="utf-8"?>
<!-- Generator: Adobe Illustrator 27.0.0, SVG Export Plug-In . SVG Version: 6.00 Build 0)  -->
<svg version="1.1" id="Capa_1" xmlns="http://www.w3.org/2000/svg" xmlns:xlink="http://www.w3.org/1999/xlink" x="0px" y="0px"
	 viewBox="0 0 284 50" style="enable-background:new 0 0 284 50;" xml:space="preserve">
<style type="text/css">
	.st0{fill:#606060;}
</style>
<path d="M224.3,8.8c0.3-2.7,2-4,5.2-4c1.5,0,2.7,0.3,3.5,0.9c0.9,0.6,1.3,1.5,1.3,2.7v6c0,0.3,0,0.6,0.1,0.7
	c0.1,0.1,0.3,0.2,0.5,0.2c0.2,0,0.4,0,0.6,0V17c-0.7,0.2-1.2,0.3-1.7,0.3c-1.1,0-1.8-0.5-1.9-1.4c-1,1-2.4,1.4-4.2,1.4
	c-1.2,0-2.2-0.3-2.9-0.9c-0.7-0.6-1.1-1.5-1.1-2.6c0-0.3,0-0.6,0.1-0.9c0.1-0.3,0.2-0.5,0.3-0.8c0.1-0.2,0.3-0.4,0.5-0.6
	s0.4-0.3,0.6-0.5c0.1-0.1,0.4-0.2,0.7-0.3c0.3-0.1,0.6-0.2,0.7-0.2c0.2,0,0.4-0.1,0.9-0.2c0.4,0,0.6-0.1,0.8-0.1s0.4-0.1,0.8-0.1
	c0.9-0.1,1.6-0.2,1.9-0.3c0.3-0.1,0.6-0.2,0.7-0.4c0.1-0.1,0.2-0.4,0.2-0.9c0-1.2-0.8-1.8-2.4-1.8c-0.9,0-1.5,0.2-1.9,0.5
	c-0.4,0.3-0.7,0.9-0.8,1.6H224.3z M231.8,11c-0.2,0.1-0.4,0.2-0.7,0.3c-0.3,0.1-0.5,0.1-0.6,0.2c-0.2,0-0.4,0-0.8,0.1
	c-0.3,0-0.6,0.1-0.7,0.1c-0.3,0-0.6,0.1-0.8,0.1c-0.2,0-0.4,0.1-0.7,0.2s-0.5,0.2-0.6,0.3c-0.1,0.1-0.3,0.3-0.4,0.5
	c-0.1,0.2-0.2,0.5-0.2,0.8c0,0.6,0.2,1,0.6,1.3c0.4,0.3,0.9,0.5,1.6,0.5c1.1,0,2-0.3,2.7-0.9c0.3-0.3,0.5-1,0.5-2V11z"/>
<path d="M239.8,0.6v6c0.9-1.2,2.2-1.8,3.9-1.8c1.6,0,2.8,0.6,3.8,1.7c1,1.1,1.4,2.6,1.4,4.5c0,1.9-0.5,3.5-1.5,4.6
	c-1,1.1-2.3,1.7-3.9,1.7c-1.8,0-3.1-0.6-3.9-1.9V17h-2.5V0.6H239.8z M243,6.9c-1,0-1.8,0.4-2.4,1.1c-0.6,0.7-0.9,1.8-0.9,3.1
	c0,1.3,0.3,2.3,0.9,3c0.6,0.7,1.4,1.1,2.4,1.1c1,0,1.8-0.4,2.4-1.1c0.6-0.8,0.9-1.8,0.9-3.1c0-1.2-0.3-2.3-0.9-3
	C244.8,7.3,244,6.9,243,6.9z"/>
<path d="M256.7,4.8c1.8,0,3.2,0.6,4.3,1.7c1.1,1.2,1.6,2.7,1.6,4.6c0,1.9-0.6,3.5-1.6,4.6c-1.1,1.1-2.5,1.7-4.3,1.7
	c-1.9,0-3.3-0.6-4.4-1.7c-1.1-1.1-1.6-2.7-1.6-4.6c0-1.9,0.5-3.4,1.6-4.6C253.4,5.4,254.9,4.8,256.7,4.8z M256.7,6.9
	c-1.1,0-1.9,0.4-2.5,1.1c-0.6,0.8-0.9,1.8-0.9,3.1c0,1.3,0.3,2.4,0.9,3.1c0.6,0.8,1.4,1.1,2.5,1.1c1,0,1.8-0.4,2.4-1.1
	c0.6-0.8,0.9-1.8,0.9-3.2c0-1.3-0.3-2.3-0.9-3.1C258.5,7.2,257.7,6.9,256.7,6.9z"/>
<path d="M275.3,5.1V17h-2.5v-1.8c-1,1.4-2.3,2.1-3.9,2.1c-1.3,0-2.3-0.4-3-1.1c-0.7-0.7-1-1.8-1-3.2V5.1h2.6v6.8c0,0.4,0,0.8,0,1
	c0,0.3,0,0.5,0.1,0.9c0.1,0.3,0.2,0.6,0.4,0.7c0.2,0.2,0.4,0.3,0.7,0.4c0.3,0.1,0.7,0.2,1.1,0.2c1,0,1.7-0.3,2.2-1
	c0.5-0.7,0.7-1.6,0.7-2.7V5.1H275.3z"/>
<path d="M283.9,5.1V7h-2.4v6.3c0,0.4,0,0.6,0,0.8c0,0.1,0,0.3,0.1,0.5c0.1,0.2,0.2,0.3,0.4,0.3c0.2,0.1,0.5,0.1,0.8,0.1
	c0.4,0,0.8,0,1,0V17c-0.5,0.1-1.1,0.1-1.8,0.1c-0.5,0-0.9,0-1.2-0.1c-0.3-0.1-0.6-0.2-0.9-0.3c-0.2-0.1-0.4-0.2-0.6-0.5
	c-0.2-0.2-0.3-0.4-0.4-0.6c-0.1-0.1-0.1-0.4-0.2-0.8c0-0.4,0-0.6,0-0.8V7h-2V5.1h2V1.6h2.6v3.6H283.9z"/>
<path d="M95.9,5.1v1.7c1-1.3,2.2-2,3.7-2c0.8,0,1.4,0.2,2,0.5c0.6,0.4,1,0.9,1.3,1.5c0.9-1.3,2.2-2,3.8-2c1.1,0,2,0.3,2.8,1
	s1.1,1.6,1.1,2.8V17H108V9.7c0-0.8-0.2-1.5-0.4-2c-0.3-0.5-0.9-0.7-1.7-0.7c-0.9,0-1.5,0.3-1.9,0.8c-0.5,0.5-0.7,1.3-0.7,2.2v7h-2.6
	V9.6c0-0.8-0.1-1.5-0.4-1.9C100.1,7.2,99.5,7,98.7,7c-0.9,0-1.6,0.3-2,0.9S96,9.2,96,10.2V17h-2.6V5.1H95.9z"/>
<path d="M124,13.3c-0.3,1.3-0.9,2.3-1.9,3c-1,0.7-2.1,1.1-3.5,1.1c-1.8,0-3.2-0.6-4.3-1.7s-1.6-2.6-1.6-4.5c0-1.8,0.5-3.4,1.6-4.6
	c1.1-1.2,2.5-1.8,4.1-1.8c1.7,0,3.1,0.6,4.1,1.8s1.5,2.8,1.5,4.9v0.3h-8.8c0,1.2,0.3,2.1,0.9,2.8c0.6,0.6,1.4,1,2.4,1
	c0.7,0,1.3-0.2,1.7-0.5s0.8-0.9,1.1-1.7H124z M121.6,10c-0.1-1-0.4-1.8-0.9-2.3c-0.6-0.6-1.2-0.9-2.1-0.9c-0.9,0-1.6,0.3-2.1,0.8
	s-0.9,1.4-1,2.4H121.6z"/>
<path d="M128.7,5.1v1.7c0.9-1.4,2.3-2.1,3.9-2.1c1.3,0,2.3,0.4,3,1.1c0.7,0.7,1,1.8,1,3.2V17H134v-6.9c0-0.5,0-0.9-0.1-1.2
	c0-0.3-0.2-0.6-0.3-1s-0.4-0.6-0.7-0.7c-0.3-0.2-0.7-0.3-1.2-0.3c-1.9,0-2.9,1.2-2.9,3.6V17h-2.6V5.1H128.7z"/>
<path d="M149.8,5.1V17h-2.5v-1.8c-1,1.4-2.3,2.1-3.9,2.1c-1.3,0-2.3-0.4-3-1.1c-0.7-0.7-1-1.8-1-3.2V5.1h2.6v6.8c0,0.4,0,0.8,0,1
	c0,0.3,0,0.5,0.1,0.9c0.1,0.3,0.2,0.6,0.4,0.7c0.2,0.2,0.4,0.3,0.7,0.4c0.3,0.1,0.7,0.2,1.1,0.2c1,0,1.7-0.3,2.2-1
	c0.5-0.7,0.7-1.6,0.7-2.7V5.1H149.8z"/>
<path class="st0" d="M15,18.3v2.5c-0.5,0-0.8-0.1-0.9-0.1c-2.3,0-3.4,1.5-3.4,4.4v5.2H8V18.5h2.5v2.4c0.8-1.7,2.2-2.6,4-2.6L15,18.3
	z"/>
<path class="st0" d="M26.6,26.7c-0.3,1.3-0.9,2.3-1.9,3c-1,0.7-2.1,1.1-3.5,1.1c-1.8,0-3.2-0.6-4.3-1.7c-1.1-1.2-1.6-2.6-1.6-4.5
	c0-1.8,0.5-3.4,1.6-4.6c1.1-1.2,2.5-1.8,4.1-1.8c1.7,0,3.1,0.6,4.1,1.8c1,1.2,1.5,2.8,1.5,4.9v0.3H18c0,1.2,0.3,2.1,0.9,2.8
	c0.6,0.6,1.4,1,2.4,1c0.7,0,1.3-0.2,1.7-0.5c0.5-0.3,0.8-0.9,1.1-1.7H26.6z M24.1,23.4c-0.1-1-0.4-1.8-0.9-2.3
	c-0.6-0.6-1.2-0.9-2.1-0.9c-0.9,0-1.6,0.3-2.1,0.8c-0.5,0.6-0.9,1.4-1,2.4H24.1z"/>
<path class="st0" d="M39.3,26.7c-0.3,1.3-0.9,2.3-1.9,3c-1,0.7-2.1,1.1-3.5,1.1c-1.8,0-3.2-0.6-4.3-1.7c-1.1-1.2-1.6-2.6-1.6-4.5
	c0-1.8,0.5-3.4,1.6-4.6c1.1-1.2,2.5-1.8,4.1-1.8c1.7,0,3.1,0.6,4.1,1.8c1,1.2,1.5,2.8,1.5,4.9v0.3h-8.8c0,1.2,0.3,2.1,0.9,2.8
	c0.6,0.6,1.4,1,2.4,1c0.7,0,1.3-0.2,1.7-0.5c0.5-0.3,0.8-0.9,1.1-1.7H39.3z M36.9,23.4c-0.1-1-0.4-1.8-0.9-2.3
	c-0.6-0.6-1.2-0.9-2.1-0.9c-0.9,0-1.6,0.3-2.1,0.8c-0.5,0.6-0.9,1.4-1,2.4H36.9z"/>
<path class="st0" d="M44.2,14v16.4h-2.6V14H44.2z"/>
<path class="st0" d="M231.2,17.2h-4.7V16h-1.2v-1.2h-1.2v-2.4h1.2v-1.2h2.4v-1.2h4.7V9h-1.2V7.8h-3.5V9h-3.5V7.8h1.2V6.6h1.2V5.4
	h5.9v1.2h1.2v1.2h1.2v9.4h-2.4V16h-1.2V17.2z M227.1,14.9h4.1v-1.2h1.2v-2.4h-1.2v1.2h-4.1V14.9z"/>
<path class="st0" d="M239.5,17.2h-2.4V0.7h2.4v5.9h1.2V5.4h5.6v1.2h1.2v1.2h1.2v7.1h-1.2V16h-1.2v1.2h-5.6V16h-1.2V17.2z
	 M240.7,14.9h4.4v-1.2h1.2V9h-1.2V7.8h-4.4V9h-1.2v4.7h1.2V14.9z"/>
<path class="st0" d="M259.9,17.2h-6.4V16h-1.3v-1.2h-1.3V7.5h1.3V6.3h1.3V5.1h6.4v1.2h1.3v1.2h1.3v7.3h-1.3V16h-1.3V17.2z
	 M254.8,14.8h3.9v-1.2h1.3V8.8h-1.3V7.5h-3.9v1.2h-1.3v4.8h1.3V14.8z"/>
<path class="st0" d="M271.5,17.2h-4.1V16h-1.2v-1.2H265V5.4h2.4v8.2h1.2v1.2h2.9v-1.2h1.2V5.4h2.4v11.8h-2.4V16h-1.2V17.2z"/>
<path class="st0" d="M283.7,16.9h-3.5v-1.2h-1.2V6.9h-1.8V5.2h1.8V1.6h2.4v3.5h2.4v1.8h-2.4v7.7h2.4V16.9z"/>
<path class="st0" d="M96.2,17h-2.4V5.2h2.4v1.2h1.2V5.2h3.5v1.2h2.4V5.2h4.7v1.2h1.2v1.2h1.2V17H108V8.7h-1.2V7.6h-2.4v1.2h-1.2V17
	h-2.4V8.7h-1.2V7.6h-2.4v1.2h-1.2V17z"/>
<path class="st0" d="M121.2,17h-5.9v-1.2h-1.2v-1.2H113V7.6h1.2V6.4h1.2V5.2h5.9v1.2h1.2v1.2h1.2v4.1h-8.2v1.8h1.2v1.2h3.5v-1.2h3.5
	v1.2h-1.2v1.2h-1.2V17z M115.3,9.9h5.9V8.7H120V7.6h-3.5v1.2h-1.2V9.9z"/>
<path class="st0" d="M128.9,17h-2.4V5.2h2.4v1.2h1.2V5.2h4.1v1.2h1.2v1.2h1.2V17h-2.4V8.7h-1.2V7.6h-2.9v1.2h-1.2V17z"/>
<path class="st0" d="M146.1,17H142v-1.2h-1.2v-1.2h-1.2V5.2h2.4v8.2h1.2v1.2h2.9v-1.2h1.2V5.2h2.4V17h-2.4v-1.2h-1.2V17z"/>
<path d="M10.4,30.3H8V18.5h2.4v1.2h1.2v-1.2h2.9v2.4h-2.9V22h-1.2V30.3z"/>
<path d="M24,30.3h-5.9v-1.2h-1.2v-1.2h-1.2v-7.1h1.2v-1.2h1.2v-1.2H24v1.2h1.2v1.2h1.2V25h-8.2v1.8h1.2v1.2h3.5v-1.2h3.5v1.2h-1.2
	v1.2H24V30.3z M18.1,23.2H24V22h-1.2v-1.2h-3.5V22h-1.2V23.2z"/>
<path d="M36.8,30.3h-5.9v-1.2h-1.2v-1.2h-1.2v-7.1h1.2v-1.2h1.2v-1.2h5.9v1.2H38v1.2h1.2V25h-8.3v1.8h1.2v1.2h3.5v-1.2h3.5v1.2H38
	v1.2h-1.2V30.3z M30.9,23.2h5.9V22h-1.2v-1.2h-3.5V22h-1.2V23.2z"/>
<path d="M44.1,30.3h-2.4V13.8h2.4V30.3z"/>
<path d="M224.3-74.9c0.3-2.7,2-4,5.2-4c1.5,0,2.7,0.3,3.5,0.9c0.9,0.6,1.3,1.5,1.3,2.7v6c0,0.3,0,0.6,0.1,0.7
	c0.1,0.1,0.3,0.2,0.5,0.2c0.2,0,0.4,0,0.6,0v1.8c-0.7,0.2-1.2,0.3-1.7,0.3c-1.1,0-1.8-0.5-1.9-1.4c-1,1-2.4,1.4-4.2,1.4
	c-1.2,0-2.2-0.3-2.9-0.9c-0.7-0.6-1.1-1.5-1.1-2.6c0-0.3,0-0.6,0.1-0.9c0.1-0.3,0.2-0.5,0.3-0.8c0.1-0.2,0.3-0.4,0.5-0.6
	s0.4-0.3,0.6-0.5c0.1-0.1,0.4-0.2,0.7-0.3c0.3-0.1,0.6-0.2,0.7-0.2c0.2,0,0.4-0.1,0.9-0.2c0.4,0,0.6-0.1,0.8-0.1
	c0.1,0,0.4-0.1,0.8-0.1c0.9-0.1,1.6-0.2,1.9-0.3c0.3-0.1,0.6-0.2,0.7-0.4c0.1-0.1,0.2-0.4,0.2-0.9c0-1.2-0.8-1.8-2.4-1.8
	c-0.9,0-1.5,0.2-1.9,0.5c-0.4,0.3-0.7,0.9-0.8,1.6H224.3z M231.8-72.7c-0.2,0.1-0.4,0.2-0.7,0.3c-0.3,0.1-0.5,0.1-0.6,0.2
	c-0.2,0-0.4,0-0.8,0.1c-0.3,0-0.6,0.1-0.7,0.1c-0.3,0-0.6,0.1-0.8,0.1c-0.2,0-0.4,0.1-0.7,0.2c-0.3,0.1-0.5,0.2-0.6,0.3
	s-0.3,0.3-0.4,0.5c-0.1,0.2-0.2,0.5-0.2,0.8c0,0.6,0.2,1,0.6,1.3c0.4,0.3,0.9,0.5,1.6,0.5c1.1,0,2-0.3,2.7-0.9c0.3-0.3,0.5-1,0.5-2
	V-72.7z"/>
<path d="M239.8-83.1v6c0.9-1.2,2.2-1.8,3.9-1.8c1.6,0,2.8,0.6,3.8,1.7c1,1.1,1.4,2.6,1.4,4.5c0,1.9-0.5,3.5-1.5,4.6
	c-1,1.2-2.3,1.7-3.9,1.7c-1.8,0-3.1-0.6-3.9-1.9v1.6h-2.5v-16.4H239.8z M243-76.8c-1,0-1.8,0.4-2.4,1.1c-0.6,0.7-0.9,1.8-0.9,3.1
	c0,1.3,0.3,2.3,0.9,3c0.6,0.7,1.4,1.1,2.4,1.1c1,0,1.8-0.4,2.4-1.1c0.6-0.8,0.9-1.8,0.9-3.1c0-1.2-0.3-2.3-0.9-3
	C244.8-76.4,244-76.8,243-76.8z"/>
<path d="M256.7-79c1.8,0,3.2,0.6,4.3,1.7c1.1,1.2,1.6,2.7,1.6,4.6c0,1.9-0.6,3.5-1.6,4.6c-1.1,1.2-2.5,1.7-4.3,1.7
	c-1.9,0-3.3-0.6-4.4-1.7c-1.1-1.1-1.6-2.7-1.6-4.6c0-1.9,0.5-3.4,1.6-4.6C253.4-78.4,254.9-79,256.7-79z M256.7-76.9
	c-1.1,0-1.9,0.4-2.5,1.1c-0.6,0.8-0.9,1.8-0.9,3.1c0,1.3,0.3,2.4,0.9,3.1c0.6,0.8,1.4,1.1,2.5,1.1c1,0,1.8-0.4,2.4-1.1
	c0.6-0.8,0.9-1.8,0.9-3.2c0-1.3-0.3-2.3-0.9-3.1C258.5-76.5,257.7-76.9,256.7-76.9z"/>
<path d="M275.3-78.6v11.9h-2.5v-1.8c-1,1.4-2.3,2.1-3.9,2.1c-1.3,0-2.3-0.4-3-1.1c-0.7-0.7-1-1.8-1-3.2v-7.9h2.6v6.8
	c0,0.4,0,0.8,0,1c0,0.3,0,0.5,0.1,0.9s0.2,0.6,0.4,0.7c0.2,0.2,0.4,0.3,0.7,0.4c0.3,0.1,0.7,0.2,1.1,0.2c1,0,1.7-0.3,2.2-1
	c0.5-0.7,0.7-1.6,0.7-2.7v-6.3H275.3z"/>
<path d="M283.9-78.6v1.9h-2.4v6.3c0,0.4,0,0.6,0,0.8c0,0.1,0,0.3,0.1,0.5c0.1,0.2,0.2,0.3,0.4,0.3c0.2,0.1,0.5,0.1,0.8,0.1
	c0.4,0,0.8,0,1,0v2.1c-0.5,0.1-1.1,0.1-1.8,0.1c-0.5,0-0.9,0-1.2-0.1c-0.3-0.1-0.6-0.2-0.9-0.3c-0.2-0.1-0.4-0.2-0.6-0.5
	c-0.2-0.2-0.3-0.4-0.4-0.6c-0.1-0.1-0.1-0.4-0.2-0.8c0-0.4,0-0.6,0-0.8v-7.1h-2v-1.9h2v-3.6h2.6v3.6H283.9z"/>
<path d="M95.9-78.6v1.7c1-1.3,2.2-2,3.7-2c0.8,0,1.4,0.2,2,0.5c0.6,0.4,1,0.9,1.3,1.5c0.9-1.3,2.2-2,3.8-2c1.1,0,2,0.3,2.8,1
	s1.1,1.6,1.1,2.8v8.4H108V-74c0-0.8-0.2-1.5-0.4-2c-0.3-0.5-0.9-0.7-1.7-0.7c-0.9,0-1.5,0.3-1.9,0.8c-0.5,0.5-0.7,1.3-0.7,2.2v7
	h-2.6v-7.4c0-0.8-0.1-1.5-0.4-1.9c-0.3-0.4-0.8-0.6-1.6-0.6c-0.9,0-1.6,0.3-2,0.9c-0.5,0.6-0.7,1.3-0.7,2.3v6.8h-2.6v-11.9H95.9z"/>
<path d="M124-70.4c-0.3,1.3-0.9,2.3-1.9,3c-1,0.7-2.1,1.1-3.5,1.1c-1.8,0-3.2-0.6-4.3-1.7s-1.6-2.6-1.6-4.5c0-1.8,0.5-3.4,1.6-4.6
	c1.1-1.2,2.5-1.8,4.1-1.8c1.7,0,3.1,0.6,4.1,1.8c1,1.2,1.5,2.8,1.5,4.9v0.3h-8.8c0,1.2,0.3,2.1,0.9,2.8c0.6,0.6,1.4,1,2.4,1
	c0.7,0,1.3-0.2,1.7-0.5c0.5-0.3,0.8-0.9,1.1-1.7H124z M121.6-73.8c-0.1-1-0.4-1.8-0.9-2.3c-0.6-0.6-1.2-0.9-2.1-0.9
	c-0.9,0-1.6,0.3-2.1,0.8c-0.5,0.6-0.9,1.4-1,2.4H121.6z"/>
<path d="M128.7-78.6v1.7c0.9-1.4,2.3-2.1,3.9-2.1c1.3,0,2.3,0.4,3,1.1c0.7,0.7,1,1.8,1,3.2v7.9H134v-6.9c0-0.5,0-0.9-0.1-1.2
	c0-0.3-0.2-0.6-0.3-1s-0.4-0.6-0.7-0.7c-0.3-0.2-0.7-0.3-1.2-0.3c-1.9,0-2.9,1.2-2.9,3.6v6.4h-2.6v-11.9H128.7z"/>
<path d="M149.8-78.6v11.9h-2.5v-1.8c-1,1.4-2.3,2.1-3.9,2.1c-1.3,0-2.3-0.4-3-1.1c-0.7-0.7-1-1.8-1-3.2v-7.9h2.6v6.8
	c0,0.4,0,0.8,0,1c0,0.3,0,0.5,0.1,0.9c0.1,0.3,0.2,0.6,0.4,0.7c0.2,0.2,0.4,0.3,0.7,0.4c0.3,0.1,0.7,0.2,1.1,0.2c1,0,1.7-0.3,2.2-1
	c0.5-0.7,0.7-1.6,0.7-2.7v-6.3H149.8z"/>
<path class="st0" d="M15-65.4v2.5C14.5-63,14.2-63,14-63c-2.3,0-3.4,1.5-3.4,4.4v5.2H8v-11.9h2.5v2.4c0.8-1.7,2.2-2.6,4-2.6L15-65.4
	z"/>
<path class="st0" d="M26.6-57c-0.3,1.3-0.9,2.3-1.9,3c-1,0.7-2.1,1.1-3.5,1.1c-1.8,0-3.2-0.6-4.3-1.7c-1.1-1.2-1.6-2.6-1.6-4.5
	c0-1.8,0.5-3.4,1.6-4.6c1.1-1.2,2.5-1.8,4.1-1.8c1.7,0,3.1,0.6,4.1,1.8c1,1.2,1.5,2.8,1.5,4.9v0.3H18c0,1.2,0.3,2.1,0.9,2.8
	c0.6,0.6,1.4,1,2.4,1c0.7,0,1.3-0.2,1.7-0.5c0.5-0.3,0.8-0.9,1.1-1.7H26.6z M24.1-60.4c-0.1-1-0.4-1.8-0.9-2.3s-1.2-0.9-2.1-0.9
	c-0.9,0-1.6,0.3-2.1,0.8c-0.5,0.6-0.9,1.4-1,2.4H24.1z"/>
<path class="st0" d="M39.3-57c-0.3,1.3-0.9,2.3-1.9,3c-1,0.7-2.1,1.1-3.5,1.1c-1.8,0-3.2-0.6-4.3-1.7c-1.1-1.2-1.6-2.6-1.6-4.5
	c0-1.8,0.5-3.4,1.6-4.6c1.1-1.2,2.5-1.8,4.1-1.8c1.7,0,3.1,0.6,4.1,1.8s1.5,2.8,1.5,4.9v0.3h-8.8c0,1.2,0.3,2.1,0.9,2.8
	c0.6,0.6,1.4,1,2.4,1c0.7,0,1.3-0.2,1.7-0.5c0.5-0.3,0.8-0.9,1.1-1.7H39.3z M36.9-60.4c-0.1-1-0.4-1.8-0.9-2.3
	c-0.6-0.6-1.2-0.9-2.1-0.9c-0.9,0-1.6,0.3-2.1,0.8c-0.5,0.6-0.9,1.4-1,2.4H36.9z"/>
<path class="st0" d="M44.2-69.7v16.4h-2.6v-16.4H44.2z"/>
<path class="st0" d="M231.2-66.5h-4.7v-1.2h-1.2v-1.2h-1.2v-2.4h1.2v-1.2h2.4v-1.2h4.7v-1.2h-1.2v-1.2h-3.5v1.2h-3.5v-1.2h1.2v-1.2
	h1.2v-1.2h5.9v1.2h1.2v1.2h1.2v9.4h-2.4v-1.2h-1.2V-66.5z M227.1-68.9h4.1V-70h1.2v-2.4h-1.2v1.2h-4.1V-68.9z"/>
<path class="st0" d="M239.5-66.5h-2.4V-83h2.4v5.9h1.2v-1.2h5.6v1.2h1.2v1.2h1.2v7.1h-1.2v1.2h-1.2v1.2h-5.6v-1.2h-1.2V-66.5z
	 M240.7-68.9h4.4V-70h1.2v-4.7h-1.2v-1.2h-4.4v1.2h-1.2v4.7h1.2V-68.9z"/>
<path class="st0" d="M259.9-66.5h-6.4v-1.2h-1.3v-1.2h-1.3v-7.3h1.3v-1.2h1.3v-1.2h6.4v1.2h1.3v1.2h1.3v7.3h-1.3v1.2h-1.3V-66.5z
	 M254.8-68.9h3.9v-1.2h1.3V-75h-1.3v-1.2h-3.9v1.2h-1.3v4.8h1.3V-68.9z"/>
<path class="st0" d="M271.5-66.5h-4.1v-1.2h-1.2v-1.2H265v-9.4h2.4v8.2h1.2v1.2h2.9V-70h1.2v-8.2h2.4v11.8h-2.4v-1.2h-1.2V-66.5z"/>
<path class="st0" d="M283.7-66.8h-3.5V-68h-1.2v-8.8h-1.8v-1.8h1.8v-3.5h2.4v3.5h2.4v1.8h-2.4v7.7h2.4V-66.8z"/>
<path class="st0" d="M96.2-66.8h-2.4v-11.8h2.4v1.2h1.2v-1.2h3.5v1.2h2.4v-1.2h4.7v1.2h1.2v1.2h1.2v9.4H108V-75h-1.2v-1.2h-2.4v1.2
	h-1.2v8.2h-2.4V-75h-1.2v-1.2h-2.4v1.2h-1.2V-66.8z"/>
<path class="st0" d="M121.2-66.8h-5.9v-1.2h-1.2v-1.2H113v-7.1h1.2v-1.2h1.2v-1.2h5.9v1.2h1.2v1.2h1.2v4.1h-8.2v1.8h1.2v1.2h3.5
	v-1.2h3.5v1.2h-1.2v1.2h-1.2V-66.8z M115.3-73.8h5.9V-75H120v-1.2h-3.5v1.2h-1.2V-73.8z"/>
<path class="st0" d="M128.9-66.8h-2.4v-11.8h2.4v1.2h1.2v-1.2h4.1v1.2h1.2v1.2h1.2v9.4h-2.4V-75h-1.2v-1.2h-2.9v1.2h-1.2V-66.8z"/>
<path class="st0" d="M146.1-66.8H142v-1.2h-1.2v-1.2h-1.2v-9.4h2.4v8.2h1.2v1.2h2.9v-1.2h1.2v-8.2h2.4v11.8h-2.4v-1.2h-1.2V-66.8z"
	/>
<path d="M10.4-53.5H8v-11.8h2.4v1.2h1.2v-1.2h2.9v2.4h-2.9v1.2h-1.2V-53.5z"/>
<path d="M24-53.5h-5.9v-1.2h-1.2v-1.2h-1.2v-7.1h1.2v-1.2h1.2v-1.2H24v1.2h1.2v1.2h1.2v4.1h-8.2v1.8h1.2v1.2h3.5V-57h3.5v1.2h-1.2
	v1.2H24V-53.5z M18.1-60.5H24v-1.2h-1.2v-1.2h-3.5v1.2h-1.2V-60.5z"/>
<path d="M36.8-53.5h-5.9v-1.2h-1.2v-1.2h-1.2v-7.1h1.2v-1.2h1.2v-1.2h5.9v1.2H38v1.2h1.2v4.1h-8.3v1.8h1.2v1.2h3.5V-57h3.5v1.2H38
	v1.2h-1.2V-53.5z M30.9-60.5h5.9v-1.2h-1.2v-1.2h-3.5v1.2h-1.2V-60.5z"/>
<path d="M44.1-53.5h-2.4V-70h2.4V-53.5z"/>
<path d="M224.3-178.5c0.3-2.7,2-4,5.2-4c1.5,0,2.7,0.3,3.5,0.9c0.9,0.6,1.3,1.5,1.3,2.7v6c0,0.3,0,0.6,0.1,0.7
	c0.1,0.1,0.3,0.2,0.5,0.2c0.2,0,0.4,0,0.6,0v1.8c-0.7,0.2-1.2,0.3-1.7,0.3c-1.1,0-1.8-0.5-1.9-1.4c-1,1-2.4,1.4-4.2,1.4
	c-1.2,0-2.2-0.3-2.9-0.9c-0.7-0.6-1.1-1.5-1.1-2.6c0-0.3,0-0.6,0.1-0.9c0.1-0.3,0.2-0.5,0.3-0.8c0.1-0.2,0.3-0.4,0.5-0.6
	c0.2-0.2,0.4-0.3,0.6-0.5c0.1-0.1,0.4-0.2,0.7-0.3c0.3-0.1,0.6-0.2,0.7-0.2c0.2,0,0.4-0.1,0.9-0.2c0.4,0,0.6-0.1,0.8-0.1
	c0.1,0,0.4-0.1,0.8-0.1c0.9-0.1,1.6-0.2,1.9-0.3c0.3-0.1,0.6-0.2,0.7-0.4c0.1-0.1,0.2-0.4,0.2-0.9c0-1.2-0.8-1.8-2.4-1.8
	c-0.9,0-1.5,0.2-1.9,0.5c-0.4,0.3-0.7,0.9-0.8,1.6H224.3z M231.8-176.2c-0.2,0.1-0.4,0.2-0.7,0.3c-0.3,0.1-0.5,0.1-0.6,0.2
	c-0.2,0-0.4,0-0.8,0.1c-0.3,0-0.6,0.1-0.7,0.1c-0.3,0-0.6,0.1-0.8,0.1c-0.2,0-0.4,0.1-0.7,0.2c-0.3,0.1-0.5,0.2-0.6,0.3
	s-0.3,0.3-0.4,0.5c-0.1,0.2-0.2,0.5-0.2,0.8c0,0.6,0.2,1,0.6,1.3c0.4,0.3,0.9,0.5,1.6,0.5c1.1,0,2-0.3,2.7-0.9c0.3-0.3,0.5-1,0.5-2
	V-176.2z"/>
<path d="M239.8-186.6v6c0.9-1.2,2.2-1.8,3.9-1.8c1.6,0,2.8,0.6,3.8,1.7c1,1.1,1.4,2.6,1.4,4.5c0,1.9-0.5,3.5-1.5,4.6
	c-1,1.2-2.3,1.7-3.9,1.7c-1.8,0-3.1-0.6-3.9-1.9v1.6h-2.5v-16.4H239.8z M243-180.3c-1,0-1.8,0.4-2.4,1.1c-0.6,0.7-0.9,1.8-0.9,3.1
	c0,1.3,0.3,2.3,0.9,3c0.6,0.7,1.4,1.1,2.4,1.1c1,0,1.8-0.4,2.4-1.1c0.6-0.8,0.9-1.8,0.9-3.1c0-1.2-0.3-2.3-0.9-3
	C244.8-180,244-180.3,243-180.3z"/>
<path d="M256.7-182.5c1.8,0,3.2,0.6,4.3,1.7c1.1,1.1,1.6,2.7,1.6,4.6c0,1.9-0.6,3.5-1.6,4.6c-1.1,1.2-2.5,1.7-4.3,1.7
	c-1.9,0-3.3-0.6-4.4-1.7c-1.1-1.1-1.6-2.7-1.6-4.6c0-1.9,0.5-3.4,1.6-4.6C253.4-181.9,254.9-182.5,256.7-182.5z M256.7-180.4
	c-1.1,0-1.9,0.4-2.5,1.1c-0.6,0.8-0.9,1.8-0.9,3.1c0,1.3,0.3,2.4,0.9,3.1c0.6,0.8,1.4,1.1,2.5,1.1c1,0,1.8-0.4,2.4-1.1
	c0.6-0.8,0.9-1.8,0.9-3.2c0-1.3-0.3-2.3-0.9-3.1C258.5-180,257.7-180.4,256.7-180.4z"/>
<path d="M275.3-182.1v11.9h-2.5v-1.8c-1,1.4-2.3,2.1-3.9,2.1c-1.3,0-2.3-0.4-3-1.1c-0.7-0.7-1-1.8-1-3.2v-7.9h2.6v6.8
	c0,0.4,0,0.8,0,1c0,0.3,0,0.5,0.1,0.9c0.1,0.3,0.2,0.6,0.4,0.7c0.2,0.2,0.4,0.3,0.7,0.4c0.3,0.1,0.7,0.2,1.1,0.2c1,0,1.7-0.3,2.2-1
	s0.7-1.6,0.7-2.7v-6.3H275.3z"/>
<path d="M283.9-182.1v1.9h-2.4v6.3c0,0.4,0,0.6,0,0.8c0,0.1,0,0.3,0.1,0.5c0.1,0.2,0.2,0.3,0.4,0.3c0.2,0.1,0.5,0.1,0.8,0.1
	c0.4,0,0.8,0,1,0v2.1c-0.5,0.1-1.1,0.1-1.8,0.1c-0.5,0-0.9,0-1.2-0.1s-0.6-0.2-0.9-0.3s-0.4-0.2-0.6-0.5c-0.2-0.2-0.3-0.4-0.4-0.6
	c-0.1-0.1-0.1-0.4-0.2-0.8c0-0.4,0-0.6,0-0.8v-7.1h-2v-1.9h2v-3.6h2.6v3.6H283.9z"/>
<path d="M95.9-182.1v1.7c1-1.3,2.2-2,3.7-2c0.8,0,1.4,0.2,2,0.5c0.6,0.4,1,0.9,1.3,1.5c0.9-1.3,2.2-2,3.8-2c1.1,0,2,0.3,2.8,1
	c0.7,0.7,1.1,1.6,1.1,2.8v8.4H108v-7.3c0-0.8-0.2-1.5-0.4-2c-0.3-0.5-0.9-0.7-1.7-0.7c-0.9,0-1.5,0.3-1.9,0.8
	c-0.5,0.5-0.7,1.3-0.7,2.2v7h-2.6v-7.4c0-0.8-0.1-1.5-0.4-1.9c-0.3-0.4-0.8-0.6-1.6-0.6c-0.9,0-1.6,0.3-2,0.9S96-178,96-177.1v6.8
	h-2.6v-11.9H95.9z"/>
<path d="M124-174c-0.3,1.3-0.9,2.3-1.9,3c-1,0.7-2.1,1.1-3.5,1.1c-1.8,0-3.2-0.6-4.3-1.7c-1.1-1.1-1.6-2.6-1.6-4.5
	c0-1.8,0.5-3.4,1.6-4.6c1.1-1.2,2.5-1.8,4.1-1.8c1.7,0,3.1,0.6,4.1,1.8s1.5,2.8,1.5,4.9v0.3h-8.8c0,1.2,0.3,2.1,0.9,2.8
	c0.6,0.6,1.4,1,2.4,1c0.7,0,1.3-0.2,1.7-0.5s0.8-0.9,1.1-1.7H124z M121.6-177.3c-0.1-1-0.4-1.8-0.9-2.3c-0.6-0.6-1.2-0.9-2.1-0.9
	c-0.9,0-1.6,0.3-2.1,0.8s-0.9,1.4-1,2.4H121.6z"/>
<path d="M128.7-182.1v1.7c0.9-1.4,2.3-2.1,3.9-2.1c1.3,0,2.3,0.4,3,1.1c0.7,0.7,1,1.8,1,3.2v7.9H134v-6.9c0-0.5,0-0.9-0.1-1.2
	c0-0.3-0.2-0.6-0.3-1c-0.1-0.3-0.4-0.6-0.7-0.7c-0.3-0.2-0.7-0.3-1.2-0.3c-1.9,0-2.9,1.2-2.9,3.6v6.4h-2.6v-11.9H128.7z"/>
<path d="M149.8-182.1v11.9h-2.5v-1.8c-1,1.4-2.3,2.1-3.9,2.1c-1.3,0-2.3-0.4-3-1.1c-0.7-0.7-1-1.8-1-3.2v-7.9h2.6v6.8
	c0,0.4,0,0.8,0,1c0,0.3,0,0.5,0.1,0.9c0.1,0.3,0.2,0.6,0.4,0.7c0.2,0.2,0.4,0.3,0.7,0.4c0.3,0.1,0.7,0.2,1.1,0.2c1,0,1.7-0.3,2.2-1
	s0.7-1.6,0.7-2.7v-6.3H149.8z"/>
<path class="st0" d="M15-169v2.5c-0.5,0-0.8-0.1-0.9-0.1c-2.3,0-3.4,1.5-3.4,4.4v5.2H8v-11.9h2.5v2.4c0.8-1.7,2.2-2.6,4-2.6L15-169z
	"/>
<path class="st0" d="M26.6-160.6c-0.3,1.3-0.9,2.3-1.9,3c-1,0.7-2.1,1.1-3.5,1.1c-1.8,0-3.2-0.6-4.3-1.7c-1.1-1.2-1.6-2.6-1.6-4.5
	c0-1.8,0.5-3.4,1.6-4.6c1.1-1.2,2.5-1.8,4.1-1.8c1.7,0,3.1,0.6,4.1,1.8c1,1.2,1.5,2.8,1.5,4.9v0.3H18c0,1.2,0.3,2.1,0.9,2.8
	c0.6,0.6,1.4,1,2.4,1c0.7,0,1.3-0.2,1.7-0.5c0.5-0.3,0.8-0.9,1.1-1.7H26.6z M24.1-163.9c-0.1-1-0.4-1.8-0.9-2.3s-1.2-0.9-2.1-0.9
	c-0.9,0-1.6,0.3-2.1,0.8c-0.5,0.6-0.9,1.4-1,2.4H24.1z"/>
<path class="st0" d="M39.3-160.6c-0.3,1.3-0.9,2.3-1.9,3c-1,0.7-2.1,1.1-3.5,1.1c-1.8,0-3.2-0.6-4.3-1.7c-1.1-1.2-1.6-2.6-1.6-4.5
	c0-1.8,0.5-3.4,1.6-4.6c1.1-1.2,2.5-1.8,4.1-1.8c1.7,0,3.1,0.6,4.1,1.8s1.5,2.8,1.5,4.9v0.3h-8.8c0,1.2,0.3,2.1,0.9,2.8
	c0.6,0.6,1.4,1,2.4,1c0.7,0,1.3-0.2,1.7-0.5c0.5-0.3,0.8-0.9,1.1-1.7H39.3z M36.9-163.9c-0.1-1-0.4-1.8-0.9-2.3
	c-0.6-0.6-1.2-0.9-2.1-0.9c-0.9,0-1.6,0.3-2.1,0.8c-0.5,0.6-0.9,1.4-1,2.4H36.9z"/>
<path class="st0" d="M44.2-173.2v16.4h-2.6v-16.4H44.2z"/>
<path class="st0" d="M231.2-170h-4.7v-1.2h-1.2v-1.2h-1.2v-2.4h1.2v-1.2h2.4v-1.2h4.7v-1.2h-1.2v-1.2h-3.5v1.2h-3.5v-1.2h1.2v-1.2
	h1.2v-1.2h5.9v1.2h1.2v1.2h1.2v9.4h-2.4v-1.2h-1.2V-170z M227.1-172.4h4.1v-1.2h1.2v-2.4h-1.2v1.2h-4.1V-172.4z"/>
<path class="st0" d="M239.5-170h-2.4v-16.5h2.4v5.9h1.2v-1.2h5.6v1.2h1.2v1.2h1.2v7.1h-1.2v1.2h-1.2v1.2h-5.6v-1.2h-1.2V-170z
	 M240.7-172.4h4.4v-1.2h1.2v-4.7h-1.2v-1.2h-4.4v1.2h-1.2v4.7h1.2V-172.4z"/>
<path class="st0" d="M259.9-170h-6.4v-1.2h-1.3v-1.2h-1.3v-7.3h1.3v-1.2h1.3v-1.2h6.4v1.2h1.3v1.2h1.3v7.3h-1.3v1.2h-1.3V-170z
	 M254.8-172.5h3.9v-1.2h1.3v-4.8h-1.3v-1.2h-3.9v1.2h-1.3v4.8h1.3V-172.5z"/>
<path class="st0" d="M271.5-170h-4.1v-1.2h-1.2v-1.2H265v-9.4h2.4v8.2h1.2v1.2h2.9v-1.2h1.2v-8.2h2.4v11.8h-2.4v-1.2h-1.2V-170z"/>
<path class="st0" d="M283.7-170.3h-3.5v-1.2h-1.2v-8.8h-1.8v-1.8h1.8v-3.5h2.4v3.5h2.4v1.8h-2.4v7.7h2.4V-170.3z"/>
<path class="st0" d="M96.2-170.3h-2.4v-11.8h2.4v1.2h1.2v-1.2h3.5v1.2h2.4v-1.2h4.7v1.2h1.2v1.2h1.2v9.4H108v-8.2h-1.2v-1.2h-2.4
	v1.2h-1.2v8.2h-2.4v-8.2h-1.2v-1.2h-2.4v1.2h-1.2V-170.3z"/>
<path class="st0" d="M121.2-170.3h-5.9v-1.2h-1.2v-1.2H113v-7.1h1.2v-1.2h1.2v-1.2h5.9v1.2h1.2v1.2h1.2v4.1h-8.2v1.8h1.2v1.2h3.5
	v-1.2h3.5v1.2h-1.2v1.2h-1.2V-170.3z M115.3-177.3h5.9v-1.2H120v-1.2h-3.5v1.2h-1.2V-177.3z"/>
<path class="st0" d="M128.9-170.3h-2.4v-11.8h2.4v1.2h1.2v-1.2h4.1v1.2h1.2v1.2h1.2v9.4h-2.4v-8.2h-1.2v-1.2h-2.9v1.2h-1.2V-170.3z"
	/>
<path class="st0" d="M146.1-170.3H142v-1.2h-1.2v-1.2h-1.2v-9.4h2.4v8.2h1.2v1.2h2.9v-1.2h1.2v-8.2h2.4v11.8h-2.4v-1.2h-1.2V-170.3z
	"/>
<path d="M10.4-157H8v-11.8h2.4v1.2h1.2v-1.2h2.9v2.4h-2.9v1.2h-1.2V-157z"/>
<path d="M24-157h-5.9v-1.2h-1.2v-1.2h-1.2v-7.1h1.2v-1.2h1.2v-1.2H24v1.2h1.2v1.2h1.2v4.1h-8.2v1.8h1.2v1.2h3.5v-1.2h3.5v1.2h-1.2
	v1.2H24V-157z M18.1-164.1H24v-1.2h-1.2v-1.2h-3.5v1.2h-1.2V-164.1z"/>
<path d="M36.8-157h-5.9v-1.2h-1.2v-1.2h-1.2v-7.1h1.2v-1.2h1.2v-1.2h5.9v1.2H38v1.2h1.2v4.1h-8.3v1.8h1.2v1.2h3.5v-1.2h3.5v1.2H38
	v1.2h-1.2V-157z M30.9-164.1h5.9v-1.2h-1.2v-1.2h-3.5v1.2h-1.2V-164.1z"/>
<path d="M44.1-157h-2.4v-16.5h2.4V-157z"/>
</svg>
